<svg width="1089" height="660" viewBox="0 0 1089 660" fill="none" xmlns="http://www.w3.org/2000/svg">
<path d="M10 1.5H1079C1083.68 1.5 1087.5 5.36871 1087.5 10.0784V11.5311V12.9815V14.4294V15.875V17.3183V18.7592V20.1977V21.634V23.0679V24.4995V25.9288V27.3558V28.7805V30.203V31.6232V33.0411V34.4568V35.8703V37.2816V38.6906V40.0974V41.502V42.9045V44.3047V45.7028V47.0987V48.4925V49.8842V51.2737V52.6611V54.0463V55.4295V56.8106V58.1896V59.5665V60.9413V62.3141V63.6849V65.0536V66.4202V67.7849V69.1476V70.5082V71.8669V73.2235V74.5782V75.931V77.2818V78.6306V79.9775V81.3225V82.6656V84.0067V85.346V86.6833V88.0188V89.3525V90.6842V92.0141V93.3422V94.6684V95.9928V97.3154V98.6362V99.9552V101.272V102.588V103.902V105.213V106.524V107.832V109.139V110.444V111.747V113.049V114.348V115.647V116.943V118.238V119.531V120.823V122.113V123.401V124.688V125.973V127.256V128.538V129.818V131.097V132.374V133.65V134.924V136.196V137.467V138.737V140.005V141.271V142.536V143.8V145.062V146.323V147.582V148.84V150.096V151.351V152.604V153.856V155.107V156.356V157.604V158.851V160.096V161.34V162.582V163.823V165.063V166.302V167.539V168.775V170.01V171.243V172.475V173.706V174.936V176.164V177.391V178.617V179.842V181.066V182.288V183.509V184.729V185.948V187.166V188.382V189.598V190.812V192.025V193.237V194.449V195.658V196.867V198.075V199.282V200.488V201.692V202.896V204.098V205.3V206.501V207.7V208.899V210.097V211.293V212.489V213.684V214.878V216.071V217.263V218.454V219.644V220.833V222.022V223.209V224.396V225.582V226.767V227.951V229.134V230.317V231.499V232.68V233.86V235.039V236.218V237.396V238.573V239.749V240.925V242.1V243.274V244.448V245.62V246.793V247.964V249.135V250.305V251.475V252.643V253.812V254.979V256.146V257.313V258.479V259.644V260.809V261.973V263.136V264.299V265.462V266.624V267.785V268.946V270.107V271.267V272.426V273.585V274.744V275.902V277.06V278.217V279.374V280.53V281.686V282.842V283.997V285.152V286.306V287.461V288.614V289.768V290.921V292.074V293.226V294.379V295.53V296.682V297.834V298.985V300.135V301.286V302.436V303.587V304.737V305.886V307.036V308.185V309.334V310.483V311.632V312.781V313.93V315.078V316.226V317.375V318.523V319.671V320.819V321.966V323.114V324.262V325.41V326.557V327.705V328.852V330V331.148V332.295V333.443V334.59V335.738V336.886V338.034V339.181V340.329V341.477V342.625V343.774V344.922V346.07V347.219V348.368V349.517V350.666V351.815V352.964V354.114V355.263V356.413V357.564V358.714V359.865V361.015V362.166V363.318V364.47V365.621V366.774V367.926V369.079V370.232V371.386V372.539V373.694V374.848V376.003V377.158V378.314V379.47V380.626V381.783V382.94V384.098V385.256V386.415V387.574V388.733V389.893V391.054V392.215V393.376V394.538V395.701V396.864V398.027V399.191V400.356V401.521V402.687V403.854V405.021V406.188V407.357V408.525V409.695V410.865V412.036V413.207V414.38V415.552V416.726V417.9V419.075V420.251V421.427V422.604V423.782V424.961V426.14V427.32V428.501V429.683V430.866V432.049V433.233V434.418V435.604V436.791V437.978V439.167V440.356V441.546V442.737V443.929V445.122V446.316V447.511V448.707V449.903V451.101V452.3V453.499V454.7V455.902V457.104V458.308V459.512V460.718V461.925V463.133V464.342V465.551V466.763V467.975V469.188V470.402V471.618V472.834V474.052V475.271V476.491V477.712V478.934V480.158V481.383V482.609V483.836V485.064V486.294V487.525V488.757V489.99V491.225V492.461V493.698V494.937V496.177V497.418V498.66V499.904V501.149V502.396V503.644V504.893V506.144V507.396V508.649V509.904V511.16V512.418V513.677V514.938V516.2V517.464V518.729V519.995V521.263V522.533V523.804V525.076V526.35V527.626V528.903V530.182V531.462V532.744V534.027V535.312V536.599V537.887V539.177V540.469V541.762V543.057V544.353V545.652V546.951V548.253V549.556V550.861V552.168V553.476V554.786V556.098V557.412V558.728V560.045V561.364V562.685V564.007V565.332V566.658V567.986V569.316V570.648V571.981V573.317V574.654V575.993V577.334V578.677V580.022V581.369V582.718V584.069V585.422V586.776V588.133V589.492V590.852V592.215V593.58V594.946V596.315V597.686V599.059V600.434V601.81V603.189V604.57V605.954V607.339V608.726V610.116V611.508V612.901V614.297V615.695V617.096V618.498V619.903V621.309V622.718V624.13V625.543V626.959V628.377V629.797V631.219V632.644V634.071V635.501V636.932V638.366V639.802V641.241V642.682V644.125V645.571V647.019V648.469V649.922C1087.5 654.631 1083.68 658.5 1079 658.5H10C5.30559 658.5 1.5 654.694 1.5 650V9.99999C1.5 5.30557 5.30558 1.5 10 1.5Z" stroke="#968F9C" stroke-width="3"/>
<line y1="63.5" x2="1089" y2="63.5" stroke="#968F9C" stroke-width="3"/>
<circle cx="34.5" cy="33.5" r="10.5" fill="#FD5A53"/>
<circle cx="70.5" cy="33.5" r="10.5" fill="#E9BF27"/>
<circle cx="106.5" cy="33.5" r="10.5" fill="#52C12B"/>
<rect width="500" height="36" rx="10" transform="matrix(1 0 0 -1 294 50)" fill="#F3F0FF"/>
<path d="M313.128 27.6H316.8C317.696 27.6 318.492 27.776 319.188 28.128C319.884 28.472 320.424 28.964 320.808 29.604C321.192 30.236 321.384 30.968 321.384 31.8C321.384 32.632 321.192 33.368 320.808 34.008C320.424 34.64 319.884 35.132 319.188 35.484C318.492 35.828 317.696 36 316.8 36H313.128V27.6ZM316.728 34.68C317.344 34.68 317.884 34.564 318.348 34.332C318.82 34.092 319.18 33.756 319.428 33.324C319.684 32.884 319.812 32.376 319.812 31.8C319.812 31.224 319.684 30.72 319.428 30.288C319.18 29.848 318.82 29.512 318.348 29.28C317.884 29.04 317.344 28.92 316.728 28.92H314.688V34.68H316.728ZM322.898 29.592H324.398V36H322.898V29.592ZM323.654 28.536C323.382 28.536 323.154 28.452 322.97 28.284C322.786 28.108 322.694 27.892 322.694 27.636C322.694 27.38 322.786 27.168 322.97 27C323.154 26.824 323.382 26.736 323.654 26.736C323.926 26.736 324.154 26.82 324.338 26.988C324.522 27.148 324.614 27.352 324.614 27.6C324.614 27.864 324.522 28.088 324.338 28.272C324.162 28.448 323.934 28.536 323.654 28.536ZM332.367 29.592L329.619 36H328.071L325.323 29.592H326.883L328.875 34.344L330.927 29.592H332.367ZM335.553 29.52C336.497 29.52 337.217 29.748 337.713 30.204C338.217 30.652 338.469 31.332 338.469 32.244V36H337.053V35.22C336.869 35.5 336.605 35.716 336.261 35.868C335.925 36.012 335.517 36.084 335.037 36.084C334.557 36.084 334.137 36.004 333.777 35.844C333.417 35.676 333.137 35.448 332.937 35.16C332.745 34.864 332.649 34.532 332.649 34.164C332.649 33.588 332.861 33.128 333.285 32.784C333.717 32.432 334.393 32.256 335.313 32.256H336.969V32.16C336.969 31.712 336.833 31.368 336.561 31.128C336.297 30.888 335.901 30.768 335.373 30.768C335.013 30.768 334.657 30.824 334.305 30.936C333.961 31.048 333.669 31.204 333.429 31.404L332.841 30.312C333.177 30.056 333.581 29.86 334.053 29.724C334.525 29.588 335.025 29.52 335.553 29.52ZM335.349 34.992C335.725 34.992 336.057 34.908 336.345 34.74C336.641 34.564 336.849 34.316 336.969 33.996V33.252H335.421C334.557 33.252 334.125 33.536 334.125 34.104C334.125 34.376 334.233 34.592 334.449 34.752C334.665 34.912 334.965 34.992 335.349 34.992ZM340.874 36.084C340.602 36.084 340.37 35.992 340.178 35.808C339.986 35.616 339.89 35.376 339.89 35.088C339.89 34.792 339.982 34.552 340.166 34.368C340.358 34.184 340.594 34.092 340.874 34.092C341.154 34.092 341.386 34.184 341.57 34.368C341.762 34.552 341.858 34.792 341.858 35.088C341.858 35.376 341.762 35.616 341.57 35.808C341.378 35.992 341.146 36.084 340.874 36.084ZM346.147 36.084C345.483 36.084 344.887 35.944 344.359 35.664C343.831 35.384 343.419 34.996 343.123 34.5C342.827 33.996 342.679 33.428 342.679 32.796C342.679 32.164 342.827 31.6 343.123 31.104C343.419 30.608 343.827 30.22 344.347 29.94C344.875 29.66 345.475 29.52 346.147 29.52C346.779 29.52 347.331 29.648 347.803 29.904C348.283 30.16 348.643 30.528 348.883 31.008L347.731 31.68C347.547 31.384 347.315 31.164 347.035 31.02C346.763 30.868 346.463 30.792 346.135 30.792C345.575 30.792 345.111 30.976 344.743 31.344C344.375 31.704 344.191 32.188 344.191 32.796C344.191 33.404 344.371 33.892 344.731 34.26C345.099 34.62 345.567 34.8 346.135 34.8C346.463 34.8 346.763 34.728 347.035 34.584C347.315 34.432 347.547 34.208 347.731 33.912L348.883 34.584C348.635 35.064 348.271 35.436 347.791 35.7C347.319 35.956 346.771 36.084 346.147 36.084ZM352.966 36.084C352.318 36.084 351.734 35.944 351.214 35.664C350.694 35.384 350.286 34.996 349.99 34.5C349.702 33.996 349.558 33.428 349.558 32.796C349.558 32.164 349.702 31.6 349.99 31.104C350.286 30.608 350.694 30.22 351.214 29.94C351.734 29.66 352.318 29.52 352.966 29.52C353.622 29.52 354.21 29.66 354.73 29.94C355.25 30.22 355.654 30.608 355.942 31.104C356.238 31.6 356.386 32.164 356.386 32.796C356.386 33.428 356.238 33.996 355.942 34.5C355.654 34.996 355.25 35.384 354.73 35.664C354.21 35.944 353.622 36.084 352.966 36.084ZM352.966 34.8C353.518 34.8 353.974 34.616 354.334 34.248C354.694 33.88 354.874 33.396 354.874 32.796C354.874 32.196 354.694 31.712 354.334 31.344C353.974 30.976 353.518 30.792 352.966 30.792C352.414 30.792 351.958 30.976 351.598 31.344C351.246 31.712 351.07 32.196 351.07 32.796C351.07 33.396 351.246 33.88 351.598 34.248C351.958 34.616 352.414 34.8 352.966 34.8ZM365.908 29.52C366.716 29.52 367.356 29.756 367.828 30.228C368.3 30.692 368.536 31.392 368.536 32.328V36H367.036V32.52C367.036 31.96 366.912 31.54 366.664 31.26C366.416 30.972 366.06 30.828 365.596 30.828C365.092 30.828 364.688 30.996 364.384 31.332C364.08 31.66 363.928 32.132 363.928 32.748V36H362.428V32.52C362.428 31.96 362.304 31.54 362.056 31.26C361.808 30.972 361.452 30.828 360.988 30.828C360.476 30.828 360.068 30.992 359.764 31.32C359.468 31.648 359.32 32.124 359.32 32.748V36H357.82V29.592H359.248V30.408C359.488 30.12 359.788 29.9 360.148 29.748C360.508 29.596 360.908 29.52 361.348 29.52C361.828 29.52 362.252 29.612 362.62 29.796C362.996 29.972 363.292 30.236 363.508 30.588C363.772 30.252 364.112 29.992 364.528 29.808C364.944 29.616 365.404 29.52 365.908 29.52ZM370.933 36.084C370.661 36.084 370.429 35.992 370.237 35.808C370.045 35.616 369.949 35.376 369.949 35.088C369.949 34.792 370.041 34.552 370.225 34.368C370.417 34.184 370.653 34.092 370.933 34.092C371.213 34.092 371.445 34.184 371.629 34.368C371.821 34.552 371.917 34.792 371.917 35.088C371.917 35.376 371.821 35.616 371.629 35.808C371.437 35.992 371.205 36.084 370.933 36.084ZM376.934 29.52C377.558 29.52 378.114 29.656 378.602 29.928C379.098 30.2 379.486 30.584 379.766 31.08C380.046 31.576 380.186 32.148 380.186 32.796C380.186 33.444 380.046 34.02 379.766 34.524C379.486 35.02 379.098 35.404 378.602 35.676C378.114 35.948 377.558 36.084 376.934 36.084C376.494 36.084 376.09 36.008 375.722 35.856C375.362 35.704 375.058 35.476 374.81 35.172V36H373.382V27.096H374.882V30.372C375.138 30.092 375.438 29.88 375.782 29.736C376.134 29.592 376.518 29.52 376.934 29.52ZM376.766 34.8C377.318 34.8 377.77 34.616 378.122 34.248C378.482 33.88 378.662 33.396 378.662 32.796C378.662 32.196 378.482 31.712 378.122 31.344C377.77 30.976 377.318 30.792 376.766 30.792C376.406 30.792 376.082 30.876 375.794 31.044C375.506 31.204 375.278 31.436 375.11 31.74C374.942 32.044 374.858 32.396 374.858 32.796C374.858 33.196 374.942 33.548 375.11 33.852C375.278 34.156 375.506 34.392 375.794 34.56C376.082 34.72 376.406 34.8 376.766 34.8ZM383.037 30.528C383.469 29.856 384.229 29.52 385.317 29.52V30.948C385.189 30.924 385.073 30.912 384.969 30.912C384.385 30.912 383.929 31.084 383.601 31.428C383.273 31.764 383.109 32.252 383.109 32.892V36H381.609V29.592H383.037V30.528ZM388.784 25.896H390.128L386.168 37.2H384.824L388.784 25.896ZM396.868 34.092H395.38V36H393.868V34.092H389.26V33.012L393.4 27.6H395.068L391.168 32.772H393.916V31.08H395.38V32.772H396.868V34.092ZM401.028 36.12C400.356 36.12 399.756 35.952 399.228 35.616C398.7 35.272 398.284 34.776 397.98 34.128C397.676 33.472 397.524 32.696 397.524 31.8C397.524 30.904 397.676 30.132 397.98 29.484C398.284 28.828 398.7 28.332 399.228 27.996C399.756 27.652 400.356 27.48 401.028 27.48C401.7 27.48 402.3 27.652 402.828 27.996C403.364 28.332 403.784 28.828 404.088 29.484C404.392 30.132 404.544 30.904 404.544 31.8C404.544 32.696 404.392 33.472 404.088 34.128C403.784 34.776 403.364 35.272 402.828 35.616C402.3 35.952 401.7 36.12 401.028 36.12ZM401.028 34.764C401.628 34.764 402.1 34.516 402.444 34.02C402.796 33.524 402.972 32.784 402.972 31.8C402.972 30.816 402.796 30.076 402.444 29.58C402.1 29.084 401.628 28.836 401.028 28.836C400.436 28.836 399.964 29.084 399.612 29.58C399.268 30.076 399.096 30.816 399.096 31.8C399.096 32.784 399.268 33.524 399.612 34.02C399.964 34.516 400.436 34.764 401.028 34.764ZM413.086 34.092H411.598V36H410.086V34.092H405.478V33.012L409.618 27.6H411.286L407.386 32.772H410.134V31.08H411.598V32.772H413.086V34.092Z" fill="#968F9C"/>
</svg>
