<svg width="3077" height="1954" viewBox="0 0 3077 1954" fill="none" xmlns="http://www.w3.org/2000/svg">
<g clip-path="url(#clip0)">
<path fill-rule="evenodd" clip-rule="evenodd" d="M688.431 945.325C691.289 945.325 694.12 944.762 696.76 943.668C699.401 942.574 701.8 940.971 703.822 938.95C705.843 936.929 707.446 934.529 708.54 931.889C709.633 929.248 710.196 926.417 710.196 923.559V525.856C710.197 520.083 707.904 514.546 703.822 510.463C699.741 506.38 694.204 504.085 688.431 504.084H21.774C18.9143 504.084 16.0825 504.646 13.4404 505.741C10.7983 506.835 8.39761 508.439 6.37558 510.461C4.35355 512.483 2.74975 514.884 1.6558 517.526C0.561861 520.169 -0.000787384 523 8.27003e-07 525.86V923.56C0.0021218 929.332 2.29616 934.866 6.37776 938.947C10.4594 943.028 15.9944 945.32 21.766 945.321H688.431V945.325Z" fill="white"/>
<path fill-rule="evenodd" clip-rule="evenodd" d="M149.716 758.653H176.04C199.465 758.653 205.783 775.053 205.783 785.753C205.783 806.325 191.772 823.181 161.823 823.181H136.052V821.55C141.044 820.629 142.572 820.324 144.302 814.01L156.434 770.971C157.035 768.913 157.411 766.796 157.553 764.657C157.553 761.197 154.906 760.689 149.711 760.276V758.653H149.716ZM227.97 812.689C223.998 818.697 219.517 824.301 213.811 824.301C209.025 824.301 209.025 819.817 209.025 817.987C209.025 813.197 217.073 787.938 217.073 785.081C217.073 782.942 216.26 782.434 210.656 782.434V780.803C214.529 780.592 222.982 778.965 226.956 778.255L227.262 778.455L218.301 811.255C217.588 813.453 217.043 815.702 216.67 817.982C216.703 818.394 216.889 818.778 217.191 819.06C217.492 819.342 217.888 819.501 218.301 819.506C219.523 819.506 222.476 817.474 226.65 811.561L227.971 812.688L227.97 812.689ZM225.934 767.362C223.39 767.362 221.045 765.628 221.045 762.062C221.045 758.496 223.39 756.562 225.835 756.562C229.196 756.562 230.926 759.923 230.926 762.162C230.926 764.198 229.299 767.357 225.934 767.357V767.362ZM275.841 812.582C270.75 819.404 267.182 824.099 261.682 824.099C256.995 824.099 256.793 821.035 256.793 818.083C256.793 815.638 264.329 790.793 264.329 786.717C264.329 784.879 263.718 783.451 261.781 783.451C256.888 783.451 250.475 792.209 246.808 797.912C242.121 804.944 240.796 809.325 236.621 823.179H228.982C232.141 811.671 238.962 787.828 238.962 785.693C238.962 784.161 237.942 783.038 232.442 783.038V781.415C237.942 780.391 243.442 779.375 248.942 778.252L249.248 778.452L242.732 799.743L242.932 799.943C247.718 792.411 257.087 778.243 265.544 778.243C270.231 778.243 272.576 780.688 272.576 784.97C272.576 789.351 264.425 814.503 264.425 817.562C264.413 818.008 264.578 818.44 264.884 818.765C265.189 819.089 265.61 819.28 266.056 819.296C268.092 819.296 270.639 816.038 274.41 811.248L275.839 812.574L275.841 812.582ZM311.799 813.301C310.68 814.932 301.41 824.301 291.223 824.301C280.528 824.301 277.27 816.356 277.27 809.935C277.27 795.371 293.362 778.255 307.728 778.255C312.923 778.255 316.077 780.7 316.077 785.184C316.077 793.232 306.501 801.484 290.001 803.824L287.152 804.237C286.572 806.26 286.229 808.344 286.132 810.447C286.132 817.376 291.432 819.713 295.708 819.713C301.208 819.713 305.486 816.253 310.582 812.074L311.8 813.3L311.799 813.301ZM315.152 823.182L323.402 793.439C324.176 790.771 324.722 788.042 325.033 785.281C325.033 783.861 324.525 782.234 321.366 782.234C320.232 782.3 319.107 782.47 318.005 782.742V781.008C323.2 780.298 329.212 778.968 333.791 778.258L334.097 778.458L329.109 798.733L329.309 798.933L330.122 796.893C333.483 790.175 341.222 778.253 347.643 778.253C348.301 778.228 348.956 778.341 349.567 778.585C350.179 778.828 350.732 779.197 351.193 779.667C351.653 780.137 352.01 780.698 352.241 781.314C352.471 781.931 352.571 782.588 352.532 783.245C352.532 788.545 348.865 788.545 347.746 788.545C343.365 788.545 344.893 784.874 342.446 784.874C339.287 784.874 333.18 796.18 332.366 797.712C328.493 805.042 327.066 809.625 322.893 823.173H315.146L315.152 823.182ZM347.918 808.308C348.628 812.792 350.259 822.158 358.505 822.158C364.205 822.158 365.843 817.269 365.843 813.916C365.843 807.189 353.719 797.416 353.719 789.57C353.719 786.415 355.148 778.264 365.938 778.264C370.517 778.264 372.561 779.998 375.617 779.998C376.221 780.007 376.814 779.838 377.322 779.511C377.829 779.184 378.229 778.714 378.47 778.16H379.89L377.858 792.323H376.227C375.719 786.517 373.275 780.604 366.655 780.604C364.413 780.604 361.155 781.525 361.155 786.517C361.155 792.938 373.576 802.002 373.576 810.657C373.576 821.757 364.108 824.313 358.397 824.313C355.35 824.313 351.27 822.376 348.322 822.376C346.897 822.376 346.489 823.392 345.877 824.515H344.246L346.286 808.315H347.917V808.303L347.918 808.308ZM459.941 775.508C459.741 772.663 458.822 759.008 444.254 759.008C423.88 759.008 413.495 783.656 413.495 798.633C413.495 811.979 419.095 820.433 431.214 820.433C442.731 820.433 449.854 813.198 454.747 808.408L456.481 809.837C452.707 814.321 443.643 825.016 428.769 825.016C416.955 825.016 402.081 817.885 402.081 797.516C402.081 777.852 420.114 755.344 443.44 755.344C450.769 755.344 456.988 757.789 459.33 757.789C462.291 757.789 462.894 756.571 463.401 755.555H465.548L461.774 775.822L459.941 775.512V775.508ZM483.069 811.565C477.874 819.402 473.906 824.3 467.584 824.3C463.108 824.3 462.695 820.831 462.695 817.986C462.695 815.839 477.461 762.674 477.461 760.531C477.461 757.884 473.187 757.884 470.54 757.991V756.361C475.884 755.74 481.188 754.821 486.43 753.611L486.938 754.119L471.556 813.089C471.101 814.659 470.761 816.26 470.54 817.879C470.54 818.49 470.54 819.919 472.064 819.919C474.612 819.919 476.751 817.066 481.743 810.645L483.069 811.566V811.565ZM529.234 812.18C522.821 821.446 520.17 824.101 515.079 824.101C510.5 824.101 510.289 820.327 510.289 818.801C510.289 816.963 512.329 808.401 514.67 800.058H514.364C507.443 811.566 499.903 824.301 490.732 824.301C487.069 824.301 485.132 822.769 485.132 818.285C485.132 813.801 492.866 788.137 492.866 785.385C492.866 782.433 490.929 782.433 486.759 782.433V781.004C491.9 780.386 497 779.468 502.033 778.254L502.339 778.454L493.073 815.432C492.767 816.753 493.073 818.892 495.212 818.892C499.593 818.892 506.012 809.32 509.47 804.018C514.462 796.486 516.704 790.065 520.67 779.168H528.21L520.162 809.621C519.562 811.661 518.225 816.137 518.225 817.669C518.225 818.177 518.325 819.3 519.451 819.3C521.388 819.3 524.241 815.736 527.805 811.252L529.225 812.173L529.234 812.18ZM538.608 755.947C543.83 755.351 549.026 754.572 554.196 753.61L554.704 754.118C551.925 764.575 548.991 774.989 545.904 785.36L546.104 785.46C549.465 780.16 554.693 775.06 563.864 775.06C570.987 775.06 575.583 783.133 575.583 790.57C575.583 806.67 558.574 824.29 542.983 824.29C537.583 824.29 529.749 821.127 529.749 818.885V818.485L543.599 767.451C544.318 764.606 545.23 762.051 545.23 760.629C545.23 758.292 544.52 757.776 538.607 757.677V755.947H538.608ZM115.364 899.928C120.352 899.015 121.884 898.71 123.614 892.396L135.746 849.757C136.397 847.711 136.774 845.588 136.865 843.443C136.865 839.879 134.115 839.57 129.734 839.062V837.431H154.892V839.062C149.904 839.983 148.273 840.181 146.538 846.602L134.408 889.341C133.706 891.443 133.328 893.641 133.289 895.857C133.289 899.115 135.837 899.421 140.218 899.928V901.563H115.364V899.928ZM193.581 890.967C188.49 897.789 184.922 902.475 179.426 902.475C174.739 902.475 174.533 899.419 174.533 896.467C174.533 894.022 182.073 869.167 182.073 865.093C182.073 863.264 181.458 861.835 179.525 861.835C174.636 861.835 168.219 870.593 164.552 876.296C159.865 883.328 158.54 887.709 154.365 901.563H146.726C149.885 890.046 156.706 866.212 156.706 864.077C156.706 862.545 155.686 861.422 150.19 861.422V859.791C155.69 858.775 161.19 857.751 166.69 856.636L166.996 856.836L160.476 878.127L160.676 878.327C165.462 870.787 174.835 856.627 183.288 856.627C187.975 856.627 190.316 859.072 190.316 863.345C190.316 867.726 182.169 892.886 182.169 895.945C182.159 896.39 182.325 896.82 182.63 897.143C182.935 897.466 183.356 897.656 183.8 897.671C185.836 897.671 188.383 894.413 192.149 889.631L193.578 890.957L193.581 890.967ZM220.698 861.224H212.142L203.177 895.146C203.095 895.409 203.061 895.684 203.077 895.959C203.055 896.183 203.081 896.409 203.154 896.622C203.227 896.835 203.345 897.03 203.5 897.193C203.654 897.357 203.842 897.486 204.05 897.57C204.259 897.655 204.483 897.694 204.708 897.685C206.748 897.685 210.308 892.903 212.859 889.645L214.185 890.355C208.99 898.201 205.018 902.677 199.72 902.677C197.684 902.677 194.831 901.661 194.831 898.606C194.831 897.082 196.768 890.864 197.172 889.233L204.506 861.224H196.966C196.827 860.674 196.9 860.091 197.172 859.593C197.779 858.672 200.632 857.962 202.367 857.045C205.728 855.311 210.617 850.731 213.467 847.164C213.876 846.656 214.28 845.735 215.197 845.938C215.911 845.738 216.114 846.657 215.911 847.47L213.062 857.963H221.209L220.693 861.225L220.698 861.224ZM252.271 891.681C251.148 893.312 241.878 902.681 231.695 902.681C220.995 902.681 217.738 894.736 217.738 888.323C217.738 873.759 233.83 856.643 248.191 856.643C253.386 856.643 256.545 859.088 256.545 863.572C256.545 871.612 246.969 879.862 230.469 882.212L227.616 882.612C227.04 884.639 226.699 886.726 226.6 888.831C226.6 895.76 231.894 898.097 236.172 898.097C241.672 898.097 245.95 894.637 251.046 890.458L252.272 891.676L252.271 891.681ZM256.016 901.566L264.266 871.823C265.042 869.156 265.589 866.428 265.901 863.668C265.901 862.239 265.389 860.612 262.234 860.612C261.101 860.683 259.976 860.853 258.873 861.12V859.391C264.068 858.673 270.073 857.351 274.659 856.641L274.965 856.841L269.977 877.108L270.177 877.319L270.992 875.281C274.353 868.554 282.092 856.641 288.508 856.641C289.166 856.616 289.822 856.728 290.433 856.972C291.045 857.215 291.599 857.584 292.06 858.054C292.521 858.524 292.878 859.085 293.109 859.702C293.34 860.318 293.439 860.976 293.401 861.633C293.401 866.923 289.734 866.923 288.611 866.923C284.23 866.923 285.758 863.26 283.311 863.26C280.152 863.26 274.041 874.566 273.227 876.09C269.358 883.419 267.927 888.011 263.754 901.559H256.012L256.016 901.566ZM337.739 890.966C332.648 897.788 329.08 902.474 323.58 902.474C318.893 902.474 318.687 899.418 318.687 896.466C318.687 894.021 326.227 869.166 326.227 865.092C326.227 863.263 325.616 861.834 323.679 861.834C318.79 861.834 312.373 870.592 308.706 876.295C304.023 883.327 302.698 887.708 298.523 901.562H290.88C294.039 890.045 300.865 866.211 300.865 864.076C300.865 862.544 299.845 861.421 294.345 861.421V859.791C299.845 858.775 305.345 857.751 310.845 856.636L311.151 856.836L304.631 878.127L304.837 878.327C309.623 870.787 318.996 856.627 327.449 856.627C332.136 856.627 334.481 859.072 334.481 863.345C334.481 867.726 326.33 892.886 326.33 895.945C326.32 896.39 326.486 896.82 326.791 897.143C327.096 897.466 327.517 897.656 327.961 897.671C329.997 897.671 332.544 894.413 336.31 889.631L337.739 890.957V890.966ZM384.491 891.366C378.38 898.906 374.911 902.577 370.53 902.577C366.256 902.577 366.256 899.922 366.256 898.196C366.256 895.851 366.764 893.608 368.395 887.396L368.195 887.196C359.742 899.617 354.345 902.673 348.234 902.673C338.047 902.673 337.741 893.609 337.741 890.657C337.741 875.68 353.325 856.64 366.873 856.64C371.254 856.64 374.607 859.287 374.913 862.14H375.124L376.14 857.656L376.446 857.35L382.656 856.64L383.375 856.946C383.069 858.164 373.696 892.9 373.696 896.054C373.702 896.236 373.743 896.414 373.818 896.579C373.893 896.745 374 896.893 374.133 897.017C374.266 897.141 374.422 897.237 374.592 897.3C374.763 897.363 374.944 897.391 375.125 897.384C376.649 897.384 378.689 894.836 383.272 890.352L384.494 891.368L384.491 891.366ZM410.204 861.222H401.656L392.692 895.147C392.608 895.409 392.574 895.685 392.592 895.96C392.571 896.184 392.597 896.41 392.67 896.623C392.743 896.835 392.861 897.03 393.016 897.193C393.17 897.357 393.358 897.485 393.566 897.57C393.774 897.655 393.998 897.695 394.223 897.686C396.263 897.686 399.823 892.904 402.378 889.646L403.699 890.356C398.504 898.202 394.528 902.678 389.238 902.678C387.198 902.678 384.338 901.662 384.338 898.607C384.338 897.083 386.283 890.865 386.683 889.234L394.012 861.225H386.48C386.337 860.676 386.408 860.093 386.68 859.594C387.291 858.673 390.14 857.963 391.875 857.046C395.236 855.312 400.125 850.732 402.975 847.165C403.375 846.657 403.788 845.736 404.701 845.939C405.42 845.739 405.622 846.658 405.42 847.471L402.567 857.964H410.722L410.202 861.226L410.204 861.222ZM431.604 891.068C427.627 897.076 423.151 902.675 417.441 902.675C412.659 902.675 412.659 898.199 412.659 896.361C412.659 891.579 420.707 866.32 420.707 863.461C420.707 861.322 419.894 860.814 414.286 860.814V859.183C418.159 858.972 426.608 857.345 430.586 856.635L430.886 856.835L421.925 889.635C421.525 891.064 420.294 895.135 420.294 896.353C420.326 896.766 420.511 897.152 420.812 897.435C421.114 897.719 421.511 897.879 421.925 897.885C423.151 897.885 426.104 895.845 430.279 889.94L431.609 891.063L431.604 891.068ZM429.564 845.737C427.024 845.737 424.675 844.003 424.675 840.447C424.675 836.891 427.02 834.947 429.465 834.947C432.826 834.947 434.552 838.3 434.552 840.547C434.552 842.587 432.929 845.742 429.564 845.742V845.737ZM478.064 871.714C478.064 884.238 464.111 902.675 448.523 902.675C437.723 902.675 433.141 896.465 433.141 888.012C433.141 873.035 448.213 856.638 463.087 856.638C474.918 856.641 478.068 864.99 478.068 871.717L478.064 871.714Z" fill="#274D94"/>
<path fill-rule="evenodd" clip-rule="evenodd" d="M522.049 890.968C516.962 897.79 513.394 902.476 507.886 902.476C503.208 902.476 502.997 899.42 502.997 896.468C502.997 894.023 510.537 869.168 510.537 865.094C510.537 863.265 509.926 861.836 507.989 861.836C503.1 861.836 496.683 870.594 493.012 876.297C488.325 883.329 487.004 887.71 482.825 901.564H475.186C478.349 890.047 485.171 866.213 485.171 864.078C485.171 862.546 484.155 861.423 478.655 861.423V859.792C484.155 858.776 489.655 857.752 495.155 856.637L495.455 856.837L488.939 878.128L489.15 878.328C493.932 870.788 503.305 856.628 511.758 856.628C516.445 856.628 518.79 859.073 518.79 863.346C518.79 867.727 510.635 892.887 510.635 895.946C510.626 896.39 510.791 896.821 511.097 897.144C511.402 897.467 511.822 897.656 512.266 897.672C514.306 897.672 516.854 894.414 520.62 889.632L522.053 890.958L522.049 890.968ZM569.197 891.368C563.09 898.908 559.625 902.579 555.244 902.579C550.97 902.579 550.97 899.924 550.97 898.198C550.97 895.853 551.478 893.61 553.109 887.398L552.909 887.198C544.448 899.619 539.055 902.675 532.94 902.675C522.753 902.675 522.447 893.611 522.447 890.659C522.447 875.682 538.035 856.642 551.579 856.642C555.964 856.642 559.33 859.289 559.627 862.142H559.838L560.854 857.658L561.16 857.352L567.37 856.642L568.08 856.948C567.78 858.166 558.409 892.902 558.409 896.056C558.415 896.238 558.456 896.416 558.531 896.581C558.606 896.747 558.713 896.895 558.846 897.019C558.979 897.143 559.135 897.239 559.305 897.302C559.476 897.365 559.657 897.394 559.838 897.386C561.362 897.386 563.402 894.838 567.985 890.354L569.199 891.37L569.197 891.368ZM588.634 892.731C583.439 900.568 581.457 902.674 575.139 902.674C570.655 902.674 570.239 899.214 570.239 896.36C570.239 894.221 585.014 841.048 585.014 838.913C585.014 836.266 580.732 836.266 578.085 836.365V834.739C583.43 834.126 588.735 833.208 593.975 831.989L594.483 832.497L579.101 891.476C578.646 893.046 578.306 894.647 578.085 896.266C578.085 896.866 578.085 898.298 579.609 898.298C582.157 898.298 582.309 898.232 587.302 891.815L588.632 892.736L588.634 892.731ZM595.947 839.261C595.929 837.495 596.436 835.763 597.403 834.285C598.371 832.807 599.756 831.65 601.382 830.961C603.009 830.271 604.803 830.08 606.538 830.412C608.273 830.744 609.87 831.584 611.127 832.825C612.384 834.066 613.244 835.653 613.598 837.383C613.952 839.114 613.783 840.911 613.114 842.546C612.446 844.181 611.306 845.58 609.84 846.566C608.375 847.552 606.649 848.081 604.883 848.085C603.713 848.105 602.552 847.891 601.466 847.456C600.38 847.021 599.392 846.374 598.56 845.552C597.727 844.73 597.067 843.75 596.619 842.67C596.17 841.59 595.942 840.431 595.947 839.261V839.261Z" fill="#274D94"/>
<path fill-rule="evenodd" clip-rule="evenodd" d="M604.882 846.619C606.338 846.652 607.771 846.25 608.998 845.466C610.225 844.681 611.19 843.549 611.771 842.213C612.352 840.878 612.522 839.399 612.26 837.967C611.998 836.534 611.315 835.212 610.298 834.169C609.282 833.127 607.978 832.41 606.552 832.111C605.127 831.812 603.645 831.944 602.295 832.491C600.945 833.038 599.788 833.974 598.972 835.18C598.157 836.387 597.719 837.809 597.714 839.265C597.68 840.224 597.84 841.181 598.186 842.076C598.531 842.972 599.055 843.788 599.725 844.475C600.395 845.162 601.198 845.707 602.084 846.075C602.97 846.444 603.922 846.629 604.882 846.619V846.619Z" fill="white"/>
<path fill-rule="evenodd" clip-rule="evenodd" d="M603.021 844.364H601.491V834.214H605.356C607.756 834.214 608.936 835.102 608.936 837.1C608.957 837.459 608.904 837.818 608.782 838.155C608.659 838.492 608.469 838.801 608.223 839.063C607.976 839.324 607.679 839.532 607.35 839.675C607.02 839.817 606.665 839.891 606.306 839.891L609.191 844.364H607.473L604.797 839.97H603.021V844.364Z" fill="#274D94"/>
<path fill-rule="evenodd" clip-rule="evenodd" d="M604.859 838.657C606.159 838.657 607.328 838.557 607.328 837.005C607.328 835.746 606.192 835.514 605.119 835.514H603.019V838.661H604.857L604.859 838.657Z" fill="white"/>
<path fill-rule="evenodd" clip-rule="evenodd" d="M414.188 735.706C440.846 735.622 466.382 724.974 485.203 706.094C504.023 687.215 514.591 661.644 514.591 634.987C514.591 608.329 504.023 582.759 485.203 563.879C466.382 545 440.846 534.351 414.188 534.267H286.87C273.617 534.225 260.485 536.8 248.229 541.843C235.972 546.886 224.831 554.298 215.445 563.655C206.059 573.012 198.611 584.129 193.53 596.369C188.448 608.61 185.833 621.733 185.833 634.987C185.833 648.24 188.448 661.363 193.53 673.604C198.611 685.844 206.059 696.962 215.445 706.319C224.831 715.675 235.972 723.088 248.229 728.131C260.485 733.174 273.617 735.748 286.87 735.706H414.188Z" fill="#274D94"/>
<path fill-rule="evenodd" clip-rule="evenodd" d="M286.87 733.455C306.345 733.455 325.383 727.679 341.576 716.859C357.769 706.039 370.39 690.66 377.842 672.667C385.295 654.674 387.244 634.875 383.445 615.774C379.645 596.673 370.266 579.127 356.495 565.357C342.723 551.586 325.178 542.208 306.076 538.409C286.975 534.61 267.176 536.56 249.184 544.013C231.191 551.467 215.813 564.088 204.993 580.281C194.173 596.475 188.399 615.513 188.399 634.988C188.401 661.103 198.777 686.148 217.243 704.614C235.71 723.08 260.755 733.454 286.87 733.455V733.455Z" fill="white"/>
<path fill-rule="evenodd" clip-rule="evenodd" d="M266.992 578.137C255.196 582.267 244.976 589.964 237.75 600.162C230.524 610.36 226.649 622.553 226.662 635.052C226.676 647.55 230.577 659.735 237.826 669.917C245.074 680.099 255.311 687.774 267.116 691.878L266.992 578.137ZM347.075 634.989C347.075 647.499 343.179 659.698 335.93 669.892C328.68 680.087 318.436 687.771 306.62 691.878L306.744 578.141C318.53 582.267 328.743 589.954 335.968 600.138C343.194 610.323 347.075 622.502 347.075 634.989Z" fill="#274D94"/>
<path fill-rule="evenodd" clip-rule="evenodd" d="M156.426 806.68C155.509 810.033 154.188 814.517 154.188 816.148C154.188 819.509 156.633 820.124 161.418 820.124C193.507 820.124 194.477 790.744 194.477 784.524C194.477 774.234 193.003 761.71 174.977 761.71C169.171 761.71 168.767 763.234 168.358 764.662L156.426 806.68ZM287.861 801.993C308.846 797.719 309.354 785.493 309.354 784.679C309.354 782.532 308.334 780.599 305.786 780.599C300.286 780.599 293.361 788.445 289.586 797.513L287.856 801.993H287.861ZM559.89 780.467C548.679 780.467 539.913 800.502 538.509 818.589C538.451 819.308 538.509 821.95 543.291 821.95C557.252 821.95 566.923 800.457 566.923 791.901C566.923 788.75 566.312 780.467 559.891 780.467H559.89ZM228.333 880.367C249.314 876.093 249.822 863.867 249.822 863.053C249.822 860.914 248.806 858.982 246.258 858.982C240.758 858.982 233.829 866.828 230.058 875.896L228.328 880.368L228.333 880.367ZM352.406 897.685C363.2 897.685 373.185 875.685 373.185 865.708C373.185 860.819 370.332 858.886 367.379 858.886C355.462 858.886 346.295 881.292 346.295 890.459C346.295 895.852 349.652 897.685 352.406 897.685V897.685ZM441.706 891.07C441.706 896.87 444.762 900.538 449.853 900.538C461.465 900.538 469.517 879.458 469.517 868.553C469.517 863.263 467.275 858.779 462.386 858.779C450.972 858.779 441.706 879.046 441.706 891.07V891.07ZM537.113 897.685C547.913 897.685 557.896 875.685 557.896 865.708C557.896 860.819 555.043 858.886 552.09 858.886C540.169 858.886 531.002 881.292 531.002 890.459C531.002 895.852 534.363 897.685 537.114 897.685H537.113Z" fill="white"/>
<path fill-rule="evenodd" clip-rule="evenodd" d="M1477.12 945.325C1479.98 945.325 1482.81 944.762 1485.45 943.668C1488.09 942.574 1490.49 940.971 1492.52 938.95C1494.54 936.929 1496.14 934.529 1497.23 931.889C1498.33 929.248 1498.89 926.417 1498.89 923.559V525.856C1498.89 520.083 1496.6 514.546 1492.52 510.463C1488.43 506.38 1482.9 504.085 1477.12 504.084H810.468C807.608 504.084 804.776 504.646 802.134 505.741C799.492 506.835 797.091 508.439 795.069 510.461C793.047 512.483 791.444 514.884 790.35 517.526C789.256 520.169 788.693 523 788.694 525.86V923.56C788.696 929.332 790.99 934.866 795.072 938.947C799.153 943.028 804.688 945.32 810.46 945.321H1477.12V945.325Z" fill="#0077A6"/>
<path d="M831.422 673.162H857.139L844.284 640.431L831.422 673.162Z" fill="white"/>
<path d="M968.188 783.035V798.235H1011.44V814.604H968.188V832.142H1016.11L1038.32 807.588L1017.28 783.036L968.188 783.035Z" fill="white"/>
<path d="M1306 640.431L1291.98 673.162H1318.86L1306 640.431Z" fill="white"/>
<path d="M1093.26 841.483V774.855L1062.87 807.587L1093.26 841.483Z" fill="white"/>
<path d="M1150.54 793.56C1149.37 786.546 1144.69 783.035 1137.67 783.035H1113.13V804.075H1138.85C1145.86 804.077 1150.54 800.572 1150.54 793.56Z" fill="white"/>
<path d="M1232.36 801.743C1234.7 800.571 1235.87 797.061 1235.87 793.561C1237.04 788.889 1234.7 786.547 1232.36 785.378C1230.02 784.209 1226.52 784.208 1223.01 784.208H1199.63V802.913H1223.01C1226.51 802.913 1230.03 802.913 1232.36 801.743Z" fill="white"/>
<path d="M1400.68 610.039V624.066L1393.67 610.039H1338.74V624.066L1331.72 610.039H1256.91C1244.05 610.039 1233.53 612.379 1224.18 617.054V610.039H1171.58V617.054C1165.74 612.381 1158.72 610.039 1149.37 610.039H961.175L948.311 639.263L935.458 610.039H875.843V624.066L869.998 610.039H818.566L795.183 664.975L788.545 679.696V725.761H828.664L829.088 724.589L836.105 707.059H851.305L858.318 725.759H926.109V711.734L931.957 725.759H965.857L971.699 711.734V725.761H1134.17V695.367H1136.52C1138.85 695.367 1138.85 695.367 1138.85 698.875V724.59H1223.02V717.577C1230.03 721.089 1240.54 724.59 1254.57 724.59H1289.64L1296.66 705.89H1313.02L1320.03 724.59H1387.82V707.06L1398.35 724.59H1453.29V610.039H1400.68ZM1004.42 708.23H985.724V643.939L984.554 646.62V646.588L957.361 708.231H940.129L912.075 643.939V708.232H872.337L864.155 690.698H824.407L816.223 708.232H795.675L830.255 626.406H859.475L892.204 704.722V626.404H923.175L923.726 627.576H923.766L938.514 659.676L949.105 683.725L949.48 682.513L972.857 626.407H1004.42V708.232L1004.42 708.23ZM1085.08 643.939H1039.49V659.139H1083.91V675.503H1039.49V691.873H1085.08V709.402H1019.62V626.412H1085.08V643.939ZM1168.45 674.079C1168.49 674.105 1168.52 674.129 1168.56 674.15C1168.97 674.586 1169.35 675.048 1169.7 675.535C1171.94 678.47 1173.75 682.835 1173.84 689.235C1173.85 689.346 1173.86 689.455 1173.86 689.566C1173.86 689.63 1173.87 689.685 1173.87 689.751C1173.87 689.788 1173.87 689.816 1173.87 689.851C1173.9 690.495 1173.92 691.151 1173.92 691.863V708.228H1156.38V698.873C1156.38 694.198 1156.38 687.183 1152.87 682.508C1151.89 681.506 1150.72 680.707 1149.43 680.158C1147.68 679.023 1144.36 679.005 1138.85 679.005H1117.8V708.229H1097.94V626.406H1142.36C1152.87 626.406 1159.89 626.406 1165.74 629.913C1171.46 633.353 1174.92 639.056 1175.05 648.089C1174.78 660.529 1166.8 667.354 1161.05 669.656C1163.89 670.409 1166.45 671.941 1168.45 674.079V674.079ZM1207.82 708.23H1187.94V626.404H1207.82L1207.82 708.23ZM1435.76 708.23H1410.04L1372.64 646.274V697.707L1372.51 697.586V708.286H1352.76V708.237H1332.89L1325.87 690.698H1284.96L1277.95 709.398H1255.74C1246.39 709.398 1234.7 707.063 1227.69 700.05C1220.68 693.037 1217.17 683.685 1217.17 668.491C1217.17 656.802 1219.5 645.105 1227.69 635.757C1233.53 628.739 1244.05 626.407 1256.91 626.407H1275.61V643.939H1256.91C1249.89 643.939 1246.39 645.104 1241.71 648.617C1238.21 652.122 1235.87 659.134 1235.87 667.317C1235.87 676.671 1237.04 682.517 1241.71 687.189C1245.22 690.701 1249.89 691.871 1255.74 691.871H1263.92L1290.8 627.582H1320.03L1352.76 705.898V627.581H1381.98L1415.87 684.855V627.581H1435.75V708.234L1435.76 708.23Z" fill="white"/>
<path d="M1151.79 660.485C1152.14 660.107 1152.45 659.686 1152.7 659.233C1154.3 656.591 1154.88 653.455 1154.32 650.418C1154.29 650.058 1154.23 649.702 1154.14 649.352C1154.12 649.258 1154.12 649.175 1154.1 649.081H1154.09C1153.81 648.206 1153.35 647.4 1152.74 646.715C1152.12 646.029 1151.38 645.48 1150.54 645.102C1148.2 643.937 1144.69 643.937 1141.18 643.937H1117.8V662.642H1141.18C1144.69 662.642 1148.2 662.642 1150.54 661.47C1150.89 661.283 1151.22 661.05 1151.5 660.776V660.791C1151.5 660.791 1151.63 660.666 1151.79 660.485Z" fill="white"/>
<path d="M1498.88 802.914V750.314H1498.82V746.802H1442.54C1435.25 746.802 1426.4 753.814 1426.4 753.814V746.802H1372.63C1364.45 746.802 1353.93 749.142 1349.25 753.814V746.802H1253.4V753.812C1246.4 747.972 1233.53 746.8 1227.69 746.8H1164.56V753.81C1158.72 747.97 1144.69 746.798 1137.67 746.798H1067.55L1051.18 764.334L1035.98 746.798H930.777V864.866H1033.65L1050.55 847.959L1065.2 864.866H1130.66V837.982H1136.51C1144.69 837.982 1155.21 837.982 1163.39 834.47V866.034H1215.99V835.641H1218.32C1221.84 835.641 1221.84 835.641 1221.84 839.148V866.035H1380.81C1391.34 866.035 1401.85 863.691 1407.69 859.016V866.035H1457.96C1468.47 866.035 1479 864.867 1486.02 860.188C1491.2 856.944 1495.6 852.579 1498.88 847.414L1498.88 802.914ZM1136.51 818.114H1113.13V848.503H1074.71L1052.35 822.782L1052.27 822.868L1051.18 821.611L1025.46 848.501H950.652V766.678H1026.63L1047.39 789.414L1051.75 794.175L1052.34 793.562L1076.89 766.68H1138.85C1150.87 766.68 1164.33 769.647 1169.44 781.88C1170.1 784.554 1170.42 787.3 1170.41 790.055C1170.41 813.432 1154.04 818.112 1136.51 818.112V818.114ZM1253.4 816.942C1255.74 820.442 1256.91 825.124 1256.91 832.142V848.502H1237.04V837.982C1237.04 833.299 1237.04 825.122 1233.53 821.61C1231.2 818.11 1226.52 818.11 1219.51 818.11H1198.47V848.499H1178.6V765.508H1223.01C1232.36 765.508 1240.54 765.508 1246.4 769.008C1249.69 770.867 1252.41 773.594 1254.27 776.892C1256.12 780.19 1257.03 783.934 1256.91 787.715C1256.91 800.57 1248.73 807.584 1242.88 809.925C1248.73 812.256 1252.24 814.594 1253.4 816.94V816.942ZM1334.06 783.036H1288.47V798.236H1332.89V814.605H1288.47V830.967H1334.06V848.499H1268.6V765.506H1334.06L1334.06 783.036ZM1383.15 848.502H1345.75V830.969H1383.15C1386.65 830.969 1389 830.969 1391.34 828.629C1392.84 827.052 1393.67 824.96 1393.67 822.786C1393.67 820.611 1392.84 818.519 1391.34 816.942C1390.17 815.774 1387.82 814.604 1384.32 814.604C1365.62 813.434 1343.41 814.604 1343.41 788.89C1343.41 777.2 1350.42 764.339 1371.46 764.339H1410.04V784.208H1373.8C1370.3 784.208 1367.95 784.208 1365.61 785.378C1363.27 786.548 1363.28 788.89 1363.28 791.225C1363.28 794.733 1365.61 795.904 1367.95 797.063C1370.29 798.222 1372.63 798.235 1374.97 798.235H1385.49C1396.01 798.235 1403.02 800.574 1407.7 805.25C1411.2 808.759 1413.54 814.604 1413.54 822.784C1413.54 840.312 1403.02 848.501 1383.15 848.501L1383.15 848.502ZM1483.68 840.314C1479.01 844.996 1470.82 848.502 1459.13 848.502H1421.73V830.969H1459.13C1462.64 830.969 1464.98 830.969 1467.32 828.629C1468.82 827.054 1469.66 824.962 1469.66 822.786C1469.66 820.61 1468.82 818.517 1467.32 816.942C1466.15 815.774 1463.82 814.604 1460.3 814.604C1441.6 813.434 1419.39 814.604 1419.39 788.892C1419.39 777.782 1425.75 767.746 1441.42 764.765C1443.42 764.484 1445.43 764.342 1447.45 764.34H1486.02V784.209H1449.79C1446.28 784.209 1443.94 784.209 1441.61 785.379C1440.14 786.977 1439.31 789.056 1439.26 791.226C1439.26 794.734 1440.43 795.905 1443.94 797.064C1446.28 798.236 1448.62 798.236 1450.96 798.236H1461.47C1465.72 798.128 1469.95 798.762 1473.98 800.109C1477.22 801.281 1487.94 806.075 1490.33 818.591C1490.57 819.977 1490.69 821.38 1490.7 822.785C1490.79 826.031 1490.21 829.26 1489 832.275C1487.8 835.289 1485.98 838.025 1483.68 840.312L1483.68 840.314Z" fill="white"/>
<path fill-rule="evenodd" clip-rule="evenodd" d="M2265.82 945.325C2268.68 945.325 2271.51 944.762 2274.15 943.668C2276.79 942.574 2279.19 940.971 2281.21 938.95C2283.23 936.929 2284.83 934.529 2285.93 931.889C2287.02 929.248 2287.58 926.417 2287.58 923.559V525.856C2287.59 520.083 2285.29 514.546 2281.21 510.463C2277.13 506.38 2271.59 504.085 2265.82 504.084H1599.16C1596.3 504.084 1593.47 504.646 1590.83 505.741C1588.19 506.835 1585.79 508.439 1583.76 510.461C1581.74 512.483 1580.14 514.884 1579.04 517.526C1577.95 520.169 1577.39 523 1577.39 525.86V923.56C1577.39 929.332 1579.68 934.866 1583.77 938.947C1587.85 943.028 1593.38 945.32 1599.15 945.321H2265.82V945.325Z" fill="white"/>
<path fill-rule="evenodd" clip-rule="evenodd" d="M1733.81 806.68C1732.9 810.033 1731.58 814.517 1731.58 816.148C1731.58 819.509 1734.02 820.124 1738.81 820.124C1770.9 820.124 1771.87 790.744 1771.87 784.524C1771.87 774.234 1770.39 761.71 1752.37 761.71C1746.56 761.71 1746.16 763.234 1745.75 764.662L1733.81 806.68ZM1865.25 801.993C1886.23 797.719 1886.74 785.493 1886.74 784.679C1886.74 782.532 1885.72 780.599 1883.17 780.599C1877.67 780.599 1870.75 788.445 1866.97 797.513L1865.24 801.993H1865.25ZM2137.28 780.467C2126.07 780.467 2117.3 800.502 2115.9 818.589C2115.84 819.308 2115.9 821.95 2120.68 821.95C2134.64 821.95 2144.31 800.457 2144.31 791.901C2144.31 788.75 2143.7 780.467 2137.28 780.467H2137.28ZM1805.72 880.367C1826.7 876.093 1827.21 863.867 1827.21 863.053C1827.21 860.914 1826.19 858.982 1823.65 858.982C1818.15 858.982 1811.22 866.828 1807.45 875.896L1805.72 880.368L1805.72 880.367ZM1929.79 897.685C1940.59 897.685 1950.57 875.685 1950.57 865.708C1950.57 860.819 1947.72 858.886 1944.77 858.886C1932.85 858.886 1923.68 881.292 1923.68 890.459C1923.68 895.852 1927.04 897.685 1929.79 897.685V897.685ZM2019.09 891.07C2019.09 896.87 2022.15 900.538 2027.24 900.538C2038.85 900.538 2046.91 879.458 2046.91 868.553C2046.91 863.263 2044.66 858.779 2039.77 858.779C2028.36 858.779 2019.09 879.046 2019.09 891.07V891.07ZM2114.5 897.685C2125.3 897.685 2135.28 875.685 2135.28 865.708C2135.28 860.819 2132.43 858.886 2129.48 858.886C2117.56 858.886 2108.39 881.292 2108.39 890.459C2108.39 895.852 2111.75 897.685 2114.5 897.685H2114.5Z" fill="white"/>
<path d="M1710.21 655.175C1719.96 651.939 1730.28 650.804 1740.5 651.846C1750.71 652.888 1760.6 656.083 1769.49 661.22C1778.38 666.357 1786.08 673.32 1792.09 681.651C1798.1 689.981 1802.27 699.49 1804.34 709.55L1854.11 699.403C1850.61 682.297 1843.52 666.128 1833.31 651.964C1823.1 637.8 1810 625.963 1794.88 617.234C1779.76 608.506 1762.96 603.085 1745.59 601.33C1728.21 599.574 1710.67 601.524 1694.11 607.05L1710.21 655.175Z" fill="#FFCB05"/>
<path d="M1651.49 816.427L1685.15 778.384C1677.45 771.576 1671.29 763.211 1667.07 753.843C1662.85 744.474 1660.67 734.317 1660.67 724.042C1660.67 713.767 1662.85 703.609 1667.07 694.24C1671.29 684.872 1677.45 676.507 1685.15 669.699L1651.49 631.627C1638.41 643.205 1627.93 657.428 1620.76 673.357C1613.58 689.286 1609.87 706.557 1609.87 724.027C1609.87 741.497 1613.58 758.768 1620.76 774.697C1627.93 790.626 1638.41 804.85 1651.49 816.427" fill="#00A4E0"/>
<path d="M1804.34 738.573C1800.98 754.953 1792.08 769.672 1779.12 780.242C1766.17 790.813 1749.96 796.587 1733.24 796.588C1725.41 796.61 1717.63 795.347 1710.21 792.851L1694.11 841.041C1710.66 846.547 1728.2 848.484 1745.56 846.725C1762.91 844.966 1779.7 839.551 1794.82 830.835C1809.93 822.12 1823.03 810.302 1833.25 796.16C1843.47 782.017 1850.58 765.871 1854.11 748.784L1804.34 738.573Z" fill="#EF4123"/>
<path d="M1897.62 779.963C1895.69 776.748 1893.95 773.413 1892.44 769.977C1884.67 752.432 1884.09 732.538 1890.83 714.571C1898.14 694.631 1912.12 679.395 1930.19 671.599C1952.9 661.838 1977.99 663.739 1999.77 676.656C2013.59 684.58 2023.38 696.821 2030.82 714.156C2031.76 716.379 2032.6 718.73 2033.43 720.756L1897.62 779.963ZM1942.98 701.01C1926.84 707.936 1918.53 723.076 1920.27 740.793L1988.56 711.383C1976.8 697.598 1961.53 693.024 1942.98 701.013L1942.98 701.01ZM1997.07 764.984C1997.06 764.984 1997.05 764.987 1997.04 764.993C1997.04 764.999 1997.03 765.008 1997.03 765.016L1995.62 764.05C1991.19 770.97 1984.75 776.366 1977.16 779.512C1961.89 786.148 1947.75 784.44 1937.57 775.518L1936.64 776.935C1936.64 776.931 1936.64 776.927 1936.63 776.923C1936.63 776.919 1936.63 776.915 1936.63 776.912C1936.62 776.909 1936.62 776.907 1936.62 776.905C1936.61 776.904 1936.61 776.903 1936.6 776.903L1919.27 802.834C1923.58 805.82 1928.19 808.346 1933.03 810.372C1952.16 818.329 1971.75 817.942 1991.04 809.567C2004.99 803.511 2015.94 794.298 2023.42 782.605L1997.07 764.984ZM2080.88 633.463V777.582L2103.3 786.666L2090.58 816.366L2065.84 806.063C2060.87 803.898 2056.64 800.34 2053.66 795.819C2050.92 791.599 2048.89 785.769 2048.89 777.973V633.463H2080.88ZM2138.93 740.892C2138.93 735.06 2140.18 729.296 2142.59 723.989C2145.01 718.681 2148.54 713.955 2152.94 710.129L2129.94 684.488C2121.96 691.548 2115.56 700.222 2111.18 709.938C2106.8 719.653 2104.53 730.188 2104.53 740.846C2104.52 751.503 2106.78 762.041 2111.15 771.761C2115.52 781.481 2121.9 790.163 2129.88 797.232L2152.84 771.591C2148.47 767.764 2144.96 763.044 2142.56 757.748C2140.16 752.453 2138.92 746.706 2138.93 740.892ZM2179.77 781.77C2175.37 781.761 2171 781.043 2166.82 779.644L2155.84 812.275C2165.94 815.657 2176.65 816.858 2187.25 815.8C2197.85 814.742 2208.11 811.449 2217.34 806.137C2226.58 800.825 2234.58 793.616 2240.83 784.985C2247.07 776.354 2251.42 766.497 2253.57 756.064L2219.81 749.171C2217.92 758.387 2212.9 766.666 2205.6 772.607C2198.31 778.547 2189.18 781.785 2179.77 781.771L2179.77 781.77ZM2179.87 665.611C2171.76 665.606 2163.71 666.9 2156.01 669.444L2166.89 702.107C2172.38 700.279 2178.2 699.637 2183.95 700.224C2189.71 700.812 2195.27 702.615 2200.28 705.514C2205.29 708.413 2209.62 712.342 2212.99 717.042C2216.37 721.741 2218.7 727.103 2219.85 732.774L2253.61 725.945C2250.15 708.931 2240.93 693.634 2227.49 682.64C2214.05 671.646 2197.23 665.63 2179.87 665.611H2179.87Z" fill="black"/>
<path fill-rule="evenodd" clip-rule="evenodd" d="M3053.13 945.325C3055.99 945.325 3058.82 944.762 3061.46 943.668C3064.1 942.574 3066.5 940.971 3068.52 938.95C3070.55 936.929 3072.15 934.529 3073.24 931.889C3074.34 929.248 3074.9 926.417 3074.9 923.559V525.856C3074.9 520.083 3072.61 514.546 3068.53 510.463C3064.44 506.38 3058.91 504.085 3053.13 504.084H2386.48C2383.62 504.084 2380.79 504.646 2378.14 505.741C2375.5 506.835 2373.1 508.439 2371.08 510.461C2369.06 512.483 2367.45 514.884 2366.36 517.526C2365.26 520.169 2364.7 523 2364.7 525.86V923.56C2364.71 929.332 2367 934.866 2371.08 938.947C2375.16 943.028 2380.7 945.32 2386.47 945.321H3053.13V945.325Z" fill="#2C328C"/>
<path fill-rule="evenodd" clip-rule="evenodd" d="M2521.13 806.68C2520.21 810.033 2518.89 814.517 2518.89 816.148C2518.89 819.509 2521.34 820.124 2526.12 820.124C2558.21 820.124 2559.18 790.744 2559.18 784.524C2559.18 774.234 2557.71 761.71 2539.68 761.71C2533.87 761.71 2533.47 763.234 2533.06 764.662L2521.13 806.68ZM2652.56 801.993C2673.55 797.719 2674.06 785.493 2674.06 784.679C2674.06 782.532 2673.04 780.599 2670.49 780.599C2664.99 780.599 2658.06 788.445 2654.29 797.513L2652.56 801.993H2652.56ZM2924.59 780.467C2913.38 780.467 2904.62 800.502 2903.21 818.589C2903.15 819.308 2903.21 821.95 2907.99 821.95C2921.96 821.95 2931.63 800.457 2931.63 791.901C2931.63 788.75 2931.02 780.467 2924.59 780.467H2924.59ZM2593.04 880.367C2614.02 876.093 2614.53 863.867 2614.53 863.053C2614.53 860.914 2613.51 858.982 2610.96 858.982C2605.46 858.982 2598.53 866.828 2594.76 875.896L2593.03 880.368L2593.04 880.367ZM2717.11 897.685C2727.9 897.685 2737.89 875.685 2737.89 865.708C2737.89 860.819 2735.04 858.886 2732.08 858.886C2720.17 858.886 2711 881.292 2711 890.459C2711 895.852 2714.36 897.685 2717.11 897.685V897.685ZM2806.41 891.07C2806.41 896.87 2809.47 900.538 2814.56 900.538C2826.17 900.538 2834.22 879.458 2834.22 868.553C2834.22 863.263 2831.98 858.779 2827.09 858.779C2815.68 858.779 2806.41 879.046 2806.41 891.07V891.07ZM2901.82 897.685C2912.62 897.685 2922.6 875.685 2922.6 865.708C2922.6 860.819 2919.75 858.886 2916.79 858.886C2904.87 858.886 2895.71 881.292 2895.71 890.459C2895.71 895.852 2899.07 897.685 2901.82 897.685H2901.82Z" fill="#2C328C"/>
<path fill-rule="evenodd" clip-rule="evenodd" d="M2385.35 504.491H3052.23L3052.94 712.315C2972.44 681.696 2716.29 608.416 2385.35 699.734V504.491Z" fill="#2C328C"/>
<path fill-rule="evenodd" clip-rule="evenodd" d="M2364.7 945.347L3074.9 945.326V779.062C2946.82 738.809 2719.13 678.494 2364.7 763.945V945.347Z" fill="#FFF200"/>
<path fill-rule="evenodd" clip-rule="evenodd" d="M3074.9 778.947C2946.95 738.694 2718.75 678.493 2364.7 763.94V699.73C2716.76 608.411 2989.26 681.794 3074.9 712.311V778.947Z" fill="#ED1C24"/>
<path fill-rule="evenodd" clip-rule="evenodd" d="M2597.79 660.583C2614.29 614.975 2652.05 575.593 2717.67 576.029C2783.29 576.465 2827.06 613.95 2838.87 662.992C2754.31 654.207 2697.94 652.666 2597.79 660.583Z" fill="#FFF200"/>
<path d="M2534.34 861.106L2579 794.487H2595.45L2643.04 861.106H2625.61L2612.06 840.941H2563.37L2550.56 861.106H2534.34ZM2567.88 833.767H2607.32L2595.17 815.344C2592.17 810.904 2589.42 806.292 2586.95 801.533C2585.37 806.037 2583.26 810.338 2580.67 814.344L2567.86 833.844L2567.88 833.767ZM2721.26 861.106V854.034C2714.68 859.483 2705.77 862.208 2694.51 862.208C2689.82 862.245 2685.15 861.703 2680.6 860.594C2677.16 859.889 2673.9 858.494 2671.01 856.494C2668.99 854.948 2667.46 852.847 2666.61 850.447C2665.92 847.946 2665.62 845.352 2665.74 842.76V812.906H2680.01V839.63C2679.85 842.536 2680.14 845.449 2680.88 848.265C2682.03 850.662 2684.09 852.505 2686.59 853.389C2690.04 854.701 2693.72 855.319 2697.41 855.208C2701.5 855.24 2705.56 854.609 2709.45 853.338C2712.58 852.512 2715.37 850.718 2717.42 848.214C2719.17 845.393 2719.99 842.097 2719.78 838.785V812.906H2734.05V861.106H2721.26ZM2768.66 861.106V812.906H2781.47V820.206C2783.99 817.335 2787.1 815.03 2790.57 813.442C2793.49 812.326 2796.59 811.769 2799.72 811.802C2804.72 811.815 2809.69 812.682 2814.4 814.364L2809.48 822.051C2806.12 820.874 2802.59 820.268 2799.03 820.257C2796.14 820.211 2793.27 820.761 2790.6 821.871C2788.38 822.727 2786.51 824.307 2785.3 826.355C2783.7 829.274 2782.88 832.557 2782.91 835.886V861.124L2768.66 861.106ZM2890.29 855.161C2885.4 857.58 2880.24 859.412 2874.92 860.619C2869.73 861.704 2864.45 862.237 2859.16 862.208C2849.91 862.208 2842.81 860.927 2837.81 858.339C2832.82 855.751 2830.36 852.446 2830.36 848.423C2830.37 847.209 2830.63 846.009 2831.11 844.896C2831.59 843.782 2832.3 842.777 2833.18 841.94C2835.25 839.855 2837.76 838.254 2840.53 837.251C2843.85 836.041 2847.28 835.182 2850.78 834.689C2853.57 834.279 2857.8 833.843 2863.44 833.459C2871.97 833.022 2880.48 832.081 2888.91 830.641C2888.91 829.514 2888.91 828.822 2888.91 828.514C2889.01 827.073 2888.68 825.632 2887.96 824.38C2887.24 823.128 2886.16 822.122 2884.86 821.493C2879.72 819.36 2874.17 818.414 2868.61 818.726C2863.57 818.478 2858.52 819.164 2853.73 820.75C2850.51 822.112 2847.96 824.679 2846.63 827.899L2832.69 826.799C2833.89 823.474 2836.07 820.589 2838.94 818.523C2842.76 816.047 2847.05 814.389 2851.54 813.655C2857.84 812.451 2864.25 811.885 2870.66 811.964C2876.54 811.85 2882.41 812.339 2888.19 813.421C2891.71 814.018 2895.08 815.26 2898.14 817.085C2900.15 818.442 2901.69 820.382 2902.57 822.645C2903.15 825.112 2903.38 827.647 2903.26 830.178V841.068C2903.03 845.887 2903.34 850.717 2904.18 855.468C2904.9 857.663 2906.14 859.651 2907.8 861.259H2892.88C2891.4 859.575 2890.42 857.519 2890.04 855.315L2890.29 855.161ZM2889.09 836.918C2881.4 838.483 2873.61 839.518 2865.77 840.018C2861.59 840.259 2857.43 840.799 2853.32 841.632C2851.26 842.018 2849.33 842.897 2847.68 844.194C2847.09 844.653 2846.6 845.237 2846.25 845.906C2845.91 846.574 2845.71 847.311 2845.68 848.063C2845.68 850.241 2847.15 852.063 2850.01 853.521C2854.01 855.178 2858.33 855.922 2862.65 855.699C2867.62 855.783 2872.57 855.091 2877.33 853.649C2880.95 852.68 2884.22 850.718 2886.78 847.986C2888.49 845.616 2889.3 842.723 2889.09 839.812L2889.09 836.918Z" fill="#2C328C" stroke="#2C328C" stroke-width="0.22" stroke-miterlimit="22.93"/>
<path fill-rule="evenodd" clip-rule="evenodd" d="M688.431 1449.1C691.289 1449.1 694.12 1448.54 696.76 1447.44C699.401 1446.35 701.8 1444.74 703.822 1442.72C705.843 1440.7 707.446 1438.3 708.54 1435.66C709.633 1433.02 710.196 1430.19 710.196 1427.33V1029.63C710.197 1023.86 707.904 1018.32 703.822 1014.24C699.741 1010.15 694.204 1007.86 688.431 1007.86H21.774C18.9143 1007.86 16.0825 1008.42 13.4404 1009.51C10.7983 1010.61 8.39761 1012.21 6.37558 1014.23C4.35355 1016.26 2.74975 1018.66 1.6558 1021.3C0.561861 1023.94 -0.000787384 1026.77 8.27003e-07 1029.63V1427.33C0.0021218 1433.1 2.29616 1438.64 6.37776 1442.72C10.4594 1446.8 15.9944 1449.09 21.766 1449.09H688.431V1449.1Z" fill="#CC2229"/>
<path fill-rule="evenodd" clip-rule="evenodd" d="M156.426 1310.45C155.509 1313.81 154.188 1318.29 154.188 1319.92C154.188 1323.28 156.633 1323.9 161.418 1323.9C193.507 1323.9 194.477 1294.52 194.477 1288.3C194.477 1278.01 193.003 1265.48 174.977 1265.48C169.171 1265.48 168.767 1267.01 168.358 1268.44L156.426 1310.45ZM287.861 1305.77C308.846 1301.49 309.354 1289.27 309.354 1288.45C309.354 1286.31 308.334 1284.37 305.786 1284.37C300.286 1284.37 293.361 1292.22 289.586 1301.29L287.856 1305.77H287.861ZM559.89 1284.24C548.679 1284.24 539.913 1304.28 538.509 1322.36C538.451 1323.08 538.509 1325.72 543.291 1325.72C557.252 1325.72 566.923 1304.23 566.923 1295.67C566.923 1292.52 566.312 1284.24 559.891 1284.24H559.89ZM228.333 1384.14C249.314 1379.87 249.822 1367.64 249.822 1366.83C249.822 1364.69 248.806 1362.76 246.258 1362.76C240.758 1362.76 233.829 1370.6 230.058 1379.67L228.328 1384.14L228.333 1384.14ZM352.406 1401.46C363.2 1401.46 373.185 1379.46 373.185 1369.48C373.185 1364.59 370.332 1362.66 367.379 1362.66C355.462 1362.66 346.295 1385.07 346.295 1394.23C346.295 1399.63 349.652 1401.46 352.406 1401.46V1401.46ZM441.706 1394.84C441.706 1400.64 444.762 1404.31 449.853 1404.31C461.465 1404.31 469.517 1383.23 469.517 1372.33C469.517 1367.04 467.275 1362.55 462.386 1362.55C450.972 1362.55 441.706 1382.82 441.706 1394.84V1394.84ZM537.113 1401.46C547.913 1401.46 557.896 1379.46 557.896 1369.48C557.896 1364.59 555.043 1362.66 552.09 1362.66C540.169 1362.66 531.002 1385.07 531.002 1394.23C531.002 1399.63 534.363 1401.46 537.114 1401.46H537.113Z" fill="#CC2229"/>
<path d="M230.031 1037.51H475.071V1228.51L440 1270.78L389.1 1285.78H321.274L234.848 1248.62L230.031 1037.51Z" fill="white"/>
<path fill-rule="evenodd" clip-rule="evenodd" d="M225.732 1028.91H485.116V1286.48H377.832V1179.77H354.32V1286.48H341.832V1213.63H330.073V1286.48H225.732V1028.91ZM234.548 1118.69C248.262 1112.56 261.979 1106.43 275.698 1100.29C330.775 1023.41 402.325 1052.52 427.801 1089.26C368.525 1051.24 324.68 1070.62 302.885 1096.62C469.445 1079.32 511.085 1180.87 421.185 1218.04C500.787 1154.02 399.632 1101.77 294.069 1106.92C268.71 1153.77 277.032 1188.36 300.68 1219.51C275.18 1199.96 258.28 1171.4 272.023 1110.6C259.53 1113.3 247.039 1116 234.548 1118.69Z" fill="#CC2229"/>
<path fill-rule="evenodd" clip-rule="evenodd" d="M225.942 1349.72H240.117L240.401 1355.25C244.505 1349.01 250.212 1346.81 257.523 1348.64C256.96 1353.83 256.394 1359.02 255.823 1364.22C248.572 1361.25 244.031 1364.95 241.285 1372.61L241.34 1373.63V1400.17H225.942V1349.72ZM172.212 1332.74V1399.7C180.584 1399.73 188.959 1399.77 197.337 1399.81C223.654 1400.5 223.616 1372.6 208.63 1365.13C222.647 1357.75 219.31 1332.8 197.542 1332.78C189.094 1332.9 180.651 1332.63 172.212 1332.74V1332.74ZM188.579 1346.21H195.273C203.225 1346.97 202.848 1358.6 195.273 1359.11H188.579V1346.21ZM188.579 1372.53H195.809C204.399 1373.35 203.993 1386.01 195.809 1386.56H188.579V1372.53ZM340.373 1330.92H355.783V1399.92H341.448V1393.3C325.459 1409.79 308.693 1396.6 308.157 1373.68C309.013 1352.64 323.269 1340.93 340.37 1354.23L340.373 1330.92ZM332.127 1362.25C336.5 1362.25 340.063 1367.87 340.063 1374.76C340.063 1381.65 336.5 1387.26 332.127 1387.26C327.754 1387.26 324.191 1381.64 324.191 1374.76C324.191 1367.87 327.751 1362.25 332.124 1362.25H332.127ZM263.862 1352.38C263.933 1356.41 264.008 1360.45 264.089 1364.48C274.241 1358.78 286.536 1357.85 286.57 1367.95C270.023 1366.61 258.973 1370.88 259.146 1385.75C259.289 1398.52 274.376 1405.8 287.246 1394.96C287.317 1396.6 287.391 1398.24 287.468 1399.89C292.127 1399.92 296.788 1399.96 301.452 1400C301.898 1384.43 301.913 1372.03 300.643 1363.3C296.335 1348.75 285.033 1344.36 263.862 1352.38ZM286.573 1377.93C286.304 1383.2 284.941 1386.64 282.173 1387.9C277.124 1390.2 271.19 1385.69 275.043 1380.79C276.741 1378.62 280.606 1377.3 286.573 1377.93Z" fill="white"/>
<path fill-rule="evenodd" clip-rule="evenodd" d="M377.82 1380.32C387.371 1380.42 396.927 1380.52 406.487 1380.62C409.107 1362.25 399.243 1348.52 385.681 1348.21C357.304 1346 352.809 1399.4 385.526 1401.31C391.607 1401.33 397.649 1400.34 403.404 1398.38C403.248 1393.69 403.094 1389.01 402.941 1384.33C386.47 1394.37 378.906 1386.56 377.82 1380.32ZM377.511 1369.05L392.767 1369.36C392.402 1356.71 378.197 1357.9 377.511 1369.05ZM443.166 1364.88C443.729 1360.25 444.295 1355.62 444.866 1350.99C424.583 1343.94 411.713 1352.58 411.266 1363.95C411.111 1382.33 433.773 1377.38 431.611 1386.33C427.381 1391.17 420.293 1388.03 413.118 1384.17C412.66 1388.9 412.198 1393.64 411.732 1398.37C431.006 1403.67 444.356 1401.6 447.176 1386.33C449.015 1365.87 426.332 1370.59 426.523 1363.02C426.68 1359.17 435.929 1358.55 443.168 1364.88H443.166ZM486.937 1365.03C487.242 1360.4 487.55 1355.77 487.86 1351.14C470.936 1343.79 451.006 1351.86 451.026 1375.22C451.66 1397.33 470.066 1406.06 488.476 1398.84C488.266 1393.95 488.061 1389.06 487.86 1384.17C477.128 1392.7 467.422 1385.7 467.052 1374.76C466.753 1365.65 473.07 1356.85 486.94 1365.03H486.937ZM518.377 1348.52C503.252 1349.02 493.751 1356.19 493.412 1375.22C493.5 1387.93 499.761 1401.44 518.222 1401.15C529.367 1401.97 542.675 1393.69 541.957 1374.91C541.378 1361.98 536.296 1349.13 518.38 1348.52H518.377ZM517.685 1361.18C522.226 1361.18 525.927 1367.18 525.927 1374.53C525.927 1381.88 522.227 1387.88 517.685 1387.88C513.143 1387.88 509.434 1381.88 509.434 1374.53C509.434 1367.18 513.138 1361.18 517.688 1361.18H517.685Z" fill="white"/>
<path fill-rule="evenodd" clip-rule="evenodd" d="M1477.13 1449.1C1479.98 1449.1 1482.81 1448.54 1485.45 1447.44C1488.1 1446.35 1490.49 1444.74 1492.52 1442.72C1494.54 1440.7 1496.14 1438.3 1497.23 1435.66C1498.33 1433.02 1498.89 1430.19 1498.89 1427.33V1029.63C1498.89 1023.86 1496.6 1018.32 1492.52 1014.24C1488.43 1010.15 1482.9 1007.86 1477.13 1007.86H810.468C807.609 1007.86 804.777 1008.42 802.135 1009.51C799.493 1010.61 797.092 1012.21 795.07 1014.23C793.048 1016.26 791.444 1018.66 790.35 1021.3C789.256 1023.94 788.694 1026.77 788.694 1029.63V1427.33C788.696 1433.1 790.99 1438.64 795.072 1442.72C799.154 1446.8 804.689 1449.09 810.46 1449.09H1477.13V1449.1Z" fill="#F9DC30"/>
<path fill-rule="evenodd" clip-rule="evenodd" d="M945.12 1310.45C944.203 1313.81 942.882 1318.29 942.882 1319.92C942.882 1323.28 945.327 1323.9 950.112 1323.9C982.201 1323.9 983.171 1294.52 983.171 1288.3C983.171 1278.01 981.697 1265.48 963.671 1265.48C957.865 1265.48 957.461 1267.01 957.052 1268.44L945.12 1310.45ZM1076.56 1305.77C1097.54 1301.49 1098.05 1289.27 1098.05 1288.45C1098.05 1286.31 1097.03 1284.37 1094.48 1284.37C1088.98 1284.37 1082.06 1292.22 1078.28 1301.29L1076.55 1305.77H1076.56ZM1348.58 1284.24C1337.37 1284.24 1328.61 1304.28 1327.2 1322.36C1327.15 1323.08 1327.2 1325.72 1331.99 1325.72C1345.95 1325.72 1355.62 1304.23 1355.62 1295.67C1355.62 1292.52 1355.01 1284.24 1348.59 1284.24H1348.58ZM1017.03 1384.14C1038.01 1379.87 1038.52 1367.64 1038.52 1366.83C1038.52 1364.69 1037.5 1362.76 1034.95 1362.76C1029.45 1362.76 1022.52 1370.6 1018.75 1379.67L1017.02 1384.14L1017.03 1384.14ZM1141.1 1401.46C1151.89 1401.46 1161.88 1379.46 1161.88 1369.48C1161.88 1364.59 1159.03 1362.66 1156.07 1362.66C1144.16 1362.66 1134.99 1385.07 1134.99 1394.23C1134.99 1399.63 1138.35 1401.46 1141.1 1401.46V1401.46ZM1230.4 1394.84C1230.4 1400.64 1233.46 1404.31 1238.55 1404.31C1250.16 1404.31 1258.21 1383.23 1258.21 1372.33C1258.21 1367.04 1255.97 1362.55 1251.08 1362.55C1239.67 1362.55 1230.4 1382.82 1230.4 1394.84V1394.84ZM1325.81 1401.46C1336.61 1401.46 1346.59 1379.46 1346.59 1369.48C1346.59 1364.59 1343.74 1362.66 1340.78 1362.66C1328.86 1362.66 1319.7 1385.07 1319.7 1394.23C1319.7 1399.63 1323.06 1401.46 1325.81 1401.46H1325.81Z" fill="#F9DC30"/>
<path fill-rule="evenodd" clip-rule="evenodd" d="M1104.48 1315.52L1064.31 1288.7L1245.18 1168.2L1144.64 1101.22L1094.43 1134.77L1134.71 1161.35L1044.22 1221.72L963.889 1168.08L1144.64 1047.7L1325.51 1168.08L1104.48 1315.52ZM1044.23 1355.69L1004.06 1328.87L963.891 1355.69V1409.21L1044.23 1355.69ZM1285.35 1128.03L1245.18 1101.22L1325.51 1047.7V1101.22L1285.35 1128.03Z" fill="#1E447F"/>
<path fill-rule="evenodd" clip-rule="evenodd" d="M1194.97 1322.14L1154.69 1295.21L1245.06 1234.96L1325.51 1288.7L1144.64 1409.21L963.889 1288.7L1184.81 1141.38L1224.98 1168.2L1044.23 1288.7L1144.65 1355.69L1194.97 1322.14Z" fill="#1E447F"/>
<path fill-rule="evenodd" clip-rule="evenodd" d="M2265.82 1449.1C2268.68 1449.1 2271.51 1448.54 2274.15 1447.44C2276.79 1446.35 2279.19 1444.74 2281.21 1442.72C2283.23 1440.7 2284.83 1438.3 2285.93 1435.66C2287.02 1433.02 2287.58 1430.19 2287.58 1427.33V1029.63C2287.59 1023.86 2285.29 1018.32 2281.21 1014.24C2277.13 1010.15 2271.59 1007.86 2265.82 1007.86H1599.16C1596.3 1007.86 1593.47 1008.42 1590.83 1009.51C1588.19 1010.61 1585.79 1012.21 1583.76 1014.23C1581.74 1016.26 1580.14 1018.66 1579.04 1021.3C1577.95 1023.94 1577.39 1026.77 1577.39 1029.63V1427.33C1577.39 1433.1 1579.68 1438.64 1583.77 1442.72C1587.85 1446.8 1593.38 1449.09 1599.15 1449.09H2265.82V1449.1Z" fill="#2566AF"/>
<path fill-rule="evenodd" clip-rule="evenodd" d="M1733.81 1310.45C1732.9 1313.81 1731.58 1318.29 1731.58 1319.92C1731.58 1323.28 1734.02 1323.9 1738.81 1323.9C1770.9 1323.9 1771.87 1294.52 1771.87 1288.3C1771.87 1278.01 1770.39 1265.48 1752.37 1265.48C1746.56 1265.48 1746.16 1267.01 1745.75 1268.44L1733.81 1310.45ZM1865.25 1305.77C1886.23 1301.49 1886.74 1289.27 1886.74 1288.45C1886.74 1286.31 1885.72 1284.37 1883.17 1284.37C1877.67 1284.37 1870.75 1292.22 1866.97 1301.29L1865.24 1305.77H1865.25ZM2137.28 1284.24C2126.07 1284.24 2117.3 1304.28 2115.9 1322.36C2115.84 1323.08 2115.9 1325.72 2120.68 1325.72C2134.64 1325.72 2144.31 1304.23 2144.31 1295.67C2144.31 1292.52 2143.7 1284.24 2137.28 1284.24H2137.28ZM1805.72 1384.14C1826.7 1379.87 1827.21 1367.64 1827.21 1366.83C1827.21 1364.69 1826.19 1362.76 1823.65 1362.76C1818.15 1362.76 1811.22 1370.6 1807.45 1379.67L1805.72 1384.14L1805.72 1384.14ZM1929.79 1401.46C1940.59 1401.46 1950.57 1379.46 1950.57 1369.48C1950.57 1364.59 1947.72 1362.66 1944.77 1362.66C1932.85 1362.66 1923.68 1385.07 1923.68 1394.23C1923.68 1399.63 1927.04 1401.46 1929.79 1401.46V1401.46ZM2019.09 1394.84C2019.09 1400.64 2022.15 1404.31 2027.24 1404.31C2038.85 1404.31 2046.91 1383.23 2046.91 1372.33C2046.91 1367.04 2044.66 1362.55 2039.77 1362.55C2028.36 1362.55 2019.09 1382.82 2019.09 1394.84V1394.84ZM2114.5 1401.46C2125.3 1401.46 2135.28 1379.46 2135.28 1369.48C2135.28 1364.59 2132.43 1362.66 2129.48 1362.66C2117.56 1362.66 2108.39 1385.07 2108.39 1394.23C2108.39 1399.63 2111.75 1401.46 2114.5 1401.46H2114.5Z" fill="#2566AF"/>
<path d="M1889.09 1317.12H1843.87L1872.14 1143.4H1917.37L1889.09 1317.12ZM1805.82 1143.4L1762.71 1262.88L1757.61 1237.15V1237.16L1742.39 1159.04C1742.39 1159.04 1740.55 1143.4 1720.94 1143.4H1649.66L1648.82 1146.34C1648.82 1146.34 1670.62 1150.88 1696.13 1166.2L1735.42 1317.12H1782.54L1854.49 1143.4H1805.82ZM2161.56 1317.12H2203.08L2166.88 1143.4H2130.52C2113.73 1143.4 2109.64 1156.34 2109.64 1156.34L2042.19 1317.12H2089.34L2098.77 1291.32H2156.26L2161.56 1317.12H2161.56ZM2111.79 1255.67L2135.56 1190.66L2148.93 1255.67H2111.79ZM2045.73 1185.18L2052.18 1147.88C2052.18 1147.88 2032.26 1140.31 2011.5 1140.31C1989.06 1140.31 1935.76 1150.11 1935.76 1197.81C1935.76 1242.69 1998.31 1243.25 1998.31 1266.82C1998.31 1290.4 1942.21 1286.17 1923.69 1271.31L1916.96 1310.31C1916.96 1310.31 1937.16 1320.12 1968.01 1320.12C1998.87 1320.12 2045.44 1304.14 2045.44 1260.64C2045.44 1215.48 1982.32 1211.27 1982.32 1191.63C1982.32 1172 2026.37 1174.51 2045.72 1185.18L2045.73 1185.18Z" fill="white"/>
<path d="M1757.61 1237.16L1742.39 1159.04C1742.39 1159.04 1740.55 1143.4 1720.94 1143.4H1649.66L1648.82 1146.34C1648.82 1146.34 1683.08 1153.44 1715.94 1180.04C1747.36 1205.47 1757.61 1237.16 1757.61 1237.16Z" fill="#E6A540"/>
<path fill-rule="evenodd" clip-rule="evenodd" d="M3054.51 1449.1C3057.37 1449.1 3060.2 1448.54 3062.84 1447.44C3065.48 1446.35 3067.88 1444.74 3069.9 1442.72C3071.92 1440.7 3073.53 1438.3 3074.62 1435.66C3075.72 1433.02 3076.28 1430.19 3076.28 1427.33V1029.63C3076.28 1023.86 3073.99 1018.32 3069.9 1014.24C3065.82 1010.15 3060.29 1007.86 3054.51 1007.86H2387.86C2385 1007.86 2382.16 1008.42 2379.52 1009.51C2376.88 1010.61 2374.48 1012.21 2372.46 1014.23C2370.44 1016.26 2368.83 1018.66 2367.74 1021.3C2366.64 1023.94 2366.08 1026.77 2366.08 1029.63V1427.33C2366.08 1433.1 2368.38 1438.64 2372.46 1442.72C2376.54 1446.8 2382.08 1449.09 2387.85 1449.09H3054.51V1449.1Z" fill="white"/>
<path fill-rule="evenodd" clip-rule="evenodd" d="M2522.51 1310.45C2521.59 1313.81 2520.27 1318.29 2520.27 1319.92C2520.27 1323.28 2522.72 1323.9 2527.5 1323.9C2559.59 1323.9 2560.56 1294.52 2560.56 1288.3C2560.56 1278.01 2559.09 1265.48 2541.06 1265.48C2535.25 1265.48 2534.85 1267.01 2534.44 1268.44L2522.51 1310.45ZM2653.94 1305.77C2674.93 1301.49 2675.44 1289.27 2675.44 1288.45C2675.44 1286.31 2674.42 1284.37 2671.87 1284.37C2666.37 1284.37 2659.44 1292.22 2655.67 1301.29L2653.94 1305.77H2653.94ZM2925.97 1284.24C2914.76 1284.24 2906 1304.28 2904.59 1322.36C2904.53 1323.08 2904.59 1325.72 2909.37 1325.72C2923.33 1325.72 2933.01 1304.23 2933.01 1295.67C2933.01 1292.52 2932.39 1284.24 2925.97 1284.24H2925.97ZM2594.42 1384.14C2615.4 1379.87 2615.9 1367.64 2615.9 1366.83C2615.9 1364.69 2614.89 1362.76 2612.34 1362.76C2606.84 1362.76 2599.91 1370.6 2596.14 1379.67L2594.41 1384.14L2594.42 1384.14ZM2718.49 1401.46C2729.28 1401.46 2739.27 1379.46 2739.27 1369.48C2739.27 1364.59 2736.41 1362.66 2733.46 1362.66C2721.54 1362.66 2712.38 1385.07 2712.38 1394.23C2712.38 1399.63 2715.73 1401.46 2718.49 1401.46V1401.46ZM2807.79 1394.84C2807.79 1400.64 2810.84 1404.31 2815.93 1404.31C2827.55 1404.31 2835.6 1383.23 2835.6 1372.33C2835.6 1367.04 2833.36 1362.55 2828.47 1362.55C2817.05 1362.55 2807.79 1382.82 2807.79 1394.84V1394.84ZM2903.2 1401.46C2914 1401.46 2923.98 1379.46 2923.98 1369.48C2923.98 1364.59 2921.12 1362.66 2918.17 1362.66C2906.25 1362.66 2897.08 1385.07 2897.08 1394.23C2897.08 1399.63 2900.45 1401.46 2903.2 1401.46H2903.2Z" fill="white"/>
<path d="M2925.23 1389.25V1390.11H2926.03C2926.18 1390.11 2926.33 1390.07 2926.46 1390C2926.51 1389.96 2926.55 1389.91 2926.58 1389.85C2926.61 1389.8 2926.62 1389.73 2926.62 1389.67C2926.62 1389.61 2926.61 1389.54 2926.58 1389.49C2926.55 1389.43 2926.51 1389.38 2926.46 1389.35C2926.33 1389.27 2926.18 1389.23 2926.03 1389.24H2925.23L2925.23 1389.25ZM2926.04 1388.64C2926.38 1388.62 2926.72 1388.72 2927 1388.92C2927.11 1389.01 2927.2 1389.13 2927.26 1389.26C2927.32 1389.39 2927.34 1389.54 2927.34 1389.68C2927.34 1389.8 2927.32 1389.93 2927.27 1390.04C2927.23 1390.16 2927.15 1390.26 2927.07 1390.35C2926.85 1390.53 2926.58 1390.65 2926.3 1390.67L2927.37 1391.89H2926.55L2925.56 1390.68H2925.24V1391.89H2924.55V1388.65H2926.05L2926.04 1388.64ZM2925.83 1393.01C2926.19 1393.01 2926.55 1392.94 2926.88 1392.79C2927.2 1392.65 2927.49 1392.46 2927.73 1392.21C2927.98 1391.96 2928.18 1391.67 2928.32 1391.35C2928.59 1390.69 2928.6 1389.94 2928.33 1389.28C2928.06 1388.61 2927.54 1388.08 2926.88 1387.79C2926.54 1387.66 2926.19 1387.59 2925.83 1387.59C2925.46 1387.59 2925.09 1387.66 2924.75 1387.79C2924.43 1387.93 2924.13 1388.13 2923.88 1388.38C2923.5 1388.76 2923.24 1389.26 2923.14 1389.79C2923.04 1390.32 2923.1 1390.87 2923.31 1391.38C2923.44 1391.7 2923.63 1391.99 2923.88 1392.23C2924.13 1392.48 2924.43 1392.68 2924.75 1392.81C2925.09 1392.96 2925.46 1393.03 2925.83 1393.03V1393.01ZM2925.83 1386.81C2926.77 1386.81 2927.67 1387.18 2928.34 1387.84C2928.84 1388.33 2929.18 1388.95 2929.31 1389.64C2929.45 1390.32 2929.37 1391.02 2929.1 1391.66C2928.92 1392.08 2928.66 1392.46 2928.34 1392.78C2928.01 1393.09 2927.63 1393.35 2927.21 1393.53C2926.77 1393.71 2926.3 1393.81 2925.83 1393.81C2925.34 1393.81 2924.86 1393.71 2924.42 1393.53C2924 1393.35 2923.61 1393.1 2923.28 1392.78C2922.96 1392.45 2922.71 1392.06 2922.53 1391.63C2922.26 1390.99 2922.19 1390.28 2922.32 1389.6C2922.46 1388.92 2922.8 1388.29 2923.29 1387.81C2923.62 1387.48 2924 1387.23 2924.43 1387.06C2924.87 1386.87 2925.35 1386.77 2925.84 1386.78L2925.83 1386.81ZM2597.71 1374.29C2597.71 1368.11 2601.76 1363.03 2608.38 1363.03C2614.7 1363.03 2618.97 1367.89 2618.97 1374.29C2618.97 1380.69 2614.7 1385.55 2608.38 1385.55C2601.76 1385.55 2597.71 1380.47 2597.71 1374.29ZM2626.18 1374.29V1356.7H2618.53V1360.98C2617.23 1359.3 2615.54 1357.95 2613.6 1357.06C2611.67 1356.16 2609.55 1355.74 2607.42 1355.83C2597.57 1355.83 2589.83 1363.56 2589.83 1374.3C2589.83 1385.04 2597.56 1392.77 2607.42 1392.77C2609.55 1392.86 2611.67 1392.44 2613.6 1391.54C2615.54 1390.65 2617.23 1389.3 2618.53 1387.62V1391.89H2626.17V1374.29L2626.18 1374.29ZM2884.6 1374.29C2884.6 1368.11 2888.65 1363.03 2895.27 1363.03C2901.6 1363.03 2905.86 1367.89 2905.86 1374.29C2905.86 1380.69 2901.6 1385.55 2895.27 1385.55C2888.65 1385.55 2884.6 1380.47 2884.6 1374.29ZM2913.08 1374.29V1342.58H2905.43V1360.98C2904.12 1359.3 2902.43 1357.95 2900.5 1357.06C2898.56 1356.16 2896.44 1355.74 2894.32 1355.83C2884.46 1355.83 2876.72 1363.56 2876.72 1374.3C2876.72 1385.04 2884.46 1392.77 2894.32 1392.77C2896.44 1392.86 2898.56 1392.44 2900.5 1391.54C2902.43 1390.65 2904.12 1389.3 2905.43 1387.62V1391.89H2913.08V1374.29ZM2721.1 1362.67C2726.03 1362.67 2729.2 1365.76 2730 1371.2H2711.76C2712.57 1366.12 2715.66 1362.67 2721.1 1362.67H2721.1ZM2721.26 1355.81C2710.95 1355.81 2703.74 1363.31 2703.74 1374.28C2703.74 1385.47 2711.24 1392.75 2721.77 1392.75C2727.02 1392.94 2732.15 1391.18 2736.19 1387.82L2732.44 1382.16C2729.53 1384.48 2725.93 1385.78 2722.21 1385.83C2717.28 1385.83 2712.79 1383.55 2711.69 1377.22H2737.8C2737.88 1376.27 2737.95 1375.31 2737.95 1374.28C2737.88 1363.32 2731.1 1355.81 2721.25 1355.81L2721.26 1355.81ZM2813.59 1374.28C2813.59 1368.1 2817.64 1363.02 2824.26 1363.02C2830.59 1363.02 2834.85 1367.88 2834.85 1374.28C2834.85 1380.68 2830.58 1385.54 2824.26 1385.54C2817.64 1385.54 2813.59 1380.46 2813.59 1374.28H2813.59ZM2842.06 1374.28V1356.7H2834.42V1360.99C2833.11 1359.3 2831.42 1357.96 2829.49 1357.06C2827.56 1356.16 2825.44 1355.74 2823.31 1355.83C2813.45 1355.83 2805.72 1363.56 2805.72 1374.3C2805.72 1385.04 2813.45 1392.77 2823.31 1392.77C2825.44 1392.86 2827.56 1392.44 2829.49 1391.54C2831.42 1390.65 2833.11 1389.3 2834.42 1387.62V1391.89H2842.06V1374.29L2842.06 1374.28ZM2770.4 1374.28C2770.4 1384.95 2777.83 1392.75 2789.16 1392.75C2794.46 1392.75 2797.99 1391.57 2801.81 1388.56L2798.13 1382.38C2795.48 1384.4 2792.25 1385.51 2788.92 1385.54C2782.81 1385.47 2778.32 1381.05 2778.32 1374.28C2778.32 1367.51 2782.81 1363.1 2788.92 1363.02C2792.25 1363.06 2795.48 1364.17 2798.13 1366.19L2801.8 1360.01C2797.98 1356.99 2794.45 1355.81 2789.16 1355.81C2777.83 1355.81 2770.4 1363.61 2770.4 1374.28L2770.4 1374.28ZM2868.99 1355.81C2867.13 1355.76 2865.28 1356.21 2863.65 1357.12C2862.02 1358.02 2860.66 1359.35 2859.72 1360.97V1356.7H2852.14V1391.87H2859.8V1372.16C2859.8 1366.34 2862.3 1363.1 2867.3 1363.1C2868.94 1363.08 2870.56 1363.38 2872.08 1363.99L2874.44 1356.78C2872.69 1356.15 2870.85 1355.83 2868.99 1355.82L2868.99 1355.81ZM2663.99 1359.5C2660.31 1357.07 2655.24 1355.82 2649.65 1355.82C2640.74 1355.82 2635 1360.09 2635 1367.08C2635 1372.81 2639.27 1376.35 2647.14 1377.46L2650.75 1377.97C2654.94 1378.56 2656.92 1379.66 2656.92 1381.65C2656.92 1384.37 2654.14 1385.92 2648.91 1385.92C2644.7 1386.04 2640.58 1384.74 2637.21 1382.24L2633.61 1388.2C2638.07 1391.32 2643.4 1392.92 2648.84 1392.77C2659 1392.77 2664.88 1387.99 2664.88 1381.29C2664.88 1375.11 2660.25 1371.87 2652.6 1370.77L2649 1370.25C2645.68 1369.82 2643.03 1369.15 2643.03 1366.79C2643.03 1364.22 2645.53 1362.67 2649.73 1362.67C2653.58 1362.73 2657.36 1363.77 2660.7 1365.69L2664.01 1359.51L2663.99 1359.5ZM2762.67 1355.83C2760.81 1355.77 2758.96 1356.22 2757.33 1357.13C2755.7 1358.04 2754.34 1359.37 2753.41 1360.98V1356.7H2745.83V1391.87H2753.48V1372.16C2753.48 1366.34 2755.98 1363.1 2760.98 1363.1C2762.62 1363.08 2764.24 1363.38 2765.76 1363.99L2768.12 1356.78C2766.37 1356.15 2764.53 1355.83 2762.67 1355.82L2762.67 1355.83ZM2697.41 1356.7H2684.91V1346.03H2677.17V1356.7H2670.04V1363.69H2677.17V1379.74C2677.17 1387.9 2680.34 1392.76 2689.39 1392.76C2692.77 1392.77 2696.09 1391.83 2698.96 1390.04L2696.75 1383.49C2694.69 1384.71 2692.36 1385.4 2689.98 1385.48C2686.15 1385.48 2684.91 1383.12 2684.91 1379.59V1363.7H2697.41V1356.7ZM2583.07 1391.88V1369.81C2583.07 1361.49 2577.77 1355.9 2569.23 1355.83C2564.74 1355.75 2560.11 1357.15 2556.87 1362.08C2555.67 1360.09 2553.96 1358.46 2551.92 1357.36C2549.87 1356.26 2547.57 1355.73 2545.25 1355.83C2543.22 1355.72 2541.21 1356.15 2539.4 1357.07C2537.6 1357.98 2536.06 1359.36 2534.95 1361.05V1356.7H2527.29V1391.87H2535.01V1372.37C2535.01 1366.27 2538.39 1363.02 2543.62 1363.02C2548.7 1363.02 2551.27 1366.33 2551.27 1372.29V1391.87H2559V1372.37C2559 1366.26 2562.53 1363.02 2567.61 1363.02C2572.83 1363.02 2575.32 1366.33 2575.32 1372.29V1391.86L2583.07 1391.88Z" fill="#231F20"/>
<path d="M2929.59 1274.89V1269.74H2928.25L2926.7 1273.27L2925.16 1269.74H2923.82V1274.89H2924.77V1271.01L2926.22 1274.36H2927.21L2928.66 1271.01V1274.89H2929.6L2929.59 1274.89ZM2921.09 1274.89V1270.62H2922.81V1269.76H2918.43V1270.62H2920.14V1274.89H2921.08L2921.09 1274.89Z" fill="#F79410"/>
<path d="M2777.37 1296.94H2661.47V1088.66H2777.37V1296.94Z" fill="#FF5F00"/>
<path d="M2668.82 1192.8C2668.8 1172.75 2673.34 1152.94 2682.11 1134.9C2690.87 1116.86 2703.63 1101.05 2719.41 1088.66C2699.86 1073.3 2676.4 1063.75 2651.68 1061.1C2626.97 1058.44 2602.01 1062.8 2579.65 1073.66C2557.29 1084.52 2538.45 1101.46 2525.26 1122.53C2512.07 1143.59 2505.08 1167.95 2505.08 1192.8C2505.08 1217.66 2512.07 1242.01 2525.26 1263.08C2538.45 1284.15 2557.29 1301.09 2579.65 1311.95C2602.01 1322.81 2626.97 1327.17 2651.68 1324.51C2676.4 1321.86 2699.86 1312.31 2719.41 1296.95C2703.63 1284.56 2690.87 1268.75 2682.11 1250.71C2673.34 1232.66 2668.8 1212.86 2668.81 1192.81" fill="#EB001B"/>
<path d="M2933.73 1192.8C2933.73 1217.66 2926.74 1242.01 2913.55 1263.08C2900.37 1284.15 2881.52 1301.09 2859.16 1311.95C2836.81 1322.81 2811.85 1327.17 2787.13 1324.51C2762.42 1321.86 2738.95 1312.31 2719.41 1296.95C2735.18 1284.55 2747.93 1268.74 2756.69 1250.7C2765.46 1232.66 2770.01 1212.86 2770.01 1192.8C2770.01 1172.75 2765.46 1152.95 2756.69 1134.91C2747.93 1116.87 2735.18 1101.06 2719.41 1088.66C2738.95 1073.3 2762.42 1063.75 2787.13 1061.09C2811.85 1058.44 2836.81 1062.8 2859.16 1073.66C2881.52 1084.52 2900.37 1101.46 2913.55 1122.53C2926.74 1143.59 2933.73 1167.95 2933.73 1192.8" fill="#F79E1B"/>
<path fill-rule="evenodd" clip-rule="evenodd" d="M688.431 1952.87C691.289 1952.87 694.12 1952.31 696.76 1951.21C699.401 1950.12 701.8 1948.52 703.822 1946.5C705.843 1944.47 707.446 1942.08 708.54 1939.43C709.633 1936.79 710.196 1933.96 710.196 1931.11V1533.4C710.197 1527.63 707.904 1522.09 703.822 1518.01C699.741 1513.93 694.204 1511.63 688.431 1511.63H21.774C18.9143 1511.63 16.0825 1512.19 13.4404 1513.29C10.7983 1514.38 8.39761 1515.98 6.37558 1518.01C4.35355 1520.03 2.74975 1522.43 1.6558 1525.07C0.561861 1527.71 -0.000787384 1530.55 8.27003e-07 1533.41V1931.11C0.0021218 1936.88 2.29616 1942.41 6.37776 1946.49C10.4594 1950.57 15.9944 1952.87 21.766 1952.87H688.431V1952.87Z" fill="#822124"/>
<path fill-rule="evenodd" clip-rule="evenodd" d="M156.426 1814.23C155.509 1817.58 154.188 1822.06 154.188 1823.69C154.188 1827.06 156.633 1827.67 161.418 1827.67C193.507 1827.67 194.477 1798.29 194.477 1792.07C194.477 1781.78 193.003 1769.26 174.977 1769.26C169.171 1769.26 168.767 1770.78 168.358 1772.21L156.426 1814.23ZM287.861 1809.54C308.846 1805.27 309.354 1793.04 309.354 1792.23C309.354 1790.08 308.334 1788.15 305.786 1788.15C300.286 1788.15 293.361 1795.99 289.586 1805.06L287.856 1809.54H287.861ZM559.89 1788.01C548.679 1788.01 539.913 1808.05 538.509 1826.14C538.451 1826.85 538.509 1829.5 543.291 1829.5C557.252 1829.5 566.923 1808 566.923 1799.45C566.923 1796.3 566.312 1788.01 559.891 1788.01H559.89ZM228.333 1887.91C249.314 1883.64 249.822 1871.41 249.822 1870.6C249.822 1868.46 248.806 1866.53 246.258 1866.53C240.758 1866.53 233.829 1874.37 230.058 1883.44L228.328 1887.91L228.333 1887.91ZM352.406 1905.23C363.2 1905.23 373.185 1883.23 373.185 1873.25C373.185 1868.37 370.332 1866.43 367.379 1866.43C355.462 1866.43 346.295 1888.84 346.295 1898.01C346.295 1903.4 349.652 1905.23 352.406 1905.23V1905.23ZM441.706 1898.62C441.706 1904.42 444.762 1908.08 449.853 1908.08C461.465 1908.08 469.517 1887 469.517 1876.1C469.517 1870.81 467.275 1866.33 462.386 1866.33C450.972 1866.33 441.706 1886.59 441.706 1898.62V1898.62ZM537.113 1905.23C547.913 1905.23 557.896 1883.23 557.896 1873.25C557.896 1868.37 555.043 1866.43 552.09 1866.43C540.169 1866.43 531.002 1888.84 531.002 1898.01C531.002 1903.4 534.363 1905.23 537.114 1905.23H537.113Z" fill="#822124"/>
<path d="M174.543 1675.05C177.926 1672.72 182.285 1662.11 177.306 1657.69C175.729 1656.29 173.092 1655.88 169.413 1656.5C166 1657.08 164.038 1658.24 162.704 1660.06C160.562 1662.98 158.596 1671.78 161.915 1675.06C165.148 1678.24 172.39 1676.53 174.543 1675.05ZM126.396 1657.69C123.972 1673.42 121.241 1688.84 118.503 1704.26C100.922 1704.44 82.9721 1705.12 66.0151 1703.86C69.2151 1688.78 71.5151 1672.79 74.6971 1657.68H55.7531C48.9721 1696.16 42.8031 1735.24 35.2321 1772.92H54.5701C57.6031 1753.6 60.4411 1734.07 64.4351 1715.7C80.9231 1715.29 100.685 1714.58 116.529 1716.1C113.262 1735.2 109.315 1753.61 106.268 1772.93H125.607C131.822 1733.89 138.367 1695.18 146.13 1657.69H126.396ZM399.888 1690.84C384.842 1684.76 373.012 1695.03 367.527 1704.65C368.771 1700.37 369.283 1695.36 370.291 1690.84H355.291C351.624 1719.27 346.221 1745.97 341.084 1772.93H358.059C360.437 1756.93 361.459 1735.35 366.74 1720.04C370.957 1707.81 381.993 1697.39 397.918 1703.07C398.138 1698.56 399.43 1695.12 399.888 1690.84ZM409.358 1753.59C407.794 1749.55 407.391 1742.88 407.781 1737.8C408.658 1726.4 412.813 1712.52 419.226 1706.23C428.075 1697.56 445.546 1698.99 459.481 1703.86C459.912 1699.16 460.856 1694.98 461.455 1690.45C438.601 1686.71 416.915 1689.04 405.416 1701.1C394.158 1712.91 386.781 1740.06 391.996 1757.14C398.096 1777.13 425.478 1778.22 447.642 1770.56C448.623 1766.54 449.142 1762.06 450.01 1757.93C437.897 1764.22 414.742 1767.49 409.358 1753.59V1753.59ZM599.976 1691.23C584.976 1683.73 572.49 1696.32 567.615 1703.86C569.003 1699.99 569.083 1694.81 570.376 1690.84H555.376C551.332 1719.02 546.465 1746.39 540.776 1772.92H558.141C558.25 1762.04 560.387 1754 562.085 1743.32C565.714 1720.54 571.043 1695.56 597.607 1703.07C598.489 1699.22 598.856 1694.85 599.976 1691.23ZM157.176 1690.84C156.716 1690.9 156.747 1691.46 156.776 1692.02C153.037 1719.99 147.976 1746.63 142.569 1772.92H159.538C163.616 1744.77 168.286 1717.21 174.138 1690.83L157.176 1690.84ZM306.354 1689.26C294.092 1690.21 283.727 1693.73 276.361 1701.49C267.326 1711.01 260.011 1732.06 262.154 1751.22C265.213 1778.56 299.254 1777.58 326.481 1770.95C326.945 1766.15 328.107 1762.05 328.848 1757.53C317.633 1761.73 298.158 1767.59 286.619 1760.3C277.909 1754.79 277.858 1740.85 280.699 1728.73C298.999 1728.14 318.018 1728.25 336.344 1728.73C337.506 1720.14 340.832 1710.77 337.922 1702.28C334.088 1691.09 320.343 1688.18 306.356 1689.26H306.354ZM322.534 1719.25H282.674C283.551 1713.86 286.276 1708.95 290.381 1705.35C294.487 1701.75 299.716 1699.69 305.174 1699.52C317.396 1699.05 326.149 1704.01 322.536 1719.25H322.534ZM242.028 1690.84C227.665 1685.44 210.161 1691.88 202.571 1698.01C202.599 1698.28 202.39 1698.32 202.171 1698.34C202.3 1698.23 202.441 1698.12 202.571 1698.01C202.57 1697.99 202.567 1697.96 202.563 1697.94C202.69 1695.31 203.617 1693.47 203.746 1690.84H189.146C183.061 1731.33 175.846 1770.68 168.231 1809.63H185.199C187.655 1794.46 189.277 1778.46 192.699 1764.25C196.574 1779.19 221.88 1776.34 232.559 1770.56C254.589 1758.64 271.583 1701.94 242.028 1690.84ZM228.611 1757.54C219.532 1767.15 197.211 1767.01 195.46 1750.83C194.698 1743.79 197.32 1736.41 198.62 1729.13C199.93 1721.76 200.876 1714.68 202.169 1708.21C211.112 1697.29 237.39 1695.97 240.057 1714.13C242.368 1729.89 236.129 1749.57 228.611 1757.54V1757.54ZM663.119 1655.32C661.665 1668.07 659.719 1680.34 657.201 1692.02C615.574 1678.84 590.046 1709.47 590.506 1747.27C590.596 1754.58 591.855 1761.83 596.424 1767.01C604.306 1775.91 626.866 1778.05 638.259 1770.56C640.503 1768.87 642.495 1766.88 644.177 1764.64C645.277 1763.26 647.018 1759.65 647.335 1760.69C646.735 1764.69 645.835 1768.41 645.758 1772.92H661.149C664.117 1730.37 673.287 1694.03 680.092 1655.32H663.119V1655.32ZM625.234 1763.85C613.81 1764.09 608.134 1757.02 607.868 1745.3C607.413 1724.77 616.419 1701.96 634.706 1699.91C643.22 1698.96 649.385 1700.94 655.623 1703.07C649.894 1726.14 651.961 1763.28 625.234 1763.85ZM478.819 1690.84C477.984 1695.53 476.701 1699.77 475.662 1704.26C485.676 1701.74 516.862 1694.05 519.862 1707.41C520.862 1711.85 519.139 1716.57 517.888 1720.04C489.688 1717.37 466.71 1722.06 460.663 1742.14C456.614 1755.6 461.117 1768.84 469.741 1772.53C486.35 1779.65 506.553 1771.5 513.547 1760.3C512.634 1764.44 512.237 1768.68 512.366 1772.93H526.966C527.122 1758.94 529.157 1747.63 531.307 1735.04C533.14 1724.32 536.589 1713.71 536.044 1704.26C534.787 1682.6 498.904 1690.26 478.818 1690.84L478.819 1690.84ZM506.445 1757.14C497.7 1765.7 473.151 1768.13 475.663 1747.67C477.747 1730.67 496.255 1727.06 516.309 1729.51C514.82 1738.81 513.109 1750.61 506.445 1757.14V1757.14Z" fill="white"/>
<path fill-rule="evenodd" clip-rule="evenodd" d="M1477.13 1952.87C1479.98 1952.87 1482.81 1952.31 1485.45 1951.21C1488.1 1950.12 1490.49 1948.52 1492.52 1946.5C1494.54 1944.47 1496.14 1942.08 1497.23 1939.43C1498.33 1936.79 1498.89 1933.96 1498.89 1931.11V1533.4C1498.89 1527.63 1496.6 1522.09 1492.52 1518.01C1488.43 1513.93 1482.9 1511.63 1477.13 1511.63H810.468C807.609 1511.63 804.777 1512.19 802.135 1513.29C799.493 1514.38 797.092 1515.98 795.07 1518.01C793.048 1520.03 791.444 1522.43 790.35 1525.07C789.256 1527.71 788.694 1530.55 788.694 1533.41V1931.11C788.696 1936.88 790.99 1942.41 795.072 1946.49C799.154 1950.57 804.689 1952.87 810.46 1952.87H1477.13V1952.87Z" fill="#F37421"/>
<path fill-rule="evenodd" clip-rule="evenodd" d="M945.12 1814.23C944.203 1817.58 942.882 1822.06 942.882 1823.69C942.882 1827.06 945.327 1827.67 950.112 1827.67C982.201 1827.67 983.171 1798.29 983.171 1792.07C983.171 1781.78 981.697 1769.26 963.671 1769.26C957.865 1769.26 957.461 1770.78 957.052 1772.21L945.12 1814.23ZM1076.56 1809.54C1097.54 1805.27 1098.05 1793.04 1098.05 1792.23C1098.05 1790.08 1097.03 1788.15 1094.48 1788.15C1088.98 1788.15 1082.06 1795.99 1078.28 1805.06L1076.55 1809.54H1076.56ZM1348.58 1788.01C1337.37 1788.01 1328.61 1808.05 1327.2 1826.14C1327.15 1826.85 1327.2 1829.5 1331.99 1829.5C1345.95 1829.5 1355.62 1808 1355.62 1799.45C1355.62 1796.3 1355.01 1788.01 1348.59 1788.01H1348.58ZM1017.03 1887.91C1038.01 1883.64 1038.52 1871.41 1038.52 1870.6C1038.52 1868.46 1037.5 1866.53 1034.95 1866.53C1029.45 1866.53 1022.52 1874.37 1018.75 1883.44L1017.02 1887.91L1017.03 1887.91ZM1141.1 1905.23C1151.89 1905.23 1161.88 1883.23 1161.88 1873.25C1161.88 1868.37 1159.03 1866.43 1156.07 1866.43C1144.16 1866.43 1134.99 1888.84 1134.99 1898.01C1134.99 1903.4 1138.35 1905.23 1141.1 1905.23V1905.23ZM1230.4 1898.62C1230.4 1904.42 1233.46 1908.08 1238.55 1908.08C1250.16 1908.08 1258.21 1887 1258.21 1876.1C1258.21 1870.81 1255.97 1866.33 1251.08 1866.33C1239.67 1866.33 1230.4 1886.59 1230.4 1898.62V1898.62ZM1325.81 1905.23C1336.61 1905.23 1346.59 1883.23 1346.59 1873.25C1346.59 1868.37 1343.74 1866.43 1340.78 1866.43C1328.86 1866.43 1319.7 1888.84 1319.7 1898.01C1319.7 1903.4 1323.06 1905.23 1325.81 1905.23H1325.81Z" fill="#F37421"/>
<path d="M874.03 1629.67V1793.43H911.181V1724.93H972.195V1793.43H1009.16V1629.67H972.195V1692.64H911.181V1629.67H874.03Z" fill="white"/>
<path d="M1329.01 1745.8C1329.82 1740.97 1330.22 1736.09 1330.23 1731.2C1330.23 1701.81 1315.63 1671.87 1277.26 1671.87C1236 1671.87 1217.28 1705.18 1217.28 1735.31C1217.28 1772.47 1240.39 1795.86 1280.73 1795.86C1296.73 1795.86 1311.61 1793.43 1323.77 1788.56L1318.91 1763.57C1308.29 1766.94 1297.2 1768.59 1286.06 1768.44C1268.84 1768.44 1253.78 1761.14 1252.56 1745.89H1329.02L1329.01 1745.8ZM1252.18 1720.53C1253.12 1710.61 1259.48 1696.48 1275.02 1696.48C1292.05 1696.48 1295.89 1711.55 1295.89 1720.53H1252.18Z" fill="white"/>
<path d="M1342.02 1793.43H1378.98V1733.16C1378.98 1730.4 1379.23 1727.64 1379.73 1724.93C1382.17 1713.51 1391.43 1706.21 1405 1706.21C1408.33 1706.22 1411.65 1706.53 1414.92 1707.15V1672.43C1412.35 1672.02 1409.75 1671.86 1407.15 1671.96C1395.73 1671.96 1381.14 1679.26 1375.05 1696.48H1374.12L1372.9 1674.58H1341.08C1341.55 1684.78 1342.02 1696.2 1342.02 1713.7V1793.42V1793.43Z" fill="white"/>
<path fill-rule="evenodd" clip-rule="evenodd" d="M1046.69 1623.11C1050.45 1623.11 1054.12 1624.23 1057.24 1626.32C1060.37 1628.4 1062.8 1631.37 1064.24 1634.84C1065.68 1638.31 1066.06 1642.14 1065.32 1645.82C1064.59 1649.51 1062.78 1652.89 1060.12 1655.55C1057.47 1658.21 1054.08 1660.02 1050.39 1660.75C1046.71 1661.48 1042.89 1661.11 1039.42 1659.67C1035.94 1658.23 1032.98 1655.79 1030.89 1652.67C1028.8 1649.55 1027.69 1645.87 1027.69 1642.11C1027.69 1637.08 1029.69 1632.24 1033.26 1628.68C1036.82 1625.12 1041.65 1623.12 1046.69 1623.11V1623.11Z" fill="#FFE700"/>
<path fill-rule="evenodd" clip-rule="evenodd" d="M1124.73 1765.73H1143.26C1161.88 1765.73 1170.3 1753.84 1170.3 1741.4C1170.3 1728.95 1169.37 1700.88 1146.44 1700.88C1120.05 1700.88 1124.26 1735.78 1124.45 1754.03C1124.35 1757.96 1124.64 1761.89 1124.73 1765.73V1765.73ZM1027.69 1674.49H1065.68V1741.49C1065.68 1753.93 1072.61 1765.82 1087.86 1765.82C1087.95 1735.69 1087.86 1704.62 1086.83 1674.49H1118.55C1119.21 1680.29 1119.86 1686.09 1120.42 1691.89C1135.4 1661.95 1182.65 1668.5 1198.56 1693.86C1214.94 1719.97 1220.55 1794.83 1143.26 1794.83H1125.29C1125.47 1809.99 1125.47 1825.24 1125.47 1840.5H1087.49C1087.49 1825.9 1087.58 1810.55 1087.67 1794.83C1046.59 1794.64 1027.69 1768.63 1027.69 1741.49V1674.49L1027.69 1674.49Z" fill="white"/>
<path fill-rule="evenodd" clip-rule="evenodd" d="M3054.51 441.552C3057.37 441.552 3060.2 440.989 3062.84 439.895C3065.48 438.801 3067.88 437.198 3069.9 435.177C3071.92 433.156 3073.53 430.756 3074.62 428.115C3075.72 425.475 3076.28 422.644 3076.28 419.786V22.083C3076.28 16.3098 3073.99 10.7727 3069.9 6.68979C3065.82 2.60684 3060.29 0.312361 3054.51 0.311036H2387.86C2385 0.31051 2382.16 0.873417 2379.52 1.9676C2376.88 3.06179 2374.48 4.66581 2372.46 6.68803C2370.44 8.71025 2368.83 11.111 2367.74 13.7533C2366.64 16.3955 2366.08 19.2273 2366.08 22.087V419.787C2366.08 425.559 2368.38 431.093 2372.46 435.174C2376.54 439.254 2382.08 441.547 2387.85 441.548H3054.51V441.552Z" fill="white"/>
<path fill-rule="evenodd" clip-rule="evenodd" d="M2522.51 302.907C2521.59 306.26 2520.27 310.744 2520.27 312.375C2520.27 315.736 2522.72 316.351 2527.5 316.351C2559.59 316.351 2560.56 286.971 2560.56 280.751C2560.56 270.461 2559.09 257.937 2541.06 257.937C2535.25 257.937 2534.85 259.461 2534.44 260.889L2522.51 302.907ZM2653.94 298.22C2674.93 293.946 2675.44 281.72 2675.44 280.906C2675.44 278.759 2674.42 276.826 2671.87 276.826C2666.37 276.826 2659.44 284.672 2655.67 293.74L2653.94 298.22H2653.94ZM2925.97 276.694C2914.76 276.694 2906 296.729 2904.59 314.816C2904.53 315.535 2904.59 318.177 2909.37 318.177C2923.33 318.177 2933.01 296.684 2933.01 288.128C2933.01 284.977 2932.39 276.694 2925.97 276.694H2925.97ZM2594.42 376.594C2615.4 372.32 2615.9 360.094 2615.9 359.28C2615.9 357.141 2614.89 355.209 2612.34 355.209C2606.84 355.209 2599.91 363.055 2596.14 372.123L2594.41 376.595L2594.42 376.594ZM2718.49 393.912C2729.28 393.912 2739.27 371.912 2739.27 361.935C2739.27 357.046 2736.41 355.113 2733.46 355.113C2721.54 355.113 2712.38 377.519 2712.38 386.686C2712.38 392.079 2715.73 393.912 2718.49 393.912V393.912ZM2807.79 387.297C2807.79 393.097 2810.84 396.765 2815.93 396.765C2827.55 396.765 2835.6 375.685 2835.6 364.78C2835.6 359.49 2833.36 355.006 2828.47 355.006C2817.05 355.006 2807.79 375.273 2807.79 387.297V387.297ZM2903.2 393.912C2914 393.912 2923.98 371.912 2923.98 361.935C2923.98 357.046 2921.12 355.113 2918.17 355.113C2906.25 355.113 2897.08 377.519 2897.08 386.686C2897.08 392.079 2900.45 393.912 2903.2 393.912H2903.2Z" fill="white"/>
<path d="M2976.83 337.94C2976.83 348.356 2974.78 358.671 2970.8 368.294C2966.81 377.917 2960.97 386.661 2953.6 394.027C2946.24 401.392 2937.49 407.235 2927.87 411.22C2918.25 415.206 2907.93 417.258 2897.52 417.257H2466.9V103.736C2466.9 93.3187 2468.95 83.0032 2472.94 73.3786C2476.92 63.7539 2482.77 55.0086 2490.13 47.6422C2497.5 40.2758 2506.24 34.4324 2515.87 30.4459C2525.49 26.4593 2535.81 24.4077 2546.22 24.4081H2976.82V337.939L2976.83 337.94Z" fill="white"/>
<path d="M2836.45 227.71C2848.75 227.976 2861.12 227.167 2873.37 228.131C2885.77 230.446 2888.77 249.231 2877.74 255.378C2870.22 259.431 2861.29 256.886 2853.13 257.602H2836.45L2836.45 227.71ZM2880.48 193.877C2883.21 203.522 2873.91 212.182 2864.62 210.854H2836.45C2836.64 201.754 2836.06 191.887 2836.73 183.27C2848.02 183.587 2859.41 182.622 2870.63 183.77C2873.05 184.374 2875.25 185.639 2876.99 187.423C2878.73 189.207 2879.93 191.439 2880.48 193.87L2880.48 193.877ZM2948.29 50.8461C2948.81 69.2661 2948.36 88.6601 2948.51 107.453C2948.48 183.861 2948.59 260.267 2948.46 336.679C2947.96 365.315 2922.58 390.193 2894.15 390.764C2865.68 390.881 2837.21 390.781 2808.75 390.813V275.296C2839.76 275.134 2870.8 275.619 2901.81 275.052C2916.19 274.152 2931.94 264.658 2932.61 248.83C2934.31 232.93 2919.31 221.937 2905.09 220.201C2899.62 220.059 2899.78 218.601 2905.09 217.973C2918.66 215.04 2929.32 200.993 2925.32 186.925C2921.92 172.125 2905.57 166.402 2891.96 166.431C2864.23 166.242 2836.49 166.404 2808.75 166.35C2808.93 144.785 2808.38 123.197 2809.05 101.65C2811.25 73.5311 2837.26 50.3431 2865.3 50.8501H2948.29L2948.29 50.8461Z" fill="url(#paint0_linear)"/>
<path d="M2495.31 104.568C2496.02 75.9791 2521.51 51.2991 2549.91 50.8831C2578.27 50.7961 2606.63 50.8701 2634.99 50.8451C2634.91 146.502 2635.15 242.17 2634.87 337.822C2633.78 366.066 2608.57 390.274 2580.48 390.771C2552.07 390.871 2523.65 390.786 2495.24 390.815V271.408C2522.84 277.927 2551.78 280.708 2579.94 276.377C2596.77 273.668 2615.18 265.406 2620.88 247.945C2625.08 233.009 2622.71 217.29 2623.34 201.96V166.36H2574.61C2574.39 189.904 2575.06 213.49 2574.25 237.01C2572.94 251.465 2558.63 260.649 2544.99 260.159C2528.08 260.338 2494.58 247.909 2494.58 247.909C2494.5 203.79 2495.07 148.543 2495.31 104.578L2495.31 104.568Z" fill="url(#paint1_linear)"/>
<path d="M2653.16 180.716C2650.6 181.26 2652.65 171.979 2651.99 168.458C2652.17 146.197 2651.63 123.913 2652.29 101.668C2654.49 73.4301 2680.7 50.1831 2708.85 50.8441H2791.75C2791.68 146.5 2791.91 242.169 2791.64 337.821C2790.54 366.064 2765.34 390.271 2737.24 390.771C2708.83 390.876 2680.41 390.787 2651.99 390.816V259.99C2671.4 275.912 2697.78 278.39 2721.96 278.434C2740.18 278.428 2758.3 275.62 2776 271.414V247.446C2756.05 257.388 2732.6 263.703 2710.49 257.991C2695.07 254.149 2683.87 239.244 2684.12 223.324C2682.33 206.77 2692.04 189.291 2708.31 184.37C2728.51 178.047 2750.52 182.883 2769.45 191.103C2773.51 193.228 2777.63 195.861 2776 189.081V170.246C2744.34 162.714 2710.64 159.94 2678.83 168.137C2669.62 170.737 2660.65 174.675 2653.17 180.723L2653.16 180.716Z" fill="url(#paint2_linear)"/>
<path fill-rule="evenodd" clip-rule="evenodd" d="M2265.82 441.551C2268.68 441.551 2271.51 440.988 2274.15 439.894C2276.79 438.8 2279.19 437.197 2281.21 435.176C2283.23 433.155 2284.83 430.755 2285.93 428.114C2287.02 425.474 2287.58 422.643 2287.58 419.785V22.0821C2287.59 16.3088 2285.29 10.7718 2281.21 6.68882C2277.13 2.60586 2271.59 0.311385 2265.82 0.310059H1599.16C1596.3 0.309533 1593.47 0.872441 1590.83 1.96663C1588.19 3.06081 1585.79 4.66483 1583.76 6.68705C1581.74 8.70927 1580.14 11.1101 1579.04 13.7523C1577.95 16.3945 1577.39 19.2263 1577.39 22.0861V419.786C1577.39 425.558 1579.68 431.092 1583.77 435.173C1587.85 439.254 1593.38 441.546 1599.15 441.547H2265.82V441.551Z" fill="#4D4D4D"/>
<path fill-rule="evenodd" clip-rule="evenodd" d="M1733.81 302.906C1732.9 306.259 1731.58 310.743 1731.58 312.374C1731.58 315.735 1734.02 316.35 1738.81 316.35C1770.9 316.35 1771.87 286.97 1771.87 280.75C1771.87 270.46 1770.39 257.936 1752.37 257.936C1746.56 257.936 1746.16 259.46 1745.75 260.888L1733.81 302.906ZM1865.25 298.219C1886.23 293.945 1886.74 281.719 1886.74 280.905C1886.74 278.758 1885.72 276.825 1883.17 276.825C1877.67 276.825 1870.75 284.671 1866.97 293.739L1865.24 298.219H1865.25ZM2137.28 276.693C2126.07 276.693 2117.3 296.728 2115.9 314.815C2115.84 315.534 2115.9 318.176 2120.68 318.176C2134.64 318.176 2144.31 296.683 2144.31 288.127C2144.31 284.976 2143.7 276.693 2137.28 276.693H2137.28ZM1805.72 376.593C1826.7 372.319 1827.21 360.093 1827.21 359.279C1827.21 357.14 1826.19 355.208 1823.65 355.208C1818.15 355.208 1811.22 363.054 1807.45 372.122L1805.72 376.594L1805.72 376.593ZM1929.79 393.911C1940.59 393.911 1950.57 371.911 1950.57 361.934C1950.57 357.045 1947.72 355.112 1944.77 355.112C1932.85 355.112 1923.68 377.518 1923.68 386.685C1923.68 392.078 1927.04 393.911 1929.79 393.911V393.911ZM2019.09 387.296C2019.09 393.096 2022.15 396.764 2027.24 396.764C2038.85 396.764 2046.91 375.684 2046.91 364.779C2046.91 359.489 2044.66 355.005 2039.77 355.005C2028.36 355.005 2019.09 375.272 2019.09 387.296V387.296ZM2114.5 393.911C2125.3 393.911 2135.28 371.911 2135.28 361.934C2135.28 357.045 2132.43 355.112 2129.48 355.112C2117.56 355.112 2108.39 377.518 2108.39 386.685C2108.39 392.078 2111.75 393.911 2114.5 393.911H2114.5Z" fill="#4D4D4D"/>
<path fill-rule="evenodd" clip-rule="evenodd" d="M2265.82 441.547C2268.68 441.547 2271.51 440.984 2274.15 439.89C2276.79 438.796 2279.19 437.193 2281.21 435.172C2283.23 433.151 2284.83 430.751 2285.93 428.111C2287.02 425.47 2287.58 422.639 2287.58 419.781V244.272C2287.58 243.535 2281.19 250.243 2274.53 252.123C2218.97 267.747 1982.29 378.97 1882.93 417.257C1866.16 423.718 1752.82 441.547 1752.82 441.547H2265.82H2265.82Z" fill="#F47216"/>
<path fill-rule="evenodd" clip-rule="evenodd" d="M1647.28 23.4081H1599.41V441.552L1839.73 428.921L2178.74 424.677C2253.04 424.677 2278.38 420.995 2278.38 395.645V23.4081H1647.28Z" fill="#4D4D4D"/>
<path fill-rule="evenodd" clip-rule="evenodd" d="M1884.99 140.639C1892.66 140.639 1899.1 142.189 1906.94 145.929V165.693C1899.52 158.862 1893.08 156.003 1884.56 156.003C1880.65 155.946 1876.76 156.67 1873.13 158.132C1869.5 159.595 1866.19 161.766 1863.41 164.52C1860.62 167.274 1858.42 170.555 1856.91 174.172C1855.41 177.788 1854.65 181.667 1854.66 185.583C1854.66 203.022 1867.42 215.29 1885.39 215.29C1893.48 215.29 1899.8 212.58 1906.93 205.858V225.633C1898.82 229.233 1892.24 230.651 1884.56 230.651C1857.39 230.651 1836.27 211.022 1836.27 185.706C1836.27 160.665 1857.95 140.639 1884.98 140.639H1884.99ZM1800.62 141.184C1810.43 141.09 1819.95 144.474 1827.5 150.735L1818.17 162.246C1813.52 157.346 1809.12 155.272 1803.78 155.272C1796.09 155.272 1790.49 159.394 1790.49 164.818C1790.49 169.469 1793.63 171.931 1804.34 175.661C1824.64 182.649 1830.65 188.845 1830.65 202.527C1830.65 219.2 1817.64 230.806 1799.1 230.806C1785.52 230.806 1775.65 225.772 1767.43 214.412L1778.95 203.961C1780.79 207.514 1783.59 210.477 1787.04 212.508C1790.49 214.54 1794.44 215.558 1798.43 215.446C1806.39 215.446 1812.29 210.275 1812.29 203.298C1812.29 199.681 1810.5 196.579 1806.94 194.387C1805.14 193.349 1801.59 191.801 1794.6 189.481C1777.84 183.801 1772.09 177.73 1772.09 165.865C1772.09 151.769 1784.43 141.184 1800.62 141.184V141.184ZM2004.53 142.684H2024.02L2048.42 200.533L2073.13 142.685H2092.48L2052.96 231.021H2043.36L2004.53 142.685L2004.53 142.684ZM1659.35 142.816H1685.54C1714.48 142.816 1734.65 160.522 1734.65 185.94C1734.57 192.349 1733.03 198.656 1730.16 204.384C1727.28 210.112 1723.14 215.11 1718.04 219.001C1709.26 225.865 1699.26 228.944 1685.4 228.944H1659.35V142.817L1659.35 142.816ZM1742.86 142.816H1760.71V228.946H1742.86L1742.86 142.816ZM2100.54 142.816H2151.14V157.41H2118.37V176.526H2149.93V191.113H2118.37V214.361H2151.15V228.946H2100.55V142.817L2100.54 142.816ZM2162.97 142.816H2189.42C2210 142.816 2221.8 152.116 2221.8 168.245C2221.8 181.432 2214.4 190.084 2200.96 192.66L2229.76 228.943H2207.81L2183.11 194.343H2180.78V228.943H2162.97L2162.97 142.816ZM2180.79 156.382V182.466H2186C2197.4 182.466 2203.44 177.808 2203.44 169.15C2203.44 160.769 2197.4 156.383 2186.28 156.383H2180.78L2180.79 156.382ZM1677.18 157.41V214.362H1681.97C1693.5 214.362 1700.78 212.282 1706.39 207.517C1709.49 204.817 1711.98 201.482 1713.68 197.739C1715.39 193.996 1716.27 189.93 1716.27 185.817C1716.27 181.742 1715.38 177.716 1713.68 174.015C1711.97 170.314 1709.48 167.025 1706.39 164.376C1700.49 159.355 1693.5 157.411 1681.97 157.411L1677.18 157.41Z" fill="white"/>
<path fill-rule="evenodd" clip-rule="evenodd" d="M1961.41 140.048C1988.29 140.048 2010.08 160.532 2010.08 185.837V185.866C2010.08 211.172 1988.29 231.684 1961.41 231.684C1934.54 231.684 1912.75 211.171 1912.75 185.866V185.837C1912.75 160.531 1934.54 140.047 1961.41 140.047L1961.41 140.048ZM2278.37 250.5C2255.74 266.426 2086.31 380.236 1792.97 435.211H2278.37L2281.94 428L2284.52 248.683L2278.36 254.088V250.5H2278.37Z" fill="#F47216"/>
<path fill-rule="evenodd" clip-rule="evenodd" d="M1477.13 441.552C1479.98 441.552 1482.81 440.989 1485.45 439.895C1488.1 438.801 1490.49 437.198 1492.52 435.177C1494.54 433.156 1496.14 430.756 1497.23 428.115C1498.33 425.475 1498.89 422.644 1498.89 419.786V22.083C1498.89 16.3098 1496.6 10.7727 1492.52 6.68979C1488.43 2.60684 1482.9 0.312361 1477.13 0.311036H810.468C807.609 0.31051 804.777 0.873417 802.135 1.9676C799.493 3.06179 797.092 4.66581 795.07 6.68803C793.048 8.71025 791.444 11.111 790.35 13.7533C789.256 16.3955 788.694 19.2273 788.694 22.087V419.787C788.696 425.559 790.99 431.093 795.072 435.174C799.154 439.254 804.689 441.547 810.46 441.548H1477.13V441.552Z" fill="#DB812E"/>
<path fill-rule="evenodd" clip-rule="evenodd" d="M945.12 302.907C944.203 306.26 942.882 310.744 942.882 312.375C942.882 315.736 945.327 316.351 950.112 316.351C982.201 316.351 983.171 286.971 983.171 280.751C983.171 270.461 981.697 257.937 963.671 257.937C957.865 257.937 957.461 259.461 957.052 260.889L945.12 302.907ZM1076.56 298.22C1097.54 293.946 1098.05 281.72 1098.05 280.906C1098.05 278.759 1097.03 276.826 1094.48 276.826C1088.98 276.826 1082.06 284.672 1078.28 293.74L1076.55 298.22H1076.56ZM1348.58 276.694C1337.37 276.694 1328.61 296.729 1327.2 314.816C1327.15 315.535 1327.2 318.177 1331.99 318.177C1345.95 318.177 1355.62 296.684 1355.62 288.128C1355.62 284.977 1355.01 276.694 1348.59 276.694H1348.58ZM1017.03 376.594C1038.01 372.32 1038.52 360.094 1038.52 359.28C1038.52 357.141 1037.5 355.209 1034.95 355.209C1029.45 355.209 1022.52 363.055 1018.75 372.123L1017.02 376.595L1017.03 376.594ZM1141.1 393.912C1151.89 393.912 1161.88 371.912 1161.88 361.935C1161.88 357.046 1159.03 355.113 1156.07 355.113C1144.16 355.113 1134.99 377.519 1134.99 386.686C1134.99 392.079 1138.35 393.912 1141.1 393.912V393.912ZM1230.4 387.297C1230.4 393.097 1233.46 396.765 1238.55 396.765C1250.16 396.765 1258.21 375.685 1258.21 364.78C1258.21 359.49 1255.97 355.006 1251.08 355.006C1239.67 355.006 1230.4 375.273 1230.4 387.297V387.297ZM1325.81 393.912C1336.61 393.912 1346.59 371.912 1346.59 361.935C1346.59 357.046 1343.74 355.113 1340.78 355.113C1328.86 355.113 1319.7 377.519 1319.7 386.686C1319.7 392.079 1323.06 393.912 1325.81 393.912H1325.81Z" fill="#DB812E"/>
<path fill-rule="evenodd" clip-rule="evenodd" d="M1035.5 45.615L1256.41 45.756C1273.18 45.8295 1289.22 52.5403 1301.05 64.4195C1312.87 76.2987 1319.51 92.3788 1319.51 109.14V330.054C1319.44 346.83 1312.74 362.899 1300.86 374.748C1288.99 386.598 1272.9 393.265 1256.13 393.294L1035.07 393.15C1018.3 393.059 1002.25 386.348 990.406 374.477C978.561 362.607 971.886 346.538 971.832 329.769L972.117 108.856C972.117 74.102 1000.6 45.475 1035.5 45.616V45.615Z" fill="#33348E"/>
<path fill-rule="evenodd" clip-rule="evenodd" d="M1270.66 204.144H1245.44L1235.04 223.944H1252.71L1270.66 204.144H1270.66ZM1287.32 236.334H1262.82V289.317C1262.82 305.556 1251.86 310.117 1243.88 310.117C1236.18 310.117 1227.78 307.265 1227.93 293.166V236.334H1203.29L1203.14 296.722C1203.14 320.081 1216.53 330.482 1235.04 330.482C1247.87 330.623 1257.83 324.926 1263.39 315.095H1263.67V327.915H1287.31V236.334H1287.32ZM1184.06 260.546C1184.06 237.898 1160.27 233.771 1147.02 233.771C1127.79 233.771 1108 237.901 1105 265.958H1128.79C1129.5 260.546 1131.78 253.141 1144.03 253.141C1150.3 253.141 1160.26 253.711 1160.26 263.821C1160.26 268.948 1155.42 270.515 1151.44 271.085L1129.36 274.362C1113.69 276.496 1102.01 285.756 1102.01 303.701C1102.01 322.645 1116.54 330.479 1130.5 330.479C1147.3 330.479 1155.28 322.786 1160.7 317.232C1161.03 320.883 1161.84 324.474 1163.12 327.912L1184.2 327.771C1184.2 317.655 1184.05 310.25 1184.05 310.109V260.546H1184.06H1184.06ZM1079.37 204.146H1054.87V236.192H1042.19V253.425H1054.73V309.116C1054.73 320.937 1058.57 329.059 1079.79 329.059H1083.07C1086.91 329.059 1090.9 328.774 1094.61 328.63V310.254C1092.9 310.398 1091.05 310.683 1089.48 310.683C1079.51 310.683 1079.22 308.69 1079.22 303.134L1079.37 253.423H1094.75V236.19H1079.37V204.146ZM1030.8 204.002H1004.31L1004.16 327.777H1030.66L1030.8 204.002Z" fill="#FFF22D"/>
<path fill-rule="evenodd" clip-rule="evenodd" d="M1160.27 295.156V283.335C1157.71 285.187 1153.58 286.754 1143.46 288.177C1134.21 289.747 1126.66 292.166 1126.66 302.138C1126.66 310.399 1133.49 313.103 1138.2 313.103C1149.02 313.103 1160.27 306.265 1160.27 295.156Z" fill="#33348E"/>
<path fill-rule="evenodd" clip-rule="evenodd" d="M688.431 441.552C691.289 441.552 694.12 440.989 696.76 439.895C699.401 438.801 701.8 437.198 703.822 435.177C705.843 433.156 707.446 430.756 708.54 428.115C709.633 425.475 710.196 422.644 710.196 419.786V22.083C710.197 16.3098 707.904 10.7727 703.822 6.68979C699.741 2.60684 694.204 0.312361 688.431 0.311036H21.774C18.9143 0.31051 16.0825 0.873417 13.4404 1.9676C10.7983 3.06179 8.39761 4.66581 6.37558 6.68803C4.35355 8.71025 2.74975 11.111 1.6558 13.7533C0.561861 16.3955 -0.000787384 19.2273 8.27003e-07 22.087V419.787C0.0021218 425.559 2.29616 431.093 6.37776 435.174C10.4594 439.254 15.9944 441.547 21.766 441.548H688.431V441.552Z" fill="white"/>
<path d="M158.102 54.3981H137.412C136.017 54.3981 134.887 56.0011 134.887 57.9781V400.259C134.887 402.236 136.017 403.839 137.412 403.839H158.102C159.496 403.839 160.627 402.239 160.627 400.259V57.9781C160.627 56.0011 159.495 54.3981 158.102 54.3981Z" fill="black"/>
<path d="M217.613 294.997H235.256C237.634 294.997 239.563 293.665 239.563 292.021V57.3741C239.563 55.7311 237.635 54.3981 235.256 54.3981H217.613C215.235 54.3981 213.306 55.7301 213.306 57.3741V292.022C213.306 293.665 215.235 294.997 217.613 294.997Z" fill="black"/>
<path d="M284.269 294.997H307.14C309.518 294.997 311.446 293.665 311.446 292.021V57.3741C311.446 55.7311 309.518 54.3981 307.14 54.3981H284.269C281.891 54.3981 279.962 55.7301 279.962 57.3741V292.022C279.962 293.665 281.891 294.997 284.269 294.997Z" fill="black"/>
<path d="M345.044 294.997H367.262C369.64 294.997 371.568 293.665 371.568 292.021V57.3741C371.568 55.7311 369.64 54.3981 367.262 54.3981H345.044C342.666 54.3981 340.738 55.7301 340.738 57.3741V292.022C340.738 293.665 342.666 294.997 345.044 294.997Z" fill="black"/>
<path d="M399.667 294.997H434.956C437.334 294.997 439.262 293.665 439.262 292.021V57.3741C439.262 55.7311 437.334 54.3981 434.956 54.3981H399.667C397.289 54.3981 395.361 55.7301 395.361 57.3741V292.022C395.359 293.665 397.288 294.997 399.667 294.997Z" fill="black"/>
<path d="M485.739 294.997H509.264C511.642 294.997 513.57 293.665 513.57 292.021V57.3741C513.57 55.7311 511.642 54.3981 509.264 54.3981H485.739C483.361 54.3981 481.433 55.7301 481.433 57.3741V292.022C481.433 293.665 483.361 294.997 485.739 294.997Z" fill="black"/>
<path d="M569.843 54.3981H534.554C532.176 54.3981 530.248 55.9981 530.248 57.9781V400.259C530.248 402.236 532.176 403.839 534.554 403.839H569.843C572.221 403.839 574.149 402.239 574.149 400.259V57.9781C574.15 56.0011 572.222 54.3981 569.843 54.3981Z" fill="black"/>
<path d="M176.407 294.997H186.545C187.265 294.925 187.928 294.572 188.391 294.016C188.853 293.459 189.079 292.743 189.019 292.022V57.3741C189.079 56.6525 188.854 55.9362 188.391 55.3795C187.928 54.8228 187.264 54.4703 186.544 54.3981H176.407C175.687 54.4703 175.023 54.8228 174.56 55.3795C174.097 55.9362 173.872 56.6525 173.932 57.3741V292.022C173.872 292.743 174.098 293.459 174.561 294.016C175.024 294.572 175.687 294.925 176.407 294.997V294.997Z" fill="black"/>
<path d="M254.532 294.997H263.237C264.142 294.997 264.876 293.665 264.876 292.021V57.3741C264.876 55.7311 264.142 54.3981 263.237 54.3981H254.532C253.627 54.3981 252.893 55.7301 252.893 57.3741V292.022C252.893 293.665 253.627 294.997 254.532 294.997Z" fill="black"/>
<path d="M455.528 294.997H464.576C465.186 294.997 465.676 293.665 465.676 292.021V57.3741C465.676 55.7311 465.182 54.3981 464.576 54.3981H455.528C454.918 54.3981 454.428 55.7301 454.428 57.3741V292.022C454.42 293.665 454.915 294.997 455.528 294.997Z" fill="black"/>
<path d="M228.793 344.821C232.151 345.551 234.73 347.011 236.531 349.201C238.38 351.342 239.305 354.116 239.305 357.523C239.305 361.903 237.675 365.285 234.414 367.67C231.202 370.006 226.433 371.174 220.106 371.174H196.6V320.074H218.646C224.34 320.074 228.744 321.218 231.859 323.505C235.022 325.792 236.604 329.029 236.604 333.214C236.604 336.037 235.898 338.446 234.487 340.441C233.124 342.388 231.226 343.848 228.793 344.821ZM202.002 324.527V343.069H218.281C222.418 343.069 225.605 342.29 227.844 340.733C230.083 339.127 231.202 336.815 231.202 333.798C231.202 330.781 230.083 328.493 227.844 326.936C225.605 325.33 222.418 324.527 218.281 324.527H202.002ZM220.033 366.721C224.608 366.721 228.063 365.942 230.399 364.385C232.735 362.828 233.903 360.394 233.903 357.085C233.903 350.71 229.28 347.522 220.033 347.522H202.002V366.721H220.033ZM273.973 371.612C268.912 371.612 264.313 370.493 260.176 368.254C256.088 365.967 252.876 362.852 250.54 358.91C248.253 354.968 247.109 350.539 247.109 345.624C247.109 340.709 248.253 336.28 250.54 332.338C252.876 328.396 256.088 325.306 260.176 323.067C264.313 320.78 268.912 319.636 273.973 319.636C279.034 319.636 283.585 320.755 287.624 322.994C291.712 325.233 294.924 328.347 297.26 332.338C299.596 336.28 300.764 340.709 300.764 345.624C300.764 350.539 299.596 354.992 297.26 358.983C294.924 362.925 291.712 366.015 287.624 368.254C283.585 370.493 279.034 371.612 273.973 371.612ZM273.973 366.794C278.012 366.794 281.662 365.894 284.923 364.093C288.184 362.244 290.739 359.713 292.588 356.501C294.437 353.24 295.362 349.615 295.362 345.624C295.362 341.633 294.437 338.032 292.588 334.82C290.739 331.559 288.184 329.029 284.923 327.228C281.662 325.379 278.012 324.454 273.973 324.454C269.934 324.454 266.259 325.379 262.95 327.228C259.689 329.029 257.11 331.559 255.212 334.82C253.363 338.032 252.438 341.633 252.438 345.624C252.438 349.615 253.363 353.24 255.212 356.501C257.11 359.713 259.689 362.244 262.95 364.093C266.259 365.894 269.934 366.794 273.973 366.794ZM312.872 320.074H318.274V366.502H346.89V371.174H312.872V320.074ZM391.995 366.502V371.174H355.86V320.074H390.9V324.746H361.262V342.923H387.688V347.522H361.262V366.502H391.995ZM414.621 324.746H396.663V320.074H437.981V324.746H420.023V371.174H414.621V324.746ZM468.236 371.612C463.174 371.612 458.575 370.493 454.439 368.254C450.351 365.967 447.139 362.852 444.803 358.91C442.515 354.968 441.372 350.539 441.372 345.624C441.372 340.709 442.515 336.28 444.803 332.338C447.139 328.396 450.351 325.306 454.439 323.067C458.575 320.78 463.174 319.636 468.236 319.636C473.297 319.636 477.847 320.755 481.887 322.994C485.975 325.233 489.187 328.347 491.523 332.338C493.859 336.28 495.027 340.709 495.027 345.624C495.027 350.539 493.859 354.992 491.523 358.983C489.187 362.925 485.975 366.015 481.887 368.254C477.847 370.493 473.297 371.612 468.236 371.612ZM468.236 366.794C472.275 366.794 475.925 365.894 479.186 364.093C482.446 362.244 485.001 359.713 486.851 356.501C488.7 353.24 489.625 349.615 489.625 345.624C489.625 341.633 488.7 338.032 486.851 334.82C485.001 331.559 482.446 329.029 479.186 327.228C475.925 325.379 472.275 324.454 468.236 324.454C464.196 324.454 460.522 325.379 457.213 327.228C453.952 329.029 451.373 331.559 449.475 334.82C447.625 338.032 446.701 341.633 446.701 345.624C446.701 349.615 447.625 353.24 449.475 356.501C451.373 359.713 453.952 362.244 457.213 364.093C460.522 365.894 464.196 366.794 468.236 366.794Z" fill="black"/>
</g>
<defs>
<linearGradient id="paint0_linear" x1="2399.79" y1="636.969" x2="2400.91" y2="636.969" gradientUnits="userSpaceOnUse">
<stop stop-color="#007B40"/>
<stop offset="1" stop-color="#55B330"/>
</linearGradient>
<linearGradient id="paint1_linear" x1="2399.78" y1="636.968" x2="2400.9" y2="636.968" gradientUnits="userSpaceOnUse">
<stop stop-color="#1D2970"/>
<stop offset="1" stop-color="#006DBA"/>
</linearGradient>
<linearGradient id="paint2_linear" x1="2399.8" y1="636.979" x2="2400.78" y2="636.979" gradientUnits="userSpaceOnUse">
<stop stop-color="#6E2B2F"/>
<stop offset="1" stop-color="#E30138"/>
</linearGradient>
<clipPath id="clip0">
<rect width="3076.28" height="1953.32" fill="white"/>
</clipPath>
</defs>
</svg>
