<svg width="28" height="19" viewBox="0 0 28 19" fill="none" xmlns="http://www.w3.org/2000/svg">
<path id="Vector" d="M27.05 6.55998L24.55 1.63998C24.33 1.19998 23.89 0.919983 23.43 0.919983H4.24C3.77 0.919983 3.34 1.18998 3.12 1.63998L0.620003 6.55998C0.490003 6.81998 0.500032 7.13998 0.650032 7.37998C0.790032 7.60998 1.02999 7.74998 1.28999 7.74998H3.32001V17.64C3.32001 18.34 3.85001 18.91 4.50001 18.91H23.16C23.81 18.91 24.34 18.34 24.34 17.64V13.39C24.34 13.17 24.16 12.99 23.94 12.99C23.72 12.99 23.54 13.17 23.54 13.39V17.64C23.54 17.89 23.37 18.11 23.17 18.11H14.24V3.00998L16.35 7.15998C16.53 7.51998 16.89 7.74998 17.27 7.74998H23.54V11.51C23.54 11.73 23.72 11.91 23.94 11.91C24.16 11.91 24.34 11.73 24.34 11.51V7.74998H26.37C26.63 7.74998 26.87 7.60998 27.01 7.37998C27.16 7.12998 27.17 6.81998 27.04 6.55998H27.05ZM1.33002 6.93998C1.33002 6.93998 1.33002 6.92998 1.33002 6.91998L3.83002 1.99998C3.92002 1.82998 4.06999 1.71998 4.22999 1.71998H13.17C12.86 2.32998 11.01 5.95998 10.6 6.77998C10.55 6.86998 10.48 6.92998 10.4 6.92998H1.33002V6.93998ZM13.43 18.11H4.50001C4.30001 18.11 4.13001 17.9 4.13001 17.64V7.74998H10.4C10.79 7.74998 11.14 7.51998 11.32 7.15998L13.43 3.00998V18.11ZM17.27 6.93998C17.19 6.93998 17.11 6.87998 17.07 6.78998L14.5 1.72998H23.44C23.6 1.72998 23.76 1.83998 23.84 2.00998L26.34 6.92998C26.34 6.92998 26.34 6.93998 26.34 6.94998C26.09 6.94998 17.5 6.94998 17.27 6.94998V6.93998Z" fill="#6950A2"/>
</svg>
