<svg xmlns="http://www.w3.org/2000/svg" width="540.111" height="143" viewBox="0 0 540.111 143">
  <g id="Grupo_122" data-name="Grupo 122" transform="translate(-11067.112 468)">
    <g id="geotrust-1" transform="translate(11253 -495)">
      <path id="Caminho_161" data-name="Caminho 161" d="M92.768,112.8h-18V101.4h52.715V112.8H109.064v47.416h-16.3Z" transform="translate(79.104 0.664)" fill="#fff" fill-rule="evenodd"/>
      <path id="Caminho_162" data-name="Caminho 162" d="M212.422,127.639h.155c1.793-6.763,6.845-9.043,13.686-8.88v13.115c-1.14-.078-2.2-.078-3.257-.078-8.059.078-10.839,4.888-10.585,12.705v16.38H196.936V130.488a98.769,98.769,0,0,0-.491-10.507h15.723l.254,7.658Zm46.555,28.76a15.612,15.612,0,0,1-12.783,5.7c-8.8,0-15.322-5.7-15.322-14.746v-27.37h15.477v24.031c.164,3.994,1.14,8.309,5.951,8.309,7.66,0,6.677-8.386,6.677-8.88V119.982h15.485v30.385a100.45,100.45,0,0,0,.483,10.515H259.222l-.246-4.483ZM304.99,132.6a5.026,5.026,0,0,0-.976-3.42,5.427,5.427,0,0,0-4.241-1.463,3.347,3.347,0,0,0-3.666,3.666c0,3.015,6.27,2.849,15.968,5.864,4.888,1.545,8.227,4.561,8.227,11.242,0,10.839-10.179,13.606-19.55,13.606-10.022,0-19.8-2.039-19.714-14.5H295.7a4.472,4.472,0,0,0,1.058,3.666,4.926,4.926,0,0,0,3.666,1.871c3.015,0,5.216-1.14,5.216-3.744,0-7.246-24.195-2.931-24.195-17.757,0-10.1,10.753-12.873,18.9-12.873,9.69,0,18.656,2.526,19.311,13.846H304.99v0Zm24.8-11.941v-6.192l15.473-5.864v12.057h8.966v9.776h-8.966v16.212c0,1.058-.649,6.352,2.935,6.352a47.034,47.034,0,0,0,5.951-.241v9.2a43.278,43.278,0,0,1-8.309.821c-10.511,0-16.867-1.464-16.052-14.013V130.44H321.8v-9.776h7.983ZM45.936,138.885H33.955v-11.41H62.232v31.447c-13.2,1.961-15.729,3.179-29.9,3.179C14,161.528,2.835,149.881,2.835,131.471S14,101.407,32.33,100.836c14.255-.409,29.249,1.709,29.495,18.82h-16.3c-.813-5.7-5.293-7.414-10.669-7.414-11,0-14.912,9.694-14.912,19.229,0,11.569,5.787,19.225,17.507,19.225a44.388,44.388,0,0,0,8.481-.976V138.885Zm37.121-3.666c.409-4.647,1.713-8.472,7.091-8.722A5.871,5.871,0,0,1,95.52,129.1a10.63,10.63,0,0,1,1.877,6.114Zm29,8.309c0-15.231-5.3-24.766-21.91-24.766-12.3,0-22,7.332-22,20.283,0,16.052,6.52,23.055,22.891,23.055,4.806,0,9.371-.9,12.957-3.179,3.905-2.284,7.244-6.11,7.737-11.406H97.4c-.571,3.83-3.261,5.864-7.574,5.864-5.791,0-7.171-4.565-7.087-9.854h29.32v0Zm21.289-3.1c0-5.778,1.388-12.705,7.9-12.705s7.9,6.927,7.9,12.705-1.388,12.71-7.9,12.71S133.347,146.217,133.347,140.426Zm7.9-21.665c-12.789,0-23.788,6.6-23.788,21.665s11,21.673,23.788,21.673,23.788-6.6,23.788-21.673-11-21.665-23.788-21.665Z" fill="#fff" fill-rule="evenodd"/>
    </g>
    <g id="Grupo_121" data-name="Grupo 121" transform="translate(0 68)">
      <path id="Caminho_163" data-name="Caminho 163" d="M147.949,45.6c14.129-9.632,29.161-13.384,41.622-11.551V11.625H83.112V119.086h36.4q-.648-1.124-1.2-2.3C108.22,95.515,121.5,63.642,147.949,45.6Z" transform="translate(10984 -541)" fill="#fff" fill-rule="evenodd"/>
      <path id="Caminho_164" data-name="Caminho 164" d="M167.33,32.663a50.87,50.87,0,0,0-49.984,60.2c1.275,5.483,4.19,7.191,6.9,8.354a12.255,12.255,0,0,0,3.146.879,26.96,26.96,0,0,0,16.3-4.22C150.9,93.39,156.234,86.09,159.1,77.8q-13.005,1.5-25.872,3.966l.168-15.938,57.1-3.818-.4,53.864-17.257,1.163c0-.028.016-.051.016-.076.091-.567.173-1.135.257-1.7q1-6.76,1.7-13.812c.261-2.691.5-5.4.686-8.13a58.536,58.536,0,0,1-7.421,8.057,60.786,60.786,0,0,1-8.41,6.354,62.319,62.319,0,0,1-5.549,3.117,60.558,60.558,0,0,1-11.853,4.416c-3.257.838-8.972,1.232-13.476,1.412a50.84,50.84,0,1,0,38.53-84.012Z" transform="translate(11005.659 -527.346)" fill="#fff" fill-rule="evenodd"/>
    </g>
    <text id="SECURED_BY" data-name="SECURED BY" transform="translate(11256 -410)" fill="#fff" font-size="60" font-family="Montserrat-Regular, Montserrat" letter-spacing="-0.09em"><tspan x="0" y="0">SECURED BY</tspan></text>
  </g>
</svg>
