<svg xmlns="http://www.w3.org/2000/svg" width="577" height="159" viewBox="0 0 577 159">
  <g id="Grupo_123" data-name="Grupo 123" transform="translate(-10337 476)">
    <g id="verified" transform="translate(10297 -469)">
      <path id="Caminho_150" data-name="Caminho 150" d="M164.589,24.613,106.4.454a5.937,5.937,0,0,0-4.553,0L43.661,24.613A5.938,5.938,0,0,0,40,30.1V59.465a99.433,99.433,0,0,0,61.881,92.1,5.939,5.939,0,0,0,4.488,0,99.434,99.434,0,0,0,61.881-92.1V30.1A5.937,5.937,0,0,0,164.589,24.613Zm-8.214,34.852a87.578,87.578,0,0,1-52.25,80.149,87.581,87.581,0,0,1-52.25-80.149V34.06l52.25-21.694,52.25,21.694ZM97.562,79.478l25.521-25.52a5.937,5.937,0,1,1,8.4,8.4L101.761,92.074a5.937,5.937,0,0,1-8.4,0L76.77,75.48a5.937,5.937,0,0,1,8.4-8.4Z" transform="translate(0 0)" fill="#fff"/>
    </g>
    <text id="SITE_SEGURO" data-name="SITE SEGURO" transform="translate(10497 -410)" fill="#fff" font-size="68" font-family="Montserrat-Regular, Montserrat" letter-spacing="-0.07em"><tspan x="0" y="0">SITE SEGURO</tspan></text>
    <text id="by" transform="translate(10584 -334)" fill="#fff" font-size="50" font-family="Montserrat-Regular, Montserrat" letter-spacing="-0.036em"><tspan x="0" y="0">by</tspan></text>
    <g id="google-2015" transform="translate(10656.899 -400.786)">
      <path id="Caminho_151" data-name="Caminho 151" d="M31.61,0h2.283A31.147,31.147,0,0,1,55.211,9c-2.067,2.11-4.178,4.134-6.2,6.245A23.294,23.294,0,0,0,9.9,29.286,23.975,23.975,0,0,0,15.115,47.8a23.051,23.051,0,0,0,16.8,8.269,22.359,22.359,0,0,0,16.71-5.728c3.445-2.972,5.039-7.494,5.556-11.887-7.149,0-14.3.043-21.448,0V29.587h30.1c1.55,9.518-.689,20.242-7.924,27.046a29.434,29.434,0,0,1-18.3,8.226,33.616,33.616,0,0,1-19.251-3.79A33.145,33.145,0,0,1,1.979,43.541a31.754,31.754,0,0,1-.215-21.491A32.788,32.788,0,0,1,13.608,6.331,33.811,33.811,0,0,1,31.61,0Z" transform="translate(0)" fill="#fff"/>
      <path id="Caminho_152" data-name="Caminho 152" d="M474.4,5.2h9.216V66.7c-3.058,0-6.159.043-9.216-.043.043-20.457,0-40.957,0-61.457Z" transform="translate(-270.09 -2.96)" fill="#fff"/>
      <path id="Caminho_153" data-name="Caminho 153" d="M171.173,54.195a21.641,21.641,0,0,1,16.538,3.532,20.229,20.229,0,0,1,8.14,12.92,20.825,20.825,0,0,1-21.878,24.979,20.959,20.959,0,0,1-15.677-8.4,21.529,21.529,0,0,1-2.842-19.553,20.438,20.438,0,0,1,15.72-13.48m1.292,8.183a11.579,11.579,0,0,0-6.029,3.833A13.661,13.661,0,0,0,167.125,84a11.468,11.468,0,0,0,10.25,3.187,11.6,11.6,0,0,0,8.011-5.9c2.842-5.125,2.024-12.188-2.326-16.193a11.62,11.62,0,0,0-10.595-2.713Z" transform="translate(-87.839 -30.637)" fill="#fff"/>
      <path id="Caminho_154" data-name="Caminho 154" d="M277.191,54.191a21.421,21.421,0,0,1,18.476,5.125c7.924,7.106,8.786,20.414,2.024,28.6a21.3,21.3,0,0,1-33.377-.689A21.736,21.736,0,0,1,261.6,67.24a20.455,20.455,0,0,1,15.59-13.049m1.292,8.183a11.776,11.776,0,0,0-6.029,3.79,13.68,13.68,0,0,0,.474,17.615,11.524,11.524,0,0,0,10.508,3.4,11.814,11.814,0,0,0,8.011-5.9c2.8-5.168,1.981-12.231-2.412-16.236a11.545,11.545,0,0,0-10.552-2.67Z" transform="translate(-148.206 -30.633)" fill="#fff"/>
      <path id="Caminho_155" data-name="Caminho 155" d="M376.056,56.687c4.953-3.1,11.542-3.962,16.882-1.292a16.088,16.088,0,0,1,4.393,3.23c.043-1.163,0-2.369.043-3.575,2.886.043,5.771,0,8.7.043V93.079c-.043,5.728-1.507,11.8-5.642,15.978-4.522,4.608-11.456,6.029-17.7,5.082a20.027,20.027,0,0,1-15.074-12.016c2.584-1.249,5.3-2.24,7.967-3.4,1.507,3.532,4.565,6.546,8.4,7.235s8.269-.258,10.767-3.445c2.67-3.273,2.67-7.752,2.541-11.757a15.289,15.289,0,0,1-7.02,4.307c-5.986,1.68-12.576-.388-17.184-4.436a21.2,21.2,0,0,1,2.929-33.937m8.915,5.513a11.33,11.33,0,0,0-6.762,3.919,13.74,13.74,0,0,0,.043,17.27,11.268,11.268,0,0,0,9.69,3.962,10.943,10.943,0,0,0,8.226-5.47A14.536,14.536,0,0,0,394.7,65.6a10.6,10.6,0,0,0-9.733-3.4Z" transform="translate(-208.353 -30.631)" fill="#fff"/>
      <path id="Caminho_156" data-name="Caminho 156" d="M512.868,58.848a19.437,19.437,0,0,1,19.768-3.919c6.288,2.369,10.293,8.355,12.317,14.514-9.346,3.876-18.648,7.709-27.994,11.585a11.106,11.106,0,0,0,5.943,5.6,12.064,12.064,0,0,0,11.37-1.637,18.335,18.335,0,0,0,3.187-3.4c2.369,1.593,4.737,3.144,7.106,4.737a21.086,21.086,0,0,1-33.291,2.11c-7.149-8.269-6.46-22.137,1.594-29.587m4.608,7.967a12.3,12.3,0,0,0-2.024,7.235q9.367-3.876,18.734-7.8a7.747,7.747,0,0,0-6.072-4.264A11,11,0,0,0,517.476,66.815Z" transform="translate(-288.273 -30.596)" fill="#fff"/>
    </g>
  </g>
</svg>
