<?xml version="1.0" encoding="UTF-8"?><svg id="Camada_1" xmlns="http://www.w3.org/2000/svg" viewBox="0 0 18.3 31.67"><defs><style>.cls-1{fill:#6950a2;}</style></defs><path class="cls-1" d="M2.72,31.67h12.87c1.5,0,2.72-1.22,2.72-2.72V2.72c0-1.5-1.22-2.72-2.72-2.72H2.72C1.22,0,0,1.22,0,2.72v26.24c0,1.5,1.22,2.72,2.72,2.72ZM17.74,26.02H.56V4.75h17.18v21.27ZM2.72.56h12.87c1.19,0,2.16.97,2.16,2.16v1.47H.56v-1.47C.56,1.53,1.53.56,2.72.56ZM.56,26.58h17.18v2.37c0,1.19-.97,2.16-2.16,2.16H2.72c-1.19,0-2.16-.97-2.16-2.16v-2.37Z"/><path class="cls-1" d="M7.76,2.14h2.78v.56h-2.78v-.56Z"/><path class="cls-1" d="M9.15,30.42c.87,0,1.58-.71,1.58-1.58s-.71-1.58-1.58-1.58-1.58.71-1.58,1.58.71,1.58,1.58,1.58ZM9.15,27.82c.56,0,1.02.46,1.02,1.02s-.46,1.02-1.02,1.02-1.02-.46-1.02-1.02.46-1.02,1.02-1.02Z"/></svg>