<?xml version="1.0" encoding="UTF-8"?>
<svg id="Camada_1"
  xmlns="http://www.w3.org/2000/svg" viewBox="0 0 18.38 24.51">
  <defs>
    <style>.cls-1{fill:#ffffff;}</style>
  </defs>
  <path class="cls-1" d="M18.04,3.09L9.36.03c-.11-.04-.23-.04-.34,0L.34,3.09c-.2.07-.34.27-.34.48v6.13c0,7.93,1.18,10.83,8.96,14.75.07.04.15.05.23.05s.16-.02.23-.05c7.78-3.92,8.96-6.82,8.96-14.75V3.57c0-.22-.14-.41-.34-.48ZM17.36,9.7c0,7.59-.97,10.05-8.17,13.72C1.99,19.75,1.02,17.3,1.02,9.7V3.94L9.19,1.05l8.17,2.88v5.77h0Z"/>
  <path class="cls-1" d="M3.93,10.36c-.2-.2-.52-.2-.72,0-.2.2-.2.52,0,.72l4.08,4.08c.1.1.23.15.36.15s.26-.05.36-.15l7.15-7.15c.2-.2.2-.52,0-.72-.2-.2-.52-.2-.72,0l-6.79,6.79-3.72-3.72Z"/>
</svg>