<?xml version="1.0" encoding="UTF-8"?><svg id="Camada_1" xmlns="http://www.w3.org/2000/svg" viewBox="0 0 32.35 32.35"><defs><style>.cls-1{fill:#6950a2;}</style></defs><path class="cls-1" d="M11.52,32.35c-.2,0-.39-.08-.53-.22L.22,21.36c-.14-.14-.22-.33-.22-.53s.08-.39.22-.53L14.86,5.66c.22-.22.59-.37.9-.37l10.51.04c.41,0,.75.34.75.75l.04,10.51c0,.31-.16.69-.37.9l-14.64,14.64c-.14.14-.33.22-.53.22h0ZM15.76,6.03c-.11,0-.3.08-.37.15L.75,20.83l10.77,10.77h0s0,0,0,0l14.64-14.64c.07-.07.15-.27.15-.37l-.04-10.51-10.51-.04Z"/><path class="cls-1" d="M22.9,11.19c-.47,0-.9-.18-1.23-.51-.33-.33-.51-.77-.51-1.23,0-.47.18-.9.51-1.23.33-.33.77-.51,1.23-.51s.9.18,1.23.51.51.77.51,1.23c0,.47-.18.9-.51,1.23-.33.33-.77.51-1.23.51h0ZM22.9,8.45c-.27,0-.51.1-.7.29s-.29.44-.29.7.1.51.29.7c.19.19.44.29.7.29s.51-.1.7-.29.29-.44.29-.7-.1-.51-.29-.7-.44-.29-.7-.29Z"/><path class="cls-1" d="M22.9,9.82c-.1,0-.19-.04-.26-.11-.15-.15-.15-.38,0-.53L31.71.11c.15-.15.38-.15.53,0,.15.15.15.38,0,.53l-9.07,9.07c-.07.07-.17.11-.26.11Z"/><path class="cls-1" d="M13.45,17.5h0c-1.03,0-1.86-.84-1.86-1.86,0-1.03.84-1.86,1.86-1.86,1.03,0,1.86.84,1.86,1.86s-.84,1.86-1.86,1.86ZM13.45,14.52c-.62,0-1.12.5-1.12,1.12s.5,1.12,1.12,1.12c.62,0,1.12-.5,1.12-1.12,0-.62-.5-1.12-1.12-1.12Z"/><path class="cls-1" d="M13.45,24.02c-1.03,0-1.86-.84-1.86-1.86,0-1.03.84-1.86,1.86-1.86s1.86.84,1.86,1.86-.84,1.86-1.86,1.86h0ZM13.45,21.03c-.62,0-1.12.5-1.12,1.12s.5,1.12,1.12,1.12,1.12-.5,1.12-1.12c0-.62-.5-1.12-1.12-1.12Z"/><path class="cls-1" d="M18.98,19.27H7.93c-.21,0-.37-.17-.37-.37s.17-.37.37-.37h11.05c.21,0,.37.17.37.37s-.17.37-.37.37Z"/></svg>