<?xml version="1.0" encoding="UTF-8"?>
<svg id="Camada_1"
  xmlns="http://www.w3.org/2000/svg" viewBox="0 0 33.22 32.31">
  <defs>
    <style>.cls-1{fill:none;stroke:#ffffff;stroke-miterlimit:10;stroke-width:.75px;}</style>
  </defs>
  <path class="cls-1" d="M25.02,24.18c-1.08,0-2.1-.42-2.86-1.18l-4.13-4.13c-.29-.29-.8-.29-1.09,0l-4.15,4.15c-.76.76-1.78,1.18-2.86,1.18h-.81l5.23,5.23c1.63,1.63,4.28,1.63,5.92,0l5.25-5.25h-.5Z"/>
  <path class="cls-1" d="M9.93,9.57c1.08,0,2.1.42,2.86,1.18l4.15,4.15c.3.3.79.3,1.09,0l4.13-4.13c.76-.76,1.78-1.18,2.86-1.18h.5l-5.25-5.25c-1.63-1.63-4.28-1.63-5.92,0l-5.23,5.23h.81Z"/>
  <path class="cls-1" d="M29.86,13.93l-3.17-3.17c-.07.03-.15.05-.23.05h-1.44c-.75,0-1.48.3-2,.83l-4.13,4.13c-.39.39-.89.58-1.4.58s-1.02-.19-1.4-.58l-4.15-4.15c-.53-.53-1.26-.83-2-.83h-1.77c-.08,0-.15-.02-.21-.04l-3.18,3.18c-1.63,1.63-1.63,4.28,0,5.92l3.18,3.18c.07-.03.14-.04.21-.04h1.77c.75,0,1.47-.3,2-.83l4.15-4.15c.75-.75,2.06-.75,2.8,0l4.13,4.13c.53.53,1.26.83,2,.83h1.44c.08,0,.16.02.23.05l3.17-3.17c1.63-1.63,1.63-4.28,0-5.92h0Z"/>
</svg>