<?xml version="1.0" encoding="UTF-8"?><svg id="Camada_1" xmlns="http://www.w3.org/2000/svg" viewBox="0 0 26.62 27.58"><defs><style>.cls-1{fill:#6950a2;}</style></defs><path class="cls-1" d="M26.53,15.22l-2.5-4.92c-.22-.44-.66-.72-1.12-.72H3.71c-.47,0-.9.27-1.12.72L.09,15.22c-.13.26-.12.58.03.82.14.23.38.37.64.37h2.03v9.89c0,.7.53,1.27,1.18,1.27h18.66c.65,0,1.18-.57,1.18-1.27v-4.25c0-.22-.18-.4-.4-.4s-.4.18-.4.4v4.25c0,.25-.17.47-.37.47h-8.93v-15.1l2.11,4.15c.18.36.54.59.92.59h6.27v3.76c0,.22.18.4.4.4s.4-.18.4-.4v-3.76h2.03c.26,0,.5-.14.64-.37.15-.25.16-.56.03-.82ZM.81,15.6s0-.01,0-.02l2.5-4.92c.09-.17.24-.28.4-.28h8.94c-.31.61-2.16,4.24-2.57,5.06h0c-.05.09-.12.15-.2.15H.81ZM12.9,26.77H3.98c-.2,0-.37-.21-.37-.47v-9.89h6.27c.39,0,.74-.23.92-.59l2.11-4.15v15.1ZM16.74,15.6c-.08,0-.16-.06-.2-.15l-2.57-5.06h8.94c.16,0,.32.11.4.28l2.5,4.92s0,.01,0,.02c-.25,0-8.84,0-9.07,0Z"/><path class="cls-1" d="M13.31,1.26c-.9-1.44-2.92-1.69-4.14-.47-.5.5-.78,1.17-.78,1.88,0,2.05,1.38,4.04,3.77,5.45.06.04.14.06.2.06.14,0,.27-.07.35-.2.11-.19.05-.44-.14-.55-1.01-.6-3.37-2.26-3.37-4.75,0-1.11.98-1.99,2.1-1.84,1,.13,1.35.92,1.42,1,.36.37.84.37,1.18-.01.09-.1.52-1.01,1.66-1.01,1.02,0,1.85.83,1.85,1.85,0,2.38-2.11,4-3.37,4.76-.19.11-.25.36-.14.55.11.19.36.25.55.14,2.43-1.46,3.77-3.4,3.77-5.45,0-2.6-3.42-3.71-4.92-1.4Z"/></svg>