<svg width="19" height="32" viewBox="0 0 19 32" fill="none" xmlns="http://www.w3.org/2000/svg">
<path id="Vector" d="M2.85 31.98H15.72C17.22 31.98 18.44 30.76 18.44 29.26V3.01999C18.44 1.51999 17.22 0.299988 15.72 0.299988H2.85C1.35 0.299988 0.130005 1.51999 0.130005 3.01999V29.26C0.130005 30.76 1.35 31.98 2.85 31.98ZM17.87 26.33H0.690002V5.05999H17.87V26.33ZM2.85 0.869987H15.72C16.91 0.869987 17.88 1.83999 17.88 3.02999V4.49999H0.700005V3.02999C0.700005 1.83999 1.67 0.869987 2.86 0.869987H2.85ZM0.690002 26.89H17.87V29.26C17.87 30.45 16.9 31.42 15.71 31.42H2.84C1.65 31.42 0.680004 30.45 0.680004 29.26V26.89H0.690002Z" fill="#6950A2"/>
</svg>
