<?xml version="1.0" encoding="UTF-8"?>
<svg id="Camada_1"
  xmlns="http://www.w3.org/2000/svg" viewBox="0 0 33.72 33.7">
  <defs>
    <style>.cls-1{fill:#ffffff;}</style>
  </defs>
  <path class="cls-1" d="M22.8,26.67l-5.7-3-5.7,3c-.27.14-.61.04-.75-.23-.06-.11-.08-.23-.06-.35l1.09-6.35-4.61-4.5c-.22-.21-.23-.57-.01-.79.09-.09.2-.15.32-.16l6.38-.93,2.85-5.78c.14-.28.47-.39.75-.25.11.05.2.14.25.25l2.85,5.78,6.38.93c.3.04.52.33.47.63-.02.12-.07.23-.16.32l-4.61,4.5,1.09,6.35c.05.3-.15.59-.45.64-.12.02-.25,0-.35-.06h0ZM8.65,15.23l4.01,3.91c.13.13.19.31.16.49l-.95,5.53,4.96-2.61c.16-.08.36-.08.52,0l4.96,2.61-.95-5.53c-.03-.18.03-.37.16-.49l4.02-3.91-5.55-.81c-.18-.03-.34-.14-.42-.3l-2.48-5.03-2.48,5.03c-.08.16-.24.28-.42.3l-5.55.81Z"/>
  <path class="cls-1" d="M17.1,4.86c-.31,0-.56-.25-.56-.56V.54c.01-.31.27-.55.58-.54.29,0,.53.25.54.54v3.76c0,.31-.25.56-.56.56Z"/>
  <path class="cls-1" d="M7.77,8.2l-2.66-2.66c-.22-.22-.22-.57,0-.79s.57-.22.79,0l2.66,2.66c.22.22.22.57,0,.79s-.57.22-.79,0h0Z"/>
  <path class="cls-1" d="M4.32,17.16H.56c-.31,0-.56-.25-.56-.56s.25-.56.56-.56h3.76c.31,0,.56.25.56.56s-.25.56-.56.56Z"/>
  <path class="cls-1" d="M4.77,28.59c-.22-.22-.22-.57,0-.79l2.66-2.66c.22-.22.57-.22.79,0s.22.57,0,.79l-2.66,2.66c-.22.22-.57.22-.79,0,0,0,0,0,0,0h0Z"/>
  <path class="cls-1" d="M16.62,33.7c-.31,0-.56-.25-.56-.56h0v-3.76c0-.31.25-.56.56-.56s.56.25.56.56v3.76c0,.31-.25.56-.56.56h0Z"/>
  <path class="cls-1" d="M27.82,28.93l-2.66-2.66c-.21-.22-.21-.57.01-.79.22-.21.56-.21.77,0l2.66,2.66c.22.21.23.57.01.79-.21.22-.57.23-.79.01,0,0,0,0-.01-.01h0Z"/>
  <path class="cls-1" d="M33.16,17.64h-3.76c-.31,0-.56-.25-.56-.56s.25-.56.56-.56h3.76c.31,0,.56.25.56.56s-.25.56-.56.56Z"/>
  <path class="cls-1" d="M25.5,8.54c-.22-.22-.22-.57,0-.79l2.66-2.66c.22-.22.57-.22.79,0,.22.22.22.57,0,.79l-2.66,2.66c-.22.22-.57.22-.79,0,0,0,0,0,0,0Z"/>
</svg>