<svg id="Layer_1" enable-background="new 0 0 512 512" viewBox="0 0 512 512" xmlns="http://www.w3.org/2000/svg"><path d="m387.6 388.9c-13.4 7.4-23.6 18.8-30.1 32v-79.4c0-2.3-1.9-4.2-4.2-4.2s-4.2 1.9-4.2 4.2v76.1h-16.6v-.4c0-8.7-6.7-15.8-15.1-16.7v-.3-31.5-70.2c.2-6.2-2.7-13.1-7.2-17.9-4.7-4.9-11.3-7.8-17.6-8h-14.7v-6.2c3.1 1.4 6.4 2.2 9.9 2.2h51.2 10v44.7c0 5.6 8.5 5.5 8.5 0v-44.7h26.4l39.4 95.2c.7 1.6 2.3 2.6 3.9 2.6 2.9.1 5.1-3.2 3.9-5.9l-38.1-92h8.7c.1 0 .2 0 .3-.1 3.1.4 7-.2 9.7.1 7.8 0 14.2-6.4 14.2-14.2v-19.3c0-7.8-6.4-14.2-14.2-14.2-2.7.3-6.6-.3-9.7.1-.1 0-.2-.1-.3-.1h-42c-2-.5-4.2-.9-6.5-1h-55.6l-20-20c0-5.7 0-23.8 0-23.8-1.2-29.4-23.2-43.9-44.8-43 10.9-6.5 12.8-21.7 11.7-37.6-.7-10.9 8.9-20.7 19.8-20.4h42c2.3 0 4.2-1.9 4.2-4.2 0-39-31.7-70.6-70.6-70.6s-70.5 31.8-70.5 70.7c0 31.8 18.2 65.9 48.5 65.6-13.9 5.7-25.3 18.6-27.2 39.3l-8.6 100.8c-.3 2.4 1.8 4.7 4.2 4.6h4.4v17.3c0 14.3 11.6 25.9 25.9 25.9h48.8v23.3c-1.2 1.7-3.1 2.8-5.2 2.8h-16.2-133.2-7.5c-3.5 0-6.4-2.9-6.4-6.4v-18.6c0-3.5 2.9-6.4 6.4-6.4h56.2 27c5.6 0 5.5-8.5 0-8.5h-22.8v-116.5c0-8.7-7.1-15.8-15.8-15.8h-37.6-38-37.6c-8.7 0-15.8 7.1-15.8 15.8v23.2c0 5.6 8.5 5.5 8.5 0v-23.2c0-4 3.3-7.3 7.3-7.3h29.4v37.6c0 4.5 3.7 8.2 8.2 8.2h38.1c4.5 0 8.2-3.7 8.2-8.2v-37.6h29.4c4 0 7.3 3.3 7.3 7.3v116.6h-52-68.6c-4 0-7.3-3.3-7.3-7.3v-55.2c0-5.6-8.5-5.5-8.5 0v55.2c0 8.7 7.1 15.8 15.8 15.8h55.2c-.9 1.9-1.5 4.1-1.5 6.4v18.6c0 4.4 1.9 8.3 5 11-11.3 6.2-19.1 18.1-19.1 32v20.1c0 2.3 1.9 4.2 4.2 4.2s4.2-1.9 4.2-4.2v-20.1c0-15.5 12.6-28.1 28.1-28.1h129.8c1.9 6 9.6 41.9 12.7 46.7 2.5 5 10.1 1 7.6-3.8-1.9-2.5-8.4-30.6-11.4-42.8h10.7c1.8 0 3.6-.4 5.2-1.1v10.7 35.9 8 4.6c0 9.3 7.6 16.9 16.9 16.9h45.9c2.3 0 4.2-1.9 4.2-4.2v-3.7h20.9c.9 0 1.6-.3 2.3-.8-3.4 8-5.5 16.6-6.1 25.3h-121.8c-7.9-97.6-149.5-96.3-153.5 4.2 0 2.3 1.9 4.2 4.2 4.2h14.8 2c2.2 28.9 26.4 51.8 55.9 51.8 24.9 0 47.1-16.7 53.9-40.6 1.5-5.4-6.7-7.7-8.2-2.3-14.8 50.2-88.2 43-93.2-8.9h20.4c5 30.7 49.4 30.8 54.4 0h10.2 35.3 125.4c.4 12.1 3.7 24.1 10.2 34.8.8 1.4 2.2 2.1 3.7 2.1.7 0 1.5-.2 2.1-.6l28-16.2 11.4-6.6c19.3 24.1 58.4 1.8 47.1-27.2l17.5-10.1c21.5 46.7-37.2 90-75.4 55-1.7-1.6-4.4-1.5-6 .2s-1.5 4.4.2 6c10.7 9.8 24.2 14.9 37.9 14.9 40.4 1 68.6-44.8 50.6-80.4l14.5-8.4c1-.6 1.7-1.5 2-2.6-15.1-38.9-70.6-52.8-105.5-31.2zm-209.8-318c0-34.3 27.9-62.2 62.2-62.2 32.8 0 59.8 25.6 62 57.9h-37.6c-15.6-.4-29.2 13.6-28.3 29.2.7 19-.1 34.6-21.6 32-22.6-1.9-36.7-31-36.7-56.9zm-67.4 153.2-37.8.3v-37.6h37.5zm163.5 176.3v-.1-27.3h34.8v27.2.1h-34.8zm143.5-165.3v19.3c-.2 6.5-6.8 5.8-11.5 5.7v-30.7c4.7-.1 11.3-.7 11.5 5.7zm-19.9 25.1h-10.8-14.9c7.1-8.6 7.3-21.8.7-30.7h25zm-28.4-15.9c0 8.7-7.1 15.8-15.8 15.8h-14.4-51.2c-4.2 0-8.2-1.7-11.2-4.6l-3.8-3.8s-11.5-11.5-23-23l22.4-22.4 20.9 20.9c.8.8 1.9 1.2 3 1.2h57.3c8.7.1 15.8 7.2 15.8 15.9zm-169.9-67.7c3.6-47.3 68.2-46 70-.4v15.3l-23.3-23.3c-3.8-4-9.9 2.2-6 6l26.1 26.1-22.4 22.4c-9.2-9.2-17-17-17-17-3.8-4-9.9 2.2-6 6l20 20 28.6 28.6v11.8l-67.2.5h-7c-.1 0-.2 0-.3.1h-3.7c-.1 0 8.2-96.1 8.2-96.1zm17.4 139.4c-9.6 0-17.4-7.8-17.4-17.4v-17.4h2.5 90.6c8.7.1 16.7 8.7 16.4 17.4v66h-34.8v-15.1c0-.2 0-.4 0-.6v-28.6c0-2.3-1.9-4.2-4.2-4.2h-53.1zm107.3 109.6h-41.6c-4.6 0-8.4-3.8-8.4-8.4v-4.6-3.7h41.6c4.6 0 8.4 3.8 8.4 8.4zm-191.3 33.6h37.1c-4.2 19.4-32.9 19.4-37.1 0zm56-8.5h-14.1-46.6-28.6-6-10.4c7.6-84.9 128.9-85 136.6 0zm247 21.3c-7.5 4.5-17.6 2.7-23.5-3.5l32.1-18.5c2.6 8.2-.8 17.5-8.6 22zm-11.7-20.1-21.7 12.5c-2.5 1.3-5.5 3.1-8.1 4.7l-29.3 16.9c-23.2-43.5 11.8-100.1 61.2-98.9 22.6-.1 44.8 11.7 57.1 30.6zm-124.1-369.4c2.3.4 3.8 2.6 3.4 4.9-4.3 24.8-25.1 44-50.3 46.4-5.2.1-5.7-8-.4-8.5 21.3-2.2 38.7-18.4 42.4-39.4.3-2.2 2.6-3.8 4.9-3.4z" fill="rgb(0,0,0)"/></svg>