<svg width="512" height="512" viewBox="0 0 512 512" fill="none" xmlns="http://www.w3.org/2000/svg">
<path d="M200.339 311.675C194.48 305.816 184.987 305.816 179.128 311.675L138.083 352.705C132.224 358.564 132.224 368.057 138.083 373.916C143.943 379.776 153.435 379.775 159.294 373.916L200.339 332.886C206.198 327.026 206.198 317.534 200.339 311.675V311.675Z" fill="url(#paint0_linear)"/>
<path d="M316.999 0C209.479 0 121.999 87.48 121.999 195C121.999 302.52 209.479 390 316.999 390C424.519 390 511.999 302.52 511.999 195C511.999 87.48 424.519 0 316.999 0ZM138.083 331.494C132.224 325.635 122.731 325.635 116.872 331.494L4.39425 443.973C-1.46475 449.832 -1.46475 459.325 4.39425 465.184L46.8162 507.606C52.6762 513.465 62.1683 513.465 68.0273 507.606L180.506 395.127C186.365 389.268 186.365 379.775 180.506 373.916L138.083 331.494Z" fill="url(#paint1_linear)"/>
<g opacity="0.75" filter="url(#filter0_bi)">
<circle cx="316" cy="194" r="164" fill="#EDEAFF"/>
</g>
<path d="M315.9 249.4C306.6 249.4 298.35 247.25 291.15 242.95C284.05 238.55 278.45 232.25 274.35 224.05C270.35 215.75 268.35 205.9 268.35 194.5C268.35 183.1 270.35 173.3 274.35 165.1C278.45 156.8 284.05 150.5 291.15 146.2C298.35 141.8 306.6 139.6 315.9 139.6C325.2 139.6 333.4 141.8 340.5 146.2C347.7 150.5 353.3 156.8 357.3 165.1C361.4 173.3 363.45 183.1 363.45 194.5C363.45 205.9 361.4 215.75 357.3 224.05C353.3 232.25 347.7 238.55 340.5 242.95C333.4 247.25 325.2 249.4 315.9 249.4ZM315.9 221.05C323.9 221.05 327.9 212.2 327.9 194.5C327.9 176.8 323.9 167.95 315.9 167.95C307.9 167.95 303.9 176.8 303.9 194.5C303.9 212.2 307.9 221.05 315.9 221.05Z" fill="#374447"/>
<g style="mix-blend-mode:overlay" opacity="0.75" filter="url(#filter1_b)">
<circle cx="316" cy="194" r="164" fill="#EDEAFF"/>
</g>
<g opacity="0.15" filter="url(#filter2_b)">
<circle cx="316" cy="194" r="164" fill="url(#paint2_radial)"/>
</g>
<defs>
<filter id="filter0_bi" x="35" y="-87" width="562" height="562" filterUnits="userSpaceOnUse" color-interpolation-filters="sRGB">
<feFlood flood-opacity="0" result="BackgroundImageFix"/>
<feGaussianBlur in="BackgroundImage" stdDeviation="58.5"/>
<feComposite in2="SourceAlpha" operator="in" result="effect1_backgroundBlur"/>
<feBlend mode="normal" in="SourceGraphic" in2="effect1_backgroundBlur" result="shape"/>
<feColorMatrix in="SourceAlpha" type="matrix" values="0 0 0 0 0 0 0 0 0 0 0 0 0 0 0 0 0 0 127 0" result="hardAlpha"/>
<feOffset dx="4" dy="4"/>
<feGaussianBlur stdDeviation="4"/>
<feComposite in2="hardAlpha" operator="arithmetic" k2="-1" k3="1"/>
<feColorMatrix type="matrix" values="0 0 0 0 0.403108 0 0 0 0 0.426538 0 0 0 0 0.445833 0 0 0 0.5 0"/>
<feBlend mode="normal" in2="shape" result="effect2_innerShadow"/>
</filter>
<filter id="filter1_b" x="35" y="-87" width="562" height="562" filterUnits="userSpaceOnUse" color-interpolation-filters="sRGB">
<feFlood flood-opacity="0" result="BackgroundImageFix"/>
<feGaussianBlur in="BackgroundImage" stdDeviation="58.5"/>
<feComposite in2="SourceAlpha" operator="in" result="effect1_backgroundBlur"/>
<feBlend mode="normal" in="SourceGraphic" in2="effect1_backgroundBlur" result="shape"/>
</filter>
<filter id="filter2_b" x="35" y="-87" width="562" height="562" filterUnits="userSpaceOnUse" color-interpolation-filters="sRGB">
<feFlood flood-opacity="0" result="BackgroundImageFix"/>
<feGaussianBlur in="BackgroundImage" stdDeviation="58.5"/>
<feComposite in2="SourceAlpha" operator="in" result="effect1_backgroundBlur"/>
<feBlend mode="normal" in="SourceGraphic" in2="effect1_backgroundBlur" result="shape"/>
</filter>
<linearGradient id="paint0_linear" x1="169.211" y1="378.311" x2="169.211" y2="307.28" gradientUnits="userSpaceOnUse">
<stop stop-color="#EDEAFF"/>
<stop offset="0.9973" stop-color="white"/>
</linearGradient>
<linearGradient id="paint1_linear" x1="255.999" y1="512" x2="255.999" y2="0" gradientUnits="userSpaceOnUse">
<stop stop-color="#6950A2"/>
<stop offset="1" stop-color="#FFB8D6"/>
</linearGradient>
<radialGradient id="paint2_radial" cx="0" cy="0" r="1" gradientUnits="userSpaceOnUse" gradientTransform="translate(316 194) rotate(90) scale(164)">
<stop stop-color="#EDEAFF"/>
<stop offset="1" stop-color="#DCDCDC"/>
</radialGradient>
</defs>
</svg>
