<?xml version="1.0"?>
<svg xmlns="http://www.w3.org/2000/svg" xmlns:xlink="http://www.w3.org/1999/xlink" xmlns:svgjs="http://svgjs.com/svgjs" version="1.1" width="512" height="512" x="0" y="0" viewBox="0 0 512 512" style="enable-background:new 0 0 512 512" xml:space="preserve" class=""><g><g xmlns="http://www.w3.org/2000/svg"><path d="m366.014 15c0-8.284-6.716-15-15-15h-60c-8.284 0-15 6.716-15 15v26h90z" fill="#baa7df" data-original="#000000" style="" class=""/><path d="m101.557 433.29c-13.208-7.793-25.398-17.237-36.231-28.069-.791-.791-1.563-1.598-2.337-2.402-17.861 8.898-34.001 21.331-47.36 36.816-4.856 5.629-4.856 13.967 0 19.597 28.93 33.535 70.902 52.768 115.152 52.768 13.199 0 26.19-1.724 38.698-5.015-15.703-16.569-28.526-35.539-38.047-56.07z" fill="#baa7df" data-original="#000000" style="" class=""/><path d="m116.802 407.452c-3.146-14.436-4.788-29.29-4.788-44.339 0-34.057 8.292-66.905 23.419-96.108-24.222-12.093-51.511-17.627-79.149-15.591-7.415.546-13.311 6.442-13.857 13.857-3.255 44.17 12.824 87.448 44.113 118.737 9.153 9.153 19.335 16.997 30.262 23.444z" fill="#baa7df" data-original="#000000" style="" class=""/><path d="m407.104 206.143c-24.052-13.216-37.847-36.535-37.847-63.977v-41.228c7.701-.634 13.756-7.073 13.756-14.937 0-7.878-6.078-14.325-13.798-14.939-.003-.04-96.401-.04-96.403 0-7.72.614-13.798 7.061-13.798 14.939 0 7.864 6.055 14.303 13.756 14.937v41.228c0 27.441-13.795 50.76-37.847 63.977-39.368 21.633-68.49 56.789-82.867 97.858h337.915c-14.377-41.07-43.499-76.226-82.867-97.858z" fill="#baa7df" data-original="#000000" style="" class=""/><path d="m497.619 334h-353.211c-1.571 9.534-2.394 19.262-2.394 29.112 0 57.946 28.26 112.572 75.596 146.125 2.536 1.797 5.566 2.763 8.674 2.763h189.458c3.108 0 6.139-.965 8.674-2.763 47.336-33.553 75.596-88.179 75.596-146.125.002-9.849-.822-19.578-2.393-29.112z" fill="#baa7df" data-original="#000000" style="" class=""/></g></g></svg>
