<svg xmlns="http://www.w3.org/2000/svg" width="422.631" height="136" viewBox="0 0 422.631 136">
  <g id="Grupo_129" data-name="Grupo 129" transform="translate(-11792 466)">
    <g id="rapidssl-seeklogo.com" transform="translate(11780.3 -410.7)">
      <g id="Grupo_127" data-name="Grupo 127" transform="translate(11.7 1.7)">
        <g id="Grupo_125" data-name="Grupo 125">
          <path id="Caminho_165" data-name="Caminho 165" d="M60.674,21.74c0-12.827-9.328-19.24-20.989-19.24H11.7V62.843H23.652V41.271H36.187L46.682,62.843h13.7L48.722,39.522C56.885,36.607,60.674,31.068,60.674,21.74ZM39.977,29.9H24.235V14.161h15.45c5.247,0,8.454,2.041,8.454,7.871C48.431,27.279,45.516,29.9,39.977,29.9Z" transform="translate(-11.7 -0.168)" fill="#fff"/>
          <path id="Caminho_166" data-name="Caminho 166" d="M49.806,7.4c-7.579,0-11.661,1.458-16.908,4.664l4.664,8.162c4.373-2.041,7-3.207,12.535-3.207,4.373,0,6.413,2.624,6.413,5.539V24.6q-2.624-1.749-8.745-1.749c-10.2,0-18.365,4.956-18.365,14.867,0,11.077,8.454,16.033,16.908,16.033a14.863,14.863,0,0,0,10.2-3.79v3.207H68.463V22.559C68.463,12.939,60.883,7.4,49.806,7.4Zm6.7,32.941a10.33,10.33,0,0,1-8.162,4.373c-4.956,0-6.7-2.915-6.7-6.122,0-3.5,2.624-5.539,6.7-5.539,4.373,0,6.122.583,8.162,1.749Z" transform="translate(22.198 9.216)" fill="#fff"/>
          <path id="Caminho_167" data-name="Caminho 167" d="M66.272,7.4a13.332,13.332,0,0,0-9.62,3.79V8.275H44.7V69.784l11.952-6.122V50.544a13.747,13.747,0,0,0,9.62,3.5c11.369,0,17.782-9.62,17.782-23.03C84.054,14.979,76.183,7.4,66.272,7.4ZM64.814,43.548a10.4,10.4,0,0,1-8.162-3.79V22.267c1.749-2.041,3.5-3.79,7.579-3.79,4.664,0,7.871,3.79,7.871,13.118C72.1,39.175,69.479,43.548,64.814,43.548Z" transform="translate(51.499 9.216)" fill="#fff"/>
          <rect id="Retângulo_21" data-name="Retângulo 21" width="11.952" height="45.476" transform="translate(140.801 17.782)" fill="#fff"/>
          <path id="Caminho_168" data-name="Caminho 168" d="M66.5,1.8a6.986,6.986,0,0,0-6.7,6.7,6.7,6.7,0,0,0,13.41,0A6.781,6.781,0,0,0,66.5,1.8Z" transform="translate(80.418 -1.508)" fill="#fff"/>
          <path id="Caminho_169" data-name="Caminho 169" d="M93.4,7.822V22.106a13.747,13.747,0,0,0-9.62-3.5C72.413,18.608,66,28.228,66,41.637c0,16.908,7.871,24.2,17.782,24.2a13.332,13.332,0,0,0,9.62-3.79v2.915h11.952V1.7Zm0,42.852c-1.749,2.041-3.5,3.79-7.579,3.79-4.664,0-7.871-3.79-7.871-13.118,0-7.579,2.624-11.661,7-11.661a10.4,10.4,0,0,1,8.162,3.79C93.4,33.475,93.4,50.674,93.4,50.674Z" transform="translate(92.292 -1.7)" fill="#fff"/>
        </g>
        <g id="Grupo_126" data-name="Grupo 126" transform="translate(202.893 1.749)">
          <path id="Caminho_170" data-name="Caminho 170" d="M108.119,26.5c-9.62-2.041-11.952-3.5-11.952-7,0-2.915,2.041-5.247,8.454-5.247a17.74,17.74,0,0,1,13.7,6.122l8.745-8.454A27.988,27.988,0,0,0,105.2,2.3C93.252,2.3,83.632,9,83.632,20.082c0,11.952,7.871,15.159,18.657,18.074,11.369,2.624,13.41,4.373,13.41,8.162,0,4.664-3.207,6.413-10.494,6.413-5.539,0-11.369-2.041-15.159-6.7L81.3,53.9c4.664,6.7,13.41,11.077,23.321,11.077,16.325,0,23.613-7.871,23.613-19.24C128.234,32.034,117.739,28.828,108.119,26.5Z" transform="translate(-81.3 -2.3)" fill="#fff"/>
          <path id="Caminho_171" data-name="Caminho 171" d="M125.119,26.5c-9.62-2.041-11.952-3.5-11.952-7,0-2.915,2.041-5.247,8.454-5.247a17.74,17.74,0,0,1,13.7,6.122l8.745-8.454A27.988,27.988,0,0,0,122.2,2.3c-11.952,0-21.572,6.7-21.572,17.782,0,11.952,7.871,15.159,18.657,18.074,11.369,2.624,13.41,4.373,13.41,8.162,0,4.664-3.207,6.413-10.494,6.413-5.539,0-11.369-2.041-15.159-6.7L98.3,53.9c4.664,6.7,13.41,11.077,23.321,11.077,16.325,0,23.613-7.871,23.613-19.24C144.942,32.034,134.739,28.828,125.119,26.5Z" transform="translate(-48.743 -2.3)" fill="#fff"/>
          <path id="Caminho_172" data-name="Caminho 172" d="M143.045,51.183h-13.7V2.5H117.1V62.843h32.941Z" transform="translate(-12.738 -1.917)" fill="#fff"/>
        </g>
      </g>
    </g>
    <text id="_256_bit_Strong_SSL_Encryption" data-name="256 bit Strong SSL Encryption" transform="translate(11792 -435)" fill="#fff" font-size="32" font-family="Montserrat-Light, Montserrat" font-weight="300" letter-spacing="-0.059em"><tspan x="0" y="0">256 bit Strong SSL Encryption</tspan></text>
    <g id="Grupo_128" data-name="Grupo 128" transform="translate(-3 2)">
      <g id="padlock" transform="translate(12166.62 -423)">
        <path id="Caminho_147" data-name="Caminho 147" d="M149.1,31.846V20.427a20.427,20.427,0,1,0-40.853,0V31.846m7.366,0V20.427a13.06,13.06,0,1,1,26.121,0V31.846" transform="translate(-108.251)" fill="#fff"/>
      </g>
      <line id="Linha_3" data-name="Linha 3" x2="51.131" transform="translate(12161.5 -387.584)" fill="none" stroke="#fff" stroke-linecap="round" stroke-width="10"/>
      <line id="Linha_4" data-name="Linha 4" x2="51.131" transform="translate(12161.5 -370.584)" fill="none" stroke="#fff" stroke-linecap="round" stroke-width="10"/>
      <line id="Linha_5" data-name="Linha 5" x2="51.131" transform="translate(12161.5 -353.584)" fill="none" stroke="#fff" stroke-linecap="round" stroke-width="10"/>
    </g>
  </g>
</svg>
