<svg id="Layer_2" height="512" viewBox="0 0 100 100" width="512" xmlns="http://www.w3.org/2000/svg" data-name="Layer 2"><path d="m94.99 33.18c-.03-.36.1-3.41-.12-3.66l-13-24c-.17-.32-.51-.52-.88-.52h-61.98c-.37 0-.7.2-.88.52l-13 24c-.22.23-.09 3.32-.12 3.66 0 4.36 2.42 8.17 6 10.22v49.6h-5c-.55 0-1 .45-1 1s.45 1 1 1h87.98c.55 0 1-.45 1-1s-.45-1-1-1h-5v-49.6c3.58-2.05 6-5.86 6-10.22zm-12 9.82c-5.51 0-10-4.4-10-9.82v-2.18h20v2.18c0 5.41-4.48 9.82-10 9.82zm-21.38 0h-1.22c-5.18 0-9.39-4.4-9.39-9.82v-2.18h20v2.18c0 5.41-4.21 9.82-9.39 9.82zm-32.61-12h20v2.18c0 5.41-4.21 9.82-9.39 9.82h-1.22c-5.18 0-9.39-4.4-9.39-9.82zm63.31-2h-19.6l-7.33-22h15.01l11.91 22zm-29.03-22 7.33 22h-19.61v-22zm-14.28 22h-19.61l7.33-22h12.28zm-29.4-22h15.01l-7.33 22h-19.59zm-12.59 26.18v-2.18h19.99v2.18c0 5.41-4.48 9.82-10 9.82s-10-4.4-10-9.82zm6 11.13c1.25.44 2.6.69 4 .69 4.89 0 9.11-2.91 10.97-7.06 1.77 4.15 5.77 7.06 10.41 7.06h1.22c4.62 0 8.61-2.88 10.39-7 1.78 4.12 5.76 7 10.39 7 .3 0 1.33.01 1.61-.02v48.02h-48.99zm73.99 48.69h-23v-48.27c3.6-.8 6.57-3.37 8.02-6.79 1.86 4.15 6.08 7.06 10.97 7.06 1.4 0 2.75-.25 4-.69v48.69z"/><circle cx="70" cy="67" r="2"/><path d="m53.29 50.29-32.99 33c-.93.9.51 2.34 1.41 1.41l33-32.99c.39-.39.39-1.02 0-1.41s-1.02-.39-1.41 0z"/><path d="m21.01 69c.26 0 .51-.1.71-.29l17-17c.39-.39.39-1.02 0-1.41s-1.02-.39-1.41 0l-17 17c-.64.59-.15 1.74.71 1.71z"/><path d="m53.29 66.29-17 17c-.93.9.51 2.34 1.41 1.41l17-17c.39-.39.39-1.02 0-1.41s-1.02-.39-1.41 0z"/></svg>