<svg width="21" height="20" viewBox="0 0 21 20" fill="none" xmlns="http://www.w3.org/2000/svg">
<path id="Vector" d="M15.91 19.84L10.21 16.84L4.51001 19.84C4.24001 19.98 3.90001 19.88 3.76001 19.61C3.70001 19.5 3.68001 19.38 3.70001 19.26L4.79001 12.91L0.179993 8.41002C-0.0400073 8.20002 -0.0499866 7.84002 0.170013 7.62002C0.260013 7.53002 0.36999 7.47002 0.48999 7.46002L6.87 6.53002L9.72 0.750017C9.86 0.470017 10.19 0.360017 10.47 0.500017C10.58 0.550017 10.67 0.640017 10.72 0.750017L13.57 6.53002L19.95 7.46002C20.25 7.50002 20.47 7.79002 20.42 8.09002C20.4 8.21002 20.35 8.32002 20.26 8.41002L15.65 12.91L16.74 19.26C16.79 19.56 16.59 19.85 16.29 19.9C16.17 19.92 16.04 19.9 15.94 19.84H15.91ZM1.75 8.39002L5.76001 12.3C5.89001 12.43 5.95001 12.61 5.92001 12.79L4.97 18.32L9.92999 15.71C10.09 15.63 10.29 15.63 10.45 15.71L15.41 18.32L14.46 12.79C14.43 12.61 14.49 12.42 14.62 12.3L18.64 8.39002L13.09 7.58002C12.91 7.55002 12.75 7.44002 12.67 7.28002L10.19 2.25002L7.70999 7.28002C7.62999 7.44002 7.47001 7.56002 7.29001 7.58002L1.73999 8.39002H1.75Z" fill="#6950A2"/>
</svg>
