<svg width="205" height="174" viewBox="0 0 205 174" fill="none" xmlns="http://www.w3.org/2000/svg">
<g filter="url(#filter0_i)">
<path fill-rule="evenodd" clip-rule="evenodd" d="M89.7693 8.37128C96.6765 -2.80374 107.892 -2.77711 114.782 8.37128L200.402 146.894C209.623 161.812 202.906 173.906 185.408 173.906H19.1435C1.64156 173.906 -5.1012 161.86 4.14962 146.894L89.7693 8.37128ZM97.1439 11.3446C99.9013 6.8888 104.381 6.90283 107.13 11.3446L194.497 152.515C199.095 159.945 195.656 165.967 187.022 165.967H17.2584C8.53189 165.967 5.16027 159.984 9.78229 152.515L97.1439 11.3446ZM102.279 54.8255C97.8944 54.8255 94.3401 58.422 94.3401 62.7406V110.42C94.3401 114.791 97.8638 118.335 102.279 118.335C106.663 118.335 110.218 114.739 110.218 110.42V62.7406C110.218 58.3692 106.694 54.8255 102.279 54.8255ZM102.279 150.09C106.663 150.09 110.218 146.536 110.218 142.151C110.218 137.767 106.663 134.213 102.279 134.213C97.8944 134.213 94.3401 137.767 94.3401 142.151C94.3401 146.536 97.8944 150.09 102.279 150.09Z" fill="#9181A6"/>
<path fill-rule="evenodd" clip-rule="evenodd" d="M89.7693 8.37128C96.6765 -2.80374 107.892 -2.77711 114.782 8.37128L200.402 146.894C209.623 161.812 202.906 173.906 185.408 173.906H19.1435C1.64156 173.906 -5.1012 161.86 4.14962 146.894L89.7693 8.37128ZM97.1439 11.3446C99.9013 6.8888 104.381 6.90283 107.13 11.3446L194.497 152.515C199.095 159.945 195.656 165.967 187.022 165.967H17.2584C8.53189 165.967 5.16027 159.984 9.78229 152.515L97.1439 11.3446ZM102.279 54.8255C97.8944 54.8255 94.3401 58.422 94.3401 62.7406V110.42C94.3401 114.791 97.8638 118.335 102.279 118.335C106.663 118.335 110.218 114.739 110.218 110.42V62.7406C110.218 58.3692 106.694 54.8255 102.279 54.8255ZM102.279 150.09C106.663 150.09 110.218 146.536 110.218 142.151C110.218 137.767 106.663 134.213 102.279 134.213C97.8944 134.213 94.3401 137.767 94.3401 142.151C94.3401 146.536 97.8944 150.09 102.279 150.09Z" fill="url(#paint0_linear)" style="mix-blend-mode:overlay"/>
</g>
<defs>
<filter id="filter0_i" x="0" y="0" width="204.538" height="177.906" filterUnits="userSpaceOnUse" color-interpolation-filters="sRGB">
<feFlood flood-opacity="0" result="BackgroundImageFix"/>
<feBlend mode="normal" in="SourceGraphic" in2="BackgroundImageFix" result="shape"/>
<feColorMatrix in="SourceAlpha" type="matrix" values="0 0 0 0 0 0 0 0 0 0 0 0 0 0 0 0 0 0 127 0" result="hardAlpha"/>
<feOffset dy="4"/>
<feGaussianBlur stdDeviation="2"/>
<feComposite in2="hardAlpha" operator="arithmetic" k2="-1" k3="1"/>
<feColorMatrix type="matrix" values="0 0 0 0 0 0 0 0 0 0 0 0 0 0 0 0 0 0 0.25 0"/>
<feBlend mode="normal" in2="shape" result="effect1_innerShadow"/>
</filter>
<linearGradient id="paint0_linear" x1="102.269" y1="173.906" x2="102.269" y2="0" gradientUnits="userSpaceOnUse">
<stop stop-color="#6950A2"/>
<stop offset="1" stop-color="#FFB8D6"/>
</linearGradient>
</defs>
</svg>
